AmstelvarA2-Roman_opsz8_wght200.ufo
<glyph name="exclam" format="2">
  <advance width="640"/>
  <unicode hex="0021"/>
  <outline>
    <contour>
      <point x="191" y="108" type="qcurve" smooth="yes"/>
      <point x="191" y="160"/>
      <point x="264" y="236"/>
      <point x="320" y="236" type="qcurve" smooth="yes"/>
      <point x="376" y="236"/>
      <point x="448" y="160"/>
      <point x="448" y="108" type="qcurve" smooth="yes"/>
      <point x="448" y="57"/>
      <point x="376" y="-20"/>
      <point x="320" y="-20" type="qcurve" smooth="yes"/>
      <point x="264" y="-20"/>
      <point x="191" y="57"/>
    </contour>
    <contour>
      <point x="237" y="1391" type="line" smooth="yes"/>
      <point x="235" y="1459"/>
      <point x="270" y="1546"/>
      <point x="318" y="1547" type="qcurve" smooth="yes"/>
      <point x="367" y="1548"/>
      <point x="405" y="1461"/>
      <point x="403" y="1392" type="qcurve" smooth="yes"/>
      <point x="393" y="1108" type="line"/>
      <point x="376" y="800" type="line"/>
      <point x="367" y="435" type="line"/>
      <point x="271" y="435" type="line"/>
      <point x="262" y="800" type="line"/>
      <point x="247" y="1108" type="line"/>
    </contour>
  </outline>
</glyph>
<glyph name="quotedbl" format="2">
  <advance width="1052"/>
  <unicode hex="0022"/>
  <outline>
    <contour>
      <point x="261" y="964" type="line"/>
      <point x="199" y="1437" type="line"/>
      <point x="199" y="1480"/>
      <point x="254" y="1558"/>
      <point x="310" y="1558" type="qcurve" smooth="yes"/>
      <point x="366" y="1558"/>
      <point x="421" y="1480"/>
      <point x="421" y="1437" type="qcurve"/>
      <point x="357" y="964" type="line"/>
    </contour>
    <contour>
      <point x="693" y="964" type="line"/>
      <point x="631" y="1437" type="line"/>
      <point x="631" y="1480"/>
      <point x="686" y="1558"/>
      <point x="742" y="1558" type="qcurve" smooth="yes"/>
      <point x="799" y="1558"/>
      <point x="853" y="1480"/>
      <point x="853" y="1437" type="qcurve"/>
      <point x="789" y="964" type="line"/>
    </contour>
  </outline>
</glyph>
<glyph name="numbersign" format="2">
  <advance width="1407"/>
  <unicode hex="0023"/>
  <outline>
    <contour>
      <point x="102" y="492" type="line"/>
      <point x="102" y="629" type="line"/>
      <point x="1210" y="629" type="line"/>
      <point x="1210" y="492" type="line"/>
    </contour>
    <contour>
      <point x="197" y="852" type="line"/>
      <point x="197" y="989" type="line"/>
      <point x="1305" y="989" type="line"/>
      <point x="1305" y="852" type="line"/>
    </contour>
    <contour>
      <point x="157" y="8" type="line"/>
      <point x="714" y="1524" type="line"/>
      <point x="814" y="1497" type="line"/>
      <point x="258" y="-19" type="line"/>
    </contour>
    <contour>
      <point x="617" y="8" type="line"/>
      <point x="1174" y="1524" type="line"/>
      <point x="1275" y="1497" type="line"/>
      <point x="718" y="-19" type="line"/>
    </contour>
  </outline>
</glyph>
<glyph name="dollar" format="2">
  <advance width="1238"/>
  <unicode hex="0024"/>
  <outline>
    <contour>
      <point x="74" y="272" type="qcurve"/>
      <point x="198" y="346" type="line"/>
      <point x="256" y="254"/>
      <point x="482" y="124"/>
      <point x="653" y="124" type="qcurve" smooth="yes"/>
      <point x="818" y="124"/>
      <point x="1005" y="275"/>
      <point x="1005" y="389" type="qcurve" smooth="yes"/>
      <point x="1005" y="528"/>
      <point x="779" y="677"/>
      <point x="590" y="732" type="qcurve" smooth="yes"/>
      <point x="360" y="802"/>
      <point x="167" y="979"/>
      <point x="167" y="1129" type="qcurve" smooth="yes"/>
      <point x="167" y="1284"/>
      <point x="396" y="1501"/>
      <point x="621" y="1501" type="qcurve" smooth="yes"/>
      <point x="757" y="1501"/>
      <point x="1000" y="1436"/>
      <point x="1088" y="1373" type="qcurve"/>
      <point x="1014" y="1266" type="line"/>
      <point x="952" y="1308"/>
      <point x="759" y="1370"/>
      <point x="629" y="1370" type="qcurve" smooth="yes"/>
      <point x="477" y="1370"/>
      <point x="323" y="1258"/>
      <point x="323" y="1159" type="qcurve" smooth="yes"/>
      <point x="323" y="1066"/>
      <point x="453" y="933"/>
      <point x="678" y="860" type="qcurve" smooth="yes"/>
      <point x="908" y="784"/>
      <point x="1161" y="602"/>
      <point x="1161" y="426" type="qcurve" smooth="yes"/>
      <point x="1161" y="248"/>
      <point x="878" y="1"/>
      <point x="649" y="1" type="qcurve" smooth="yes"/>
      <point x="431" y="1"/>
      <point x="156" y="142"/>
    </contour>
    <contour>
      <point x="567" y="-190" type="line"/>
      <point x="567" y="52" type="line"/>
      <point x="587" y="52" type="line"/>
      <point x="587" y="820" type="line"/>
      <point x="712" y="778" type="line"/>
      <point x="712" y="52" type="line"/>
      <point x="734" y="52" type="line"/>
      <point x="734" y="-140" type="line"/>
    </contour>
    <contour>
      <point x="566" y="1610" type="line"/>
      <point x="733" y="1649" type="line"/>
      <point x="733" y="1418" type="line"/>
      <point x="712" y="1418" type="line"/>
      <point x="712" y="778" type="line"/>
      <point x="587" y="820" type="line"/>
      <point x="587" y="1418" type="line"/>
      <point x="566" y="1418" type="line"/>
    </contour>
  </outline>
</glyph>
<glyph name="ampersand" format="2">
  <advance width="1828"/>
  <unicode hex="0026"/>
  <outline>
    <contour>
      <point x="632" y="-28" type="qcurve" smooth="yes"/>
      <point x="317" y="-28"/>
      <point x="73" y="228"/>
      <point x="82" y="375" type="qcurve" smooth="yes"/>
      <point x="88" y="491"/>
      <point x="260" y="749"/>
      <point x="632" y="912" type="qcurve"/>
      <point x="790" y="952"/>
      <point x="932" y="1121"/>
      <point x="932" y="1211" type="qcurve" smooth="yes"/>
      <point x="932" y="1296"/>
      <point x="809" y="1407"/>
      <point x="692" y="1407" type="qcurve" smooth="yes"/>
      <point x="579" y="1407"/>
      <point x="440" y="1291"/>
      <point x="440" y="1195" type="qcurve" smooth="yes"/>
      <point x="440" y="1101"/>
      <point x="561" y="945"/>
      <point x="699" y="906" type="qcurve"/>
      <point x="1259" y="269" type="line" smooth="yes"/>
      <point x="1330" y="189"/>
      <point x="1454" y="98"/>
      <point x="1540" y="98" type="qcurve" smooth="yes"/>
      <point x="1612" y="98"/>
      <point x="1688" y="135"/>
      <point x="1725" y="170" type="qcurve"/>
      <point x="1799" y="113" type="line"/>
      <point x="1748" y="44"/>
      <point x="1609" y="-36"/>
      <point x="1506" y="-37" type="qcurve" smooth="yes"/>
      <point x="1399" y="-38"/>
      <point x="1266" y="40"/>
      <point x="1135" y="176" type="qcurve" smooth="yes"/>
      <point x="572" y="822" type="line"/>
      <point x="463" y="861"/>
      <point x="284" y="1049"/>
      <point x="291" y="1186" type="qcurve" smooth="yes"/>
      <point x="299" y="1317"/>
      <point x="491" y="1516"/>
      <point x="683" y="1516" type="qcurve" smooth="yes"/>
      <point x="867" y="1516"/>
      <point x="1072" y="1345"/>
      <point x="1072" y="1198" type="qcurve" smooth="yes"/>
      <point x="1072" y="1076"/>
      <point x="841" y="870"/>
      <point x="675" y="829" type="qcurve"/>
      <point x="452" y="721"/>
      <point x="264" y="523"/>
      <point x="258" y="403" type="qcurve" smooth="yes"/>
      <point x="251" y="272"/>
      <point x="454" y="118"/>
      <point x="655" y="118" type="qcurve" smooth="yes"/>
      <point x="965" y="118"/>
      <point x="1527" y="574"/>
      <point x="1692" y="873" type="qcurve"/>
      <point x="1803" y="858" type="line"/>
      <point x="1657" y="536"/>
      <point x="979" y="-28"/>
    </contour>
    <contour>
      <point x="1211" y="850" type="line"/>
      <point x="1240" y="903"/>
      <point x="1345" y="972"/>
      <point x="1396" y="972" type="qcurve" smooth="yes"/>
      <point x="1446" y="972"/>
      <point x="1592" y="917"/>
      <point x="1634" y="917" type="qcurve" smooth="yes"/>
      <point x="1666" y="917"/>
      <point x="1709" y="924"/>
      <point x="1740" y="947" type="qcurve"/>
      <point x="1822" y="868" type="line"/>
      <point x="1744" y="771"/>
      <point x="1671" y="760"/>
      <point x="1619" y="761" type="qcurve" smooth="yes"/>
      <point x="1604" y="762"/>
      <point x="1464" y="833"/>
      <point x="1420" y="833" type="qcurve" smooth="yes"/>
      <point x="1376" y="833"/>
      <point x="1304" y="803"/>
      <point x="1280" y="781" type="qcurve"/>
    </contour>
  </outline>
</glyph>
<glyph name="quotesingle" format="2">
  <advance width="620"/>
  <unicode hex="0027"/>
  <outline>
    <contour>
      <point x="271" y="964" type="line"/>
      <point x="199" y="1437" type="line"/>
      <point x="199" y="1480"/>
      <point x="254" y="1558"/>
      <point x="310" y="1558" type="qcurve" smooth="yes"/>
      <point x="366" y="1558"/>
      <point x="421" y="1480"/>
      <point x="421" y="1437" type="qcurve"/>
      <point x="347" y="964" type="line"/>
    </contour>
  </outline>
</glyph>
<glyph name="parenleft" format="2">
  <advance width="576"/>
  <unicode hex="0028"/>
  <outline>
    <contour>
      <point x="68" y="521" type="qcurve" smooth="yes"/>
      <point x="68" y="816"/>
      <point x="336" y="1389"/>
      <point x="485" y="1526" type="qcurve"/>
      <point x="556" y="1452" type="line"/>
      <point x="431" y="1299"/>
      <point x="239" y="799"/>
      <point x="239" y="521" type="qcurve" smooth="yes"/>
      <point x="239" y="243"/>
      <point x="427" y="-262"/>
      <point x="556" y="-411" type="qcurve"/>
      <point x="485" y="-485" type="line"/>
      <point x="336" y="-348"/>
      <point x="68" y="213"/>
    </contour>
  </outline>
</glyph>
<glyph name="parenright" format="2">
  <advance width="576"/>
  <unicode hex="0029"/>
  <outline>
    <contour>
      <point x="508" y="521" type="qcurve" smooth="yes"/>
      <point x="508" y="213"/>
      <point x="240" y="-348"/>
      <point x="91" y="-485" type="qcurve"/>
      <point x="20" y="-430" type="line"/>
      <point x="149" y="-278"/>
      <point x="337" y="237"/>
      <point x="337" y="521" type="qcurve" smooth="yes"/>
      <point x="337" y="805"/>
      <point x="145" y="1315"/>
      <point x="20" y="1471" type="qcurve"/>
      <point x="91" y="1526" type="line"/>
      <point x="240" y="1389"/>
      <point x="508" y="816"/>
    </contour>
  </outline>
</glyph>
<glyph name="asterisk" format="2">
  <advance width="916"/>
  <unicode hex="002A"/>
  <outline>
    <contour>
      <point x="458" y="664" type="qcurve" smooth="yes"/>
      <point x="406" y="664"/>
      <point x="361" y="737"/>
      <point x="375" y="781" type="qcurve" smooth="yes"/>
      <point x="441" y="1075" type="line"/>
      <point x="438" y="1078" type="line"/>
      <point x="215" y="874" type="line" smooth="yes"/>
      <point x="188" y="846"/>
      <point x="99" y="839"/>
      <point x="71" y="888" type="qcurve" smooth="yes"/>
      <point x="43" y="936"/>
      <point x="94" y="1009"/>
      <point x="131" y="1018" type="qcurve" smooth="yes"/>
      <point x="418" y="1107" type="line"/>
      <point x="417" y="1113" type="line"/>
      <point x="132" y="1205" type="line" smooth="yes"/>
      <point x="94" y="1214"/>
      <point x="43" y="1287"/>
      <point x="71" y="1335" type="qcurve" smooth="yes"/>
      <point x="99" y="1383"/>
      <point x="188" y="1376"/>
      <point x="215" y="1349" type="qcurve" smooth="yes"/>
      <point x="436" y="1144" type="line"/>
      <point x="440" y="1147" type="line"/>
      <point x="375" y="1441" type="line" smooth="yes"/>
      <point x="361" y="1488"/>
      <point x="407" y="1558"/>
      <point x="458" y="1558" type="qcurve" smooth="yes"/>
      <point x="510" y="1558"/>
      <point x="555" y="1485"/>
      <point x="541" y="1441" type="qcurve" smooth="yes"/>
      <point x="475" y="1147" type="line"/>
      <point x="479" y="1144" type="line"/>
      <point x="702" y="1348" type="line" smooth="yes"/>
      <point x="728" y="1376"/>
      <point x="817" y="1383"/>
      <point x="845" y="1334" type="qcurve" smooth="yes"/>
      <point x="873" y="1286"/>
      <point x="823" y="1213"/>
      <point x="785" y="1205" type="qcurve" smooth="yes"/>
      <point x="498" y="1115" type="line"/>
      <point x="499" y="1109" type="line"/>
      <point x="785" y="1017" type="line" smooth="yes"/>
      <point x="823" y="1009"/>
      <point x="873" y="936"/>
      <point x="845" y="887" type="qcurve" smooth="yes"/>
      <point x="817" y="839"/>
      <point x="728" y="846"/>
      <point x="702" y="874" type="qcurve" smooth="yes"/>
      <point x="480" y="1078" type="line"/>
      <point x="477" y="1075" type="line"/>
      <point x="541" y="781" type="line" smooth="yes"/>
      <point x="554" y="737"/>
      <point x="514" y="664"/>
    </contour>
  </outline>
</glyph>
<glyph name="plus" format="2">
  <advance width="1171"/>
  <unicode hex="002B"/>
  <outline>
    <contour>
      <point x="98" y="565" type="line"/>
      <point x="98" y="699" type="line"/>
      <point x="1073" y="699" type="line"/>
      <point x="1073" y="565" type="line"/>
    </contour>
    <contour>
      <point x="515" y="145" type="line"/>
      <point x="515" y="1119" type="line"/>
      <point x="656" y="1119" type="line"/>
      <point x="656" y="145" type="line"/>
    </contour>
  </outline>
</glyph>
<glyph name="comma" format="2">
  <advance width="620"/>
  <unicode hex="002C"/>
  <outline>
    <contour>
      <point x="150" y="-219" type="line"/>
      <point x="189" y="-191"/>
      <point x="299" y="-72"/>
      <point x="313" y="-10" type="qcurve"/>
      <point x="250" y="-6"/>
      <point x="186" y="57"/>
      <point x="186" y="109" type="qcurve" smooth="yes"/>
      <point x="186" y="161"/>
      <point x="258" y="238"/>
      <point x="314" y="238" type="qcurve" smooth="yes"/>
      <point x="367" y="238"/>
      <point x="442" y="170"/>
      <point x="442" y="101" type="qcurve" smooth="yes"/>
      <point x="442" y="-13"/>
      <point x="295" y="-220"/>
      <point x="201" y="-277" type="qcurve"/>
    </contour>
  </outline>
</glyph>
<glyph name="hyphen" format="2">
  <advance width="894"/>
  <unicode hex="002D"/>
  <outline>
    <contour>
      <point x="98" y="564" type="line"/>
      <point x="98" y="700" type="line"/>
      <point x="447" y="696" type="line"/>
      <point x="796" y="700" type="line"/>
      <point x="796" y="564" type="line"/>
      <point x="447" y="568" type="line"/>
    </contour>
  </outline>
</glyph>
<glyph name="period" format="2">
  <advance width="620"/>
  <unicode hex="002E"/>
  <outline>
    <contour>
      <point x="181" y="108" type="qcurve" smooth="yes"/>
      <point x="181" y="160"/>
      <point x="254" y="236"/>
      <point x="310" y="236" type="qcurve" smooth="yes"/>
      <point x="366" y="236"/>
      <point x="439" y="160"/>
      <point x="439" y="108" type="qcurve" smooth="yes"/>
      <point x="439" y="57"/>
      <point x="366" y="-20"/>
      <point x="310" y="-20" type="qcurve"/>
      <point x="254" y="-20"/>
      <point x="181" y="57"/>
    </contour>
  </outline>
</glyph>
<glyph name="slash" format="2">
  <advance width="790"/>
  <unicode hex="002F"/>
  <outline>
    <contour>
      <point x="-45" y="-111" type="line"/>
      <point x="672" y="1555" type="line"/>
      <point x="812" y="1505" type="line"/>
      <point x="95" y="-161" type="line"/>
    </contour>
  </outline>
</glyph>
<glyph name="zero" format="2">
  <advance width="1251"/>
  <unicode hex="0030"/>
  <outline>
    <contour>
      <point x="92" y="754" type="qcurve" smooth="yes"/>
      <point x="92" y="1102"/>
      <point x="394" y="1536"/>
      <point x="627" y="1536" type="qcurve" smooth="yes"/>
      <point x="865" y="1536"/>
      <point x="1159" y="1109"/>
      <point x="1159" y="762" type="qcurve" smooth="yes"/>
      <point x="1159" y="437"/>
      <point x="870" y="-22"/>
      <point x="632" y="-22" type="qcurve" smooth="yes"/>
      <point x="391" y="-22"/>
      <point x="92" y="403"/>
    </contour>
    <contour>
      <point x="254" y="780" type="qcurve" smooth="yes"/>
      <point x="255" y="487"/>
      <point x="459" y="95"/>
      <point x="625" y="95" type="qcurve" smooth="yes"/>
      <point x="804" y="95"/>
      <point x="995" y="453"/>
      <point x="997" y="754" type="qcurve" smooth="yes"/>
      <point x="999" y="1037"/>
      <point x="796" y="1402"/>
      <point x="628" y="1402" type="qcurve" smooth="yes"/>
      <point x="446" y="1402"/>
      <point x="253" y="1070"/>
    </contour>
  </outline>
</glyph>
<glyph name="one" format="2">
  <advance width="854"/>
  <unicode hex="0031"/>
  <outline>
    <contour>
      <point x="78" y="0" type="line"/>
      <point x="78" y="112" type="line"/>
      <point x="360" y="147" type="line"/>
      <point x="360" y="760" type="line"/>
      <point x="358" y="1365" type="line"/>
      <point x="76" y="1399" type="line"/>
      <point x="76" y="1506" type="line"/>
      <point x="488" y="1529" type="line"/>
      <point x="520" y="1494" type="line"/>
      <point x="514" y="760" type="line"/>
      <point x="514" y="147" type="line"/>
      <point x="796" y="112" type="line"/>
      <point x="796" y="0" type="line"/>
    </contour>
  </outline>
</glyph>
<glyph name="two" format="2">
  <advance width="1072"/>
  <unicode hex="0032"/>
  <outline>
    <contour>
      <point x="50" y="0" type="line"/>
      <point x="50" y="123" type="line"/>
      <point x="78" y="249"/>
      <point x="279" y="499"/>
      <point x="472" y="644" type="qcurve" smooth="yes"/>
      <point x="671" y="792"/>
      <point x="829" y="1001"/>
      <point x="829" y="1142" type="qcurve" smooth="yes"/>
      <point x="829" y="1264"/>
      <point x="677" y="1401"/>
      <point x="552" y="1401" type="qcurve" smooth="yes"/>
      <point x="420" y="1401"/>
      <point x="206" y="1315"/>
      <point x="116" y="1219" type="qcurve"/>
      <point x="40" y="1310" type="line"/>
      <point x="111" y="1403"/>
      <point x="354" y="1536"/>
      <point x="551" y="1536" type="qcurve" smooth="yes"/>
      <point x="742" y="1536"/>
      <point x="997" y="1334"/>
      <point x="997" y="1146" type="qcurve" smooth="yes"/>
      <point x="997" y="935"/>
      <point x="685" y="646"/>
      <point x="559" y="563" type="qcurve" smooth="yes"/>
      <point x="414" y="470"/>
      <point x="212" y="256"/>
      <point x="187" y="157" type="qcurve"/>
      <point x="197" y="146" type="line"/>
      <point x="1044" y="146" type="line"/>
      <point x="1044" y="0" type="line"/>
    </contour>
  </outline>
</glyph>
<glyph name="three" format="2">
  <advance width="1103"/>
  <unicode hex="0033"/>
  <outline>
    <contour>
      <point x="22" y="143" type="qcurve"/>
      <point x="93" y="251" type="line"/>
      <point x="186" y="171"/>
      <point x="370" y="107"/>
      <point x="501" y="107" type="qcurve" smooth="yes"/>
      <point x="644" y="107"/>
      <point x="836" y="255"/>
      <point x="836" y="408" type="qcurve" smooth="yes"/>
      <point x="836" y="577"/>
      <point x="562" y="735"/>
      <point x="348" y="735" type="qcurve" smooth="yes"/>
      <point x="297" y="735" type="line"/>
      <point x="255" y="838" type="line"/>
      <point x="374" y="843" type="line" smooth="yes"/>
      <point x="578" y="851"/>
      <point x="799" y="1016"/>
      <point x="799" y="1172" type="qcurve" smooth="yes"/>
      <point x="799" y="1290"/>
      <point x="654" y="1415"/>
      <point x="542" y="1415" type="qcurve" smooth="yes"/>
      <point x="423" y="1415"/>
      <point x="244" y="1336"/>
      <point x="145" y="1248" type="qcurve"/>
      <point x="85" y="1356" type="line"/>
      <point x="169" y="1441"/>
      <point x="384" y="1536"/>
      <point x="533" y="1536" type="qcurve" smooth="yes"/>
      <point x="732" y="1536"/>
      <point x="963" y="1346"/>
      <point x="963" y="1197" type="qcurve" smooth="yes"/>
      <point x="963" y="1038"/>
      <point x="773" y="853"/>
      <point x="591" y="809" type="qcurve"/>
      <point x="591" y="802" type="line"/>
      <point x="777" y="777"/>
      <point x="1003" y="568"/>
      <point x="1003" y="388" type="qcurve" smooth="yes"/>
      <point x="1003" y="191"/>
      <point x="713" y="-22"/>
      <point x="481" y="-22" type="qcurve" smooth="yes"/>
      <point x="348" y="-22"/>
      <point x="95" y="67"/>
    </contour>
  </outline>
</glyph>
<glyph name="four" format="2">
  <advance width="1338"/>
  <unicode hex="0034"/>
  <outline>
    <contour>
      <point x="66" y="559" type="line"/>
      <point x="870" y="1562" type="line"/>
      <point x="955" y="1525" type="line"/>
      <point x="984" y="1509" type="line"/>
      <point x="978" y="496" type="line"/>
      <point x="978" y="147" type="line"/>
      <point x="1230" y="112" type="line"/>
      <point x="1230" y="0" type="line"/>
      <point x="560" y="0" type="line"/>
      <point x="560" y="112" type="line"/>
      <point x="822" y="147" type="line"/>
      <point x="831" y="494" type="line"/>
      <point x="831" y="1324" type="line"/>
      <point x="235" y="582" type="line"/>
      <point x="241" y="572" type="line"/>
      <point x="1280" y="546" type="line"/>
      <point x="1280" y="446" type="line"/>
      <point x="86" y="442" type="line"/>
    </contour>
  </outline>
</glyph>
<glyph name="five" format="2">
  <advance width="1129"/>
  <unicode hex="0035"/>
  <outline>
    <contour>
      <point x="20" y="143" type="qcurve"/>
      <point x="95" y="252" type="line"/>
      <point x="158" y="203"/>
      <point x="354" y="114"/>
      <point x="503" y="114" type="qcurve" smooth="yes"/>
      <point x="653" y="114"/>
      <point x="863" y="276"/>
      <point x="863" y="449" type="qcurve" smooth="yes"/>
      <point x="863" y="618"/>
      <point x="548" y="802"/>
      <point x="287" y="802" type="qcurve" smooth="yes"/>
      <point x="175" y="802" type="line"/>
      <point x="132" y="858" type="line"/>
      <point x="200" y="1482" type="line"/>
      <point x="227" y="1515" type="line"/>
      <point x="938" y="1515" type="line"/>
      <point x="929" y="1361" type="line"/>
      <point x="306" y="1361" type="line"/>
      <point x="296" y="1350" type="line"/>
      <point x="243" y="913" type="line"/>
      <point x="404" y="955" type="line"/>
      <point x="674" y="955"/>
      <point x="1029" y="727"/>
      <point x="1029" y="506" type="qcurve" smooth="yes"/>
      <point x="1029" y="263"/>
      <point x="718" y="-22"/>
      <point x="507" y="-22" type="qcurve" smooth="yes"/>
      <point x="341" y="-22"/>
      <point x="91" y="70"/>
    </contour>
  </outline>
</glyph>
<glyph name="six" format="2">
  <advance width="1243"/>
  <unicode hex="0036"/>
  <outline>
    <contour>
      <point x="92" y="625" type="qcurve" smooth="yes"/>
      <point x="92" y="957"/>
      <point x="551" y="1475"/>
      <point x="957" y="1595" type="qcurve"/>
      <point x="994" y="1494" type="line"/>
      <point x="659" y="1386"/>
      <point x="252" y="973"/>
      <point x="252" y="622" type="qcurve" smooth="yes"/>
      <point x="252" y="367"/>
      <point x="494" y="92"/>
      <point x="677" y="92" type="qcurve" smooth="yes"/>
      <point x="823" y="92"/>
      <point x="1002" y="294"/>
      <point x="1002" y="462" type="qcurve" smooth="yes"/>
      <point x="1002" y="631"/>
      <point x="808" y="800"/>
      <point x="674" y="800" type="qcurve" smooth="yes"/>
      <point x="594" y="800"/>
      <point x="493" y="779"/>
      <point x="451" y="763" type="qcurve"/>
      <point x="411" y="835" type="line"/>
      <point x="456" y="878"/>
      <point x="615" y="936"/>
      <point x="701" y="936" type="qcurve" smooth="yes"/>
      <point x="910" y="936"/>
      <point x="1174" y="693"/>
      <point x="1174" y="512" type="qcurve" smooth="yes"/>
      <point x="1174" y="261"/>
      <point x="888" y="-22"/>
      <point x="674" y="-22" type="qcurve" smooth="yes"/>
      <point x="416" y="-22"/>
      <point x="92" y="341"/>
    </contour>
  </outline>
</glyph>
<glyph name="seven" format="2">
  <advance width="1094"/>
  <unicode hex="0037"/>
  <outline>
    <contour>
      <point x="45" y="1112" type="line"/>
      <point x="67" y="1515" type="line"/>
      <point x="1079" y="1515" type="line"/>
      <point x="1079" y="1433" type="line"/>
      <point x="702" y="632" type="line"/>
      <point x="468" y="-13" type="line"/>
      <point x="287" y="-13" type="line"/>
      <point x="287" y="54" type="line"/>
      <point x="596" y="674" type="line"/>
      <point x="929" y="1345" type="line"/>
      <point x="899" y="1368" type="line"/>
      <point x="194" y="1368" type="line"/>
      <point x="157" y="1112" type="line"/>
    </contour>
  </outline>
</glyph>
<glyph name="eight" format="2">
  <advance width="1193"/>
  <unicode hex="0038"/>
  <outline>
    <contour>
      <point x="60" y="395" type="qcurve" smooth="yes"/>
      <point x="60" y="589"/>
      <point x="334" y="815"/>
      <point x="483" y="866" type="qcurve"/>
      <point x="576" y="805" type="line"/>
      <point x="412" y="748"/>
      <point x="200" y="565"/>
      <point x="200" y="414" type="qcurve" smooth="yes"/>
      <point x="200" y="274"/>
      <point x="422" y="90"/>
      <point x="615" y="90" type="qcurve" smooth="yes"/>
      <point x="775" y="90"/>
      <point x="1001" y="253"/>
      <point x="1001" y="394" type="qcurve" smooth="yes"/>
      <point x="1001" y="514"/>
      <point x="832" y="676"/>
      <point x="615" y="763" type="qcurve" smooth="yes"/>
      <point x="379" y="857"/>
      <point x="168" y="1034"/>
      <point x="168" y="1179" type="qcurve" smooth="yes"/>
      <point x="168" y="1344"/>
      <point x="442" y="1545"/>
      <point x="624" y="1545" type="qcurve" smooth="yes"/>
      <point x="809" y="1545"/>
      <point x="1045" y="1364"/>
      <point x="1045" y="1229" type="qcurve" smooth="yes"/>
      <point x="1045" y="1097"/>
      <point x="868" y="898"/>
      <point x="709" y="821" type="qcurve"/>
      <point x="616" y="881" type="line"/>
      <point x="758" y="944"/>
      <point x="903" y="1088"/>
      <point x="903" y="1200" type="qcurve" smooth="yes"/>
      <point x="903" y="1305"/>
      <point x="747" y="1434"/>
      <point x="614" y="1434" type="qcurve" smooth="yes"/>
      <point x="481" y="1434"/>
      <point x="302" y="1293"/>
      <point x="302" y="1197" type="qcurve" smooth="yes"/>
      <point x="302" y="1103"/>
      <point x="459" y="969"/>
      <point x="698" y="878" type="qcurve" smooth="yes"/>
      <point x="932" y="789"/>
      <point x="1146" y="583"/>
      <point x="1146" y="415" type="qcurve" smooth="yes"/>
      <point x="1146" y="235"/>
      <point x="848" y="-22"/>
      <point x="610" y="-22" type="qcurve" smooth="yes"/>
      <point x="352" y="-22"/>
      <point x="60" y="230"/>
    </contour>
  </outline>
</glyph>
<glyph name="nine" format="2">
  <advance width="1243"/>
  <unicode hex="0039"/>
  <outline>
    <contour>
      <point x="69" y="1013" type="qcurve" smooth="yes"/>
      <point x="69" y="1247"/>
      <point x="357" y="1535"/>
      <point x="573" y="1535" type="qcurve" smooth="yes"/>
      <point x="828" y="1535"/>
      <point x="1151" y="1167"/>
      <point x="1151" y="883" type="qcurve" smooth="yes"/>
      <point x="1151" y="552"/>
      <point x="695" y="31"/>
      <point x="289" y="-86" type="qcurve"/>
      <point x="252" y="15" type="line"/>
      <point x="589" y="128"/>
      <point x="986" y="528"/>
      <point x="986" y="886" type="qcurve" smooth="yes"/>
      <point x="986" y="1145"/>
      <point x="745" y="1421"/>
      <point x="581" y="1421" type="qcurve" smooth="yes"/>
      <point x="404" y="1421"/>
      <point x="236" y="1214"/>
      <point x="236" y="1046" type="qcurve" smooth="yes"/>
      <point x="236" y="877"/>
      <point x="444" y="708"/>
      <point x="624" y="708" type="qcurve" smooth="yes"/>
      <point x="671" y="708"/>
      <point x="757" y="726"/>
      <point x="799" y="741" type="qcurve"/>
      <point x="837" y="668" type="line"/>
      <point x="791" y="627"/>
      <point x="656" y="573"/>
      <point x="549" y="573" type="qcurve" smooth="yes"/>
      <point x="332" y="573"/>
      <point x="69" y="815"/>
    </contour>
  </outline>
</glyph>
<glyph name="colon" format="2">
  <advance width="700"/>
  <unicode hex="003A"/>
  <outline>
    <contour>
      <point x="221" y="108" type="qcurve" smooth="yes"/>
      <point x="221" y="160"/>
      <point x="294" y="237"/>
      <point x="350" y="237" type="qcurve" smooth="yes"/>
      <point x="406" y="237"/>
      <point x="478" y="160"/>
      <point x="478" y="108" type="qcurve" smooth="yes"/>
      <point x="478" y="58"/>
      <point x="406" y="-19"/>
      <point x="350" y="-19" type="qcurve" smooth="yes"/>
      <point x="294" y="-19"/>
      <point x="221" y="58"/>
    </contour>
    <contour>
      <point x="221" y="905" type="qcurve" smooth="yes"/>
      <point x="221" y="957"/>
      <point x="294" y="1034"/>
      <point x="350" y="1034" type="qcurve" smooth="yes"/>
      <point x="406" y="1034"/>
      <point x="479" y="957"/>
      <point x="479" y="905" type="qcurve" smooth="yes"/>
      <point x="479" y="855"/>
      <point x="406" y="778"/>
      <point x="350" y="778" type="qcurve" smooth="yes"/>
      <point x="294" y="778"/>
      <point x="221" y="855"/>
    </contour>
  </outline>
</glyph>
<glyph name="semicolon" format="2">
  <advance width="700"/>
  <unicode hex="003B"/>
  <outline>
    <contour>
      <point x="197" y="-227" type="line"/>
      <point x="238" y="-198"/>
      <point x="345" y="-72"/>
      <point x="359" y="-10" type="qcurve"/>
      <point x="296" y="-10"/>
      <point x="225" y="57"/>
      <point x="225" y="109" type="qcurve" smooth="yes"/>
      <point x="225" y="161"/>
      <point x="298" y="238"/>
      <point x="354" y="238" type="qcurve" smooth="yes"/>
      <point x="406" y="238"/>
      <point x="482" y="170"/>
      <point x="482" y="101" type="qcurve" smooth="yes"/>
      <point x="482" y="-13"/>
      <point x="335" y="-220"/>
      <point x="241" y="-277" type="qcurve"/>
    </contour>
    <contour>
      <point x="221" y="905" type="qcurve" smooth="yes"/>
      <point x="221" y="957"/>
      <point x="294" y="1034"/>
      <point x="350" y="1034" type="qcurve" smooth="yes"/>
      <point x="406" y="1034"/>
      <point x="479" y="957"/>
      <point x="479" y="905" type="qcurve" smooth="yes"/>
      <point x="479" y="855"/>
      <point x="406" y="778"/>
      <point x="350" y="778" type="qcurve" smooth="yes"/>
      <point x="294" y="778"/>
      <point x="221" y="855"/>
    </contour>
  </outline>
</glyph>
<glyph name="less" format="2">
  <advance width="1171"/>
  <unicode hex="003C"/>
  <outline>
    <contour>
      <point x="187" y="634" type="qcurve"/>
      <point x="190" y="638"/>
      <point x="772" y="1034"/>
      <point x="841" y="1081" type="qcurve" smooth="yes"/>
      <point x="909" y="1127"/>
      <point x="994" y="1036"/>
      <point x="930" y="984" type="qcurve" smooth="yes"/>
      <point x="782" y="859"/>
      <point x="438" y="637"/>
      <point x="433" y="637" type="qcurve"/>
      <point x="438" y="637"/>
      <point x="783" y="424"/>
      <point x="928" y="303" type="qcurve" smooth="yes"/>
      <point x="991" y="252"/>
      <point x="912" y="157"/>
      <point x="843" y="203" type="qcurve" smooth="yes"/>
      <point x="773" y="251"/>
      <point x="189" y="630"/>
    </contour>
  </outline>
</glyph>
<glyph name="equal" format="2">
  <advance width="1197"/>
  <unicode hex="003D"/>
  <outline>
    <contour>
      <point x="128" y="344" type="line"/>
      <point x="128" y="496" type="line"/>
      <point x="596" y="492" type="line"/>
      <point x="1069" y="496" type="line"/>
      <point x="1069" y="344" type="line"/>
      <point x="596" y="348" type="line"/>
    </contour>
    <contour>
      <point x="128" y="746" type="line"/>
      <point x="128" y="898" type="line"/>
      <point x="596" y="894" type="line"/>
      <point x="1069" y="898" type="line"/>
      <point x="1069" y="746" type="line"/>
      <point x="596" y="750" type="line"/>
    </contour>
  </outline>
</glyph>
<glyph name="greater" format="2">
  <advance width="1171"/>
  <unicode hex="003E"/>
  <outline>
    <contour>
      <point x="240" y="284" type="qcurve" smooth="yes"/>
      <point x="388" y="408"/>
      <point x="733" y="632"/>
      <point x="738" y="632" type="qcurve"/>
      <point x="733" y="632"/>
      <point x="389" y="844"/>
      <point x="243" y="965" type="qcurve" smooth="yes"/>
      <point x="179" y="1017"/>
      <point x="259" y="1111"/>
      <point x="328" y="1065" type="qcurve" smooth="yes"/>
      <point x="398" y="1018"/>
      <point x="982" y="638"/>
      <point x="984" y="634" type="qcurve"/>
      <point x="981" y="630"/>
      <point x="398" y="234"/>
      <point x="329" y="187" type="qcurve" smooth="yes"/>
      <point x="262" y="141"/>
      <point x="177" y="233"/>
    </contour>
  </outline>
</glyph>
<glyph name="question" format="2">
  <advance width="1052"/>
  <unicode hex="003F"/>
  <outline>
    <contour>
      <point x="289" y="106" type="qcurve" smooth="yes"/>
      <point x="289" y="157"/>
      <point x="361" y="234"/>
      <point x="418" y="234" type="qcurve" smooth="yes"/>
      <point x="474" y="234"/>
      <point x="546" y="157"/>
      <point x="546" y="106" type="qcurve" smooth="yes"/>
      <point x="546" y="55"/>
      <point x="474" y="-22"/>
      <point x="418" y="-22" type="qcurve" smooth="yes"/>
      <point x="361" y="-22"/>
      <point x="289" y="55"/>
    </contour>
    <contour>
      <point x="66" y="1239" type="qcurve" smooth="yes"/>
      <point x="66" y="1378"/>
      <point x="301" y="1540"/>
      <point x="511" y="1540" type="qcurve" smooth="yes"/>
      <point x="714" y="1540"/>
      <point x="964" y="1346"/>
      <point x="964" y="1163" type="qcurve" smooth="yes"/>
      <point x="964" y="969"/>
      <point x="747" y="780"/>
      <point x="642" y="733" type="qcurve" smooth="yes"/>
      <point x="564" y="699"/>
      <point x="456" y="605"/>
      <point x="456" y="522" type="qcurve" smooth="yes"/>
      <point x="456" y="435" type="line"/>
      <point x="353" y="435" type="line"/>
      <point x="338" y="519" type="line" smooth="yes"/>
      <point x="325" y="594"/>
      <point x="423" y="756"/>
      <point x="544" y="821" type="qcurve" smooth="yes"/>
      <point x="645" y="876"/>
      <point x="799" y="1001"/>
      <point x="799" y="1141" type="qcurve" smooth="yes"/>
      <point x="799" y="1275"/>
      <point x="624" y="1427"/>
      <point x="482" y="1427" type="qcurve" smooth="yes"/>
      <point x="347" y="1427"/>
      <point x="195" y="1341"/>
      <point x="195" y="1287" type="qcurve" smooth="yes"/>
      <point x="195" y="1260"/>
      <point x="303" y="1210"/>
      <point x="305" y="1166" type="qcurve" smooth="yes"/>
      <point x="308" y="1131"/>
      <point x="253" y="1073"/>
      <point x="199" y="1073" type="qcurve" smooth="yes"/>
      <point x="140" y="1073"/>
      <point x="66" y="1157"/>
    </contour>
  </outline>
</glyph>
<glyph name="at" format="2">
  <advance width="1886"/>
  <unicode hex="0040"/>
  <outline>
    <contour>
      <point x="98" y="725" type="qcurve" smooth="yes"/>
      <point x="98" y="1058"/>
      <point x="566" y="1520"/>
      <point x="955" y="1520" type="qcurve" smooth="yes"/>
      <point x="1320" y="1520"/>
      <point x="1797" y="1157"/>
      <point x="1797" y="863" type="qcurve" smooth="yes"/>
      <point x="1797" y="630"/>
      <point x="1574" y="348"/>
      <point x="1397" y="348" type="qcurve" smooth="yes"/>
      <point x="1319" y="348"/>
      <point x="1212" y="403"/>
      <point x="1193" y="461" type="qcurve"/>
      <point x="1138" y="399"/>
      <point x="936" y="317"/>
      <point x="829" y="317" type="qcurve" smooth="yes"/>
      <point x="702" y="317"/>
      <point x="545" y="453"/>
      <point x="545" y="544" type="qcurve" smooth="yes"/>
      <point x="545" y="662"/>
      <point x="853" y="840"/>
      <point x="1231" y="870" type="qcurve"/>
      <point x="1239" y="789" type="line"/>
      <point x="974" y="766"/>
      <point x="689" y="667"/>
      <point x="689" y="561" type="qcurve" smooth="yes"/>
      <point x="689" y="504"/>
      <point x="804" y="437"/>
      <point x="876" y="437" type="qcurve" smooth="yes"/>
      <point x="961" y="437"/>
      <point x="1137" y="515"/>
      <point x="1174" y="557" type="qcurve"/>
      <point x="1177" y="863" type="line" smooth="yes"/>
      <point x="1179" y="1010"/>
      <point x="1051" y="1112"/>
      <point x="940" y="1112" type="qcurve" smooth="yes"/>
      <point x="845" y="1112"/>
      <point x="744" y="1072"/>
      <point x="717" y="1049" type="qcurve"/>
      <point x="735" y="1031"/>
      <point x="756" y="994"/>
      <point x="758" y="978" type="qcurve" smooth="yes"/>
      <point x="765" y="946"/>
      <point x="728" y="902"/>
      <point x="693" y="902" type="qcurve" smooth="yes"/>
      <point x="656" y="902"/>
      <point x="612" y="964"/>
      <point x="612" y="1017" type="qcurve" smooth="yes"/>
      <point x="612" y="1098"/>
      <point x="817" y="1213"/>
      <point x="960" y="1213" type="qcurve" smooth="yes"/>
      <point x="1138" y="1213"/>
      <point x="1308" y="1042"/>
      <point x="1308" y="854" type="qcurve" smooth="yes"/>
      <point x="1314" y="493" type="line" smooth="yes"/>
      <point x="1314" y="474"/>
      <point x="1342" y="460"/>
      <point x="1371" y="460" type="qcurve" smooth="yes"/>
      <point x="1527" y="460"/>
      <point x="1658" y="667"/>
      <point x="1658" y="858" type="qcurve" smooth="yes"/>
      <point x="1658" y="1092"/>
      <point x="1290" y="1384"/>
      <point x="954" y="1384" type="qcurve" smooth="yes"/>
      <point x="618" y="1384"/>
      <point x="246" y="1023"/>
      <point x="246" y="737" type="qcurve" smooth="yes"/>
      <point x="246" y="471"/>
      <point x="642" y="99"/>
      <point x="953" y="99" type="qcurve" smooth="yes"/>
      <point x="1112" y="99"/>
      <point x="1308" y="163"/>
      <point x="1357" y="195" type="qcurve"/>
      <point x="1421" y="108" type="line"/>
      <point x="1359" y="57"/>
      <point x="1125" y="-30"/>
      <point x="951" y="-30" type="qcurve" smooth="yes"/>
      <point x="584" y="-30"/>
      <point x="98" y="399"/>
    </contour>
  </outline>
</glyph>
<glyph name="A" format="2">
  <advance width="1654"/>
  <unicode hex="0041"/>
  <anchor x="826" y="0" name="bottom"/>
  <anchor x="1406" y="0" name="ogonek"/>
  <anchor x="577" y="1500" name="tonos"/>
  <anchor x="839" y="1500" name="top"/>
  <outline>
    <contour>
      <point x="-19" y="0" type="line"/>
      <point x="-19" y="116" type="line"/>
      <point x="187" y="151" type="line"/>
      <point x="364" y="544" type="line"/>
      <point x="774" y="1508" type="line"/>
      <point x="885" y="1508" type="line"/>
      <point x="1293" y="562" type="line"/>
      <point x="1478" y="151" type="line"/>
      <point x="1674" y="116" type="line"/>
      <point x="1674" y="0" type="line"/>
      <point x="1121" y="0" type="line"/>
      <point x="1121" y="116" type="line"/>
      <point x="1306" y="147" type="line"/>
      <point x="1152" y="512" type="line"/>
      <point x="873" y="1147" type="line"/>
      <point x="829" y="1261" type="line"/>
      <point x="817" y="1261" type="line"/>
      <point x="776" y="1147" type="line"/>
      <point x="483" y="495" type="line"/>
      <point x="340" y="146" type="line"/>
      <point x="524" y="116" type="line"/>
      <point x="524" y="0" type="line"/>
    </contour>
    <contour>
      <point x="829" y="554" type="line"/>
      <point x="1208" y="569" type="line"/>
      <point x="1261" y="447" type="line"/>
      <point x="829" y="447" type="line"/>
    </contour>
    <contour>
      <point x="392" y="447" type="line"/>
      <point x="444" y="569" type="line"/>
      <point x="829" y="554" type="line"/>
      <point x="829" y="447" type="line"/>
    </contour>
  </outline>
</glyph>
<glyph name="B" format="2">
  <advance width="1312"/>
  <unicode hex="0042"/>
  <anchor x="646" y="0" name="bottom"/>
  <anchor x="646" y="1500" name="top"/>
  <outline>
    <contour>
      <point x="88" y="0" type="line"/>
      <point x="88" y="116" type="line"/>
      <point x="308" y="152" type="line"/>
      <point x="310" y="784" type="line"/>
      <point x="308" y="1336" type="line"/>
      <point x="88" y="1370" type="line"/>
      <point x="88" y="1500" type="line"/>
      <point x="695" y="1500" type="line" smooth="yes"/>
      <point x="916" y="1500"/>
      <point x="1127" y="1315"/>
      <point x="1127" y="1172" type="qcurve" smooth="yes"/>
      <point x="1127" y="1037"/>
      <point x="1001" y="854"/>
      <point x="889" y="831" type="qcurve"/>
      <point x="889" y="821" type="line"/>
      <point x="1029" y="795"/>
      <point x="1228" y="603"/>
      <point x="1228" y="433" type="qcurve" smooth="yes"/>
      <point x="1228" y="246"/>
      <point x="955" y="0"/>
      <point x="713" y="0" type="qcurve" smooth="yes"/>
    </contour>
    <contour>
      <point x="466" y="137" type="line"/>
      <point x="499" y="117" type="line"/>
      <point x="661" y="117" type="line" smooth="yes"/>
      <point x="869" y="117"/>
      <point x="1065" y="272"/>
      <point x="1065" y="440" type="qcurve" smooth="yes"/>
      <point x="1065" y="583"/>
      <point x="894" y="736"/>
      <point x="735" y="736" type="qcurve" smooth="yes"/>
      <point x="475" y="736" type="line"/>
      <point x="466" y="722" type="line"/>
    </contour>
    <contour>
      <point x="465" y="867" type="line"/>
      <point x="474" y="853" type="line"/>
      <point x="649" y="853" type="line" smooth="yes"/>
      <point x="807" y="853"/>
      <point x="969" y="991"/>
      <point x="969" y="1128" type="qcurve" smooth="yes"/>
      <point x="969" y="1253"/>
      <point x="812" y="1368"/>
      <point x="660" y="1368" type="qcurve" smooth="yes"/>
      <point x="497" y="1368" type="line"/>
      <point x="468" y="1350" type="line"/>
    </contour>
  </outline>
</glyph>
<glyph name="C" format="2">
  <advance width="1582"/>
  <unicode hex="0043"/>
  <anchor x="873" y="0" name="bottom"/>
  <anchor x="873" y="1500" name="top"/>
  <outline>
    <contour>
      <point x="98" y="712" type="qcurve" smooth="yes"/>
      <point x="98" y="1055"/>
      <point x="520" y="1520"/>
      <point x="880" y="1520" type="qcurve" smooth="yes"/>
      <point x="1018" y="1520"/>
      <point x="1224" y="1458"/>
      <point x="1281" y="1422" type="qcurve"/>
      <point x="1312" y="1508" type="line"/>
      <point x="1410" y="1508" type="line"/>
      <point x="1410" y="1011" type="line"/>
      <point x="1290" y="1011" type="line"/>
      <point x="1251" y="1195" type="line" smooth="yes"/>
      <point x="1228" y="1292"/>
      <point x="1043" y="1388"/>
      <point x="904" y="1388" type="qcurve" smooth="yes"/>
      <point x="613" y="1388"/>
      <point x="263" y="1059"/>
      <point x="265" y="740" type="qcurve" smooth="yes"/>
      <point x="267" y="444"/>
      <point x="604" y="118"/>
      <point x="885" y="118" type="qcurve" smooth="yes"/>
      <point x="1092" y="118"/>
      <point x="1348" y="238"/>
      <point x="1419" y="331" type="qcurve"/>
      <point x="1524" y="246" type="line"/>
      <point x="1414" y="110"/>
      <point x="1086" y="-30"/>
      <point x="901" y="-30" type="qcurve" smooth="yes"/>
      <point x="527" y="-30"/>
      <point x="98" y="371"/>
    </contour>
  </outline>
</glyph>
<glyph name="D" format="2">
  <advance width="1678"/>
  <unicode hex="0044"/>
  <anchor x="748" y="0" name="bottom"/>
  <anchor x="441" y="754" name="center"/>
  <anchor x="748" y="1500" name="top"/>
  <outline>
    <contour>
      <point x="88" y="0" type="line"/>
      <point x="88" y="116" type="line"/>
      <point x="308" y="151" type="line"/>
      <point x="310" y="754" type="line"/>
      <point x="308" y="1336" type="line"/>
      <point x="88" y="1370" type="line"/>
      <point x="88" y="1500" type="line"/>
      <point x="742" y="1500" type="line" smooth="yes"/>
      <point x="1119" y="1500"/>
      <point x="1580" y="1119"/>
      <point x="1580" y="777" type="qcurve" smooth="yes"/>
      <point x="1580" y="410"/>
      <point x="1119" y="0"/>
      <point x="698" y="0" type="qcurve" smooth="yes"/>
    </contour>
    <contour>
      <point x="466" y="134" type="line"/>
      <point x="504" y="127"/>
      <point x="652" y="119"/>
      <point x="752" y="119" type="qcurve" smooth="yes"/>
      <point x="1042" y="119"/>
      <point x="1410" y="441"/>
      <point x="1412" y="761" type="qcurve" smooth="yes"/>
      <point x="1414" y="1056"/>
      <point x="1030" y="1371"/>
      <point x="711" y="1371" type="qcurve" smooth="yes"/>
      <point x="643" y="1371"/>
      <point x="507" y="1360"/>
      <point x="466" y="1354" type="qcurve"/>
      <point x="464" y="754" type="line"/>
    </contour>
  </outline>
</glyph>
<glyph name="E" format="2">
  <advance width="1378"/>
  <unicode hex="0045"/>
  <anchor x="703" y="0" name="bottom"/>
  <anchor x="1072" y="0" name="ogonek"/>
  <anchor x="701" y="1500" name="top"/>
  <anchor x="47" y="1500" name="tonos"/>
  <outline>
    <contour>
      <point x="88" y="0" type="line"/>
      <point x="88" y="116" type="line"/>
      <point x="308" y="153" type="line"/>
      <point x="310" y="783" type="line"/>
      <point x="308" y="1336" type="line"/>
      <point x="88" y="1370" type="line"/>
      <point x="88" y="1500" type="line"/>
      <point x="1210" y="1500" type="line"/>
      <point x="1210" y="1134" type="line"/>
      <point x="1094" y="1134" type="line"/>
      <point x="1059" y="1380" type="line"/>
      <point x="494" y="1380" type="line"/>
      <point x="465" y="1360" type="line"/>
      <point x="463" y="783" type="line"/>
      <point x="465" y="134" type="line"/>
      <point x="495" y="110" type="line"/>
      <point x="1122" y="110" type="line"/>
      <point x="1198" y="396" type="line"/>
      <point x="1314" y="396" type="line"/>
      <point x="1274" y="0" type="line"/>
    </contour>
    <contour>
      <point x="388" y="736" type="line"/>
      <point x="388" y="835" type="line"/>
      <point x="913" y="845" type="line"/>
      <point x="948" y="1021" type="line"/>
      <point x="1064" y="1021" type="line"/>
      <point x="1064" y="550" type="line"/>
      <point x="948" y="550" type="line"/>
      <point x="913" y="726" type="line"/>
    </contour>
  </outline>
</glyph>
<glyph name="F" format="2">
  <advance width="1231"/>
  <unicode hex="0046"/>
  <anchor x="599" y="0" name="bottom"/>
  <anchor x="661" y="1500" name="top"/>
  <outline>
    <contour>
      <point x="88" y="0" type="line"/>
      <point x="88" y="116" type="line"/>
      <point x="308" y="153" type="line"/>
      <point x="310" y="760" type="line"/>
      <point x="308" y="1336" type="line"/>
      <point x="88" y="1370" type="line"/>
      <point x="88" y="1500" type="line"/>
      <point x="1165" y="1500" type="line"/>
      <point x="1165" y="1256" type="line"/>
      <point x="1032" y="1256" type="line"/>
      <point x="1014" y="1380" type="line"/>
      <point x="496" y="1380" type="line"/>
      <point x="466" y="1360" type="line"/>
      <point x="464" y="760" type="line"/>
      <point x="466" y="148" type="line"/>
      <point x="706" y="116" type="line"/>
      <point x="706" y="0" type="line"/>
    </contour>
    <contour>
      <point x="387" y="708" type="line"/>
      <point x="387" y="812" type="line"/>
      <point x="868" y="819" type="line"/>
      <point x="886" y="906" type="line"/>
      <point x="1019" y="906" type="line"/>
      <point x="1019" y="608" type="line"/>
      <point x="886" y="608" type="line"/>
      <point x="868" y="701" type="line"/>
    </contour>
  </outline>
</glyph>
<glyph name="G" format="2">
  <advance width="1672"/>
  <unicode hex="0047"/>
  <anchor x="902" y="0" name="bottom"/>
  <anchor x="866" y="1500" name="top"/>
  <outline>
    <contour>
      <point x="98" y="744" type="qcurve" smooth="yes"/>
      <point x="98" y="1068"/>
      <point x="556" y="1520"/>
      <point x="894" y="1520" type="qcurve" smooth="yes"/>
      <point x="1048" y="1520"/>
      <point x="1257" y="1457"/>
      <point x="1306" y="1427" type="qcurve"/>
      <point x="1338" y="1508" type="line"/>
      <point x="1447" y="1508" type="line"/>
      <point x="1447" y="1022" type="line"/>
      <point x="1327" y="1022" type="line"/>
      <point x="1285" y="1188" type="line" smooth="yes"/>
      <point x="1257" y="1288"/>
      <point x="1064" y="1380"/>
      <point x="913" y="1380" type="qcurve" smooth="yes"/>
      <point x="611" y="1380"/>
      <point x="263" y="1056"/>
      <point x="265" y="768" type="qcurve" smooth="yes"/>
      <point x="267" y="476"/>
      <point x="632" y="98"/>
      <point x="952" y="98" type="qcurve" smooth="yes"/>
      <point x="1081" y="98"/>
      <point x="1298" y="167"/>
      <point x="1377" y="228" type="qcurve"/>
      <point x="1377" y="515" type="line"/>
      <point x="1166" y="550" type="line"/>
      <point x="1166" y="666" type="line"/>
      <point x="1670" y="666" type="line"/>
      <point x="1670" y="550" type="line"/>
      <point x="1527" y="515" type="line"/>
      <point x="1527" y="219" type="line"/>
      <point x="1445" y="123"/>
      <point x="1138" y="-30"/>
      <point x="934" y="-30" type="qcurve" smooth="yes"/>
      <point x="565" y="-30"/>
      <point x="98" y="394"/>
    </contour>
  </outline>
</glyph>
<glyph name="J" format="2">
  <advance width="796"/>
  <unicode hex="004A"/>
  <anchor x="402" y="-208" name="bottom"/>
  <anchor x="419" y="1500" name="top"/>
  <outline>
    <contour>
      <point x="55" y="-204" type="qcurve"/>
      <point x="55" y="-75" type="line"/>
      <point x="85" y="-76"/>
      <point x="152" y="-74"/>
      <point x="195" y="-69" type="qcurve" smooth="yes"/>
      <point x="276" y="-59"/>
      <point x="352" y="22"/>
      <point x="352" y="116" type="qcurve" smooth="yes"/>
      <point x="350" y="834" type="line"/>
      <point x="348" y="1336" type="line"/>
      <point x="133" y="1370" type="line"/>
      <point x="133" y="1500" type="line"/>
      <point x="708" y="1500" type="line"/>
      <point x="708" y="1368" type="line"/>
      <point x="506" y="1334" type="line"/>
      <point x="504" y="834" type="line"/>
      <point x="515" y="180" type="line" smooth="yes"/>
      <point x="518" y="-29"/>
      <point x="351" y="-200"/>
      <point x="209" y="-207" type="qcurve" smooth="yes"/>
      <point x="147" y="-210"/>
      <point x="76" y="-206"/>
    </contour>
  </outline>
</glyph>
<glyph name="L" format="2">
  <advance width="1355"/>
  <unicode hex="004C"/>
  <anchor x="743" y="0" name="bottom"/>
  <anchor x="966" y="750" name="centerright"/>
  <anchor x="670" y="1500" name="top"/>
  <anchor x="822" y="1001" name="topright"/>
  <anchor x="385" y="750" name="center"/>
  <outline>
    <contour>
      <point x="88" y="0" type="line"/>
      <point x="88" y="116" type="line"/>
      <point x="308" y="148" type="line"/>
      <point x="310" y="754" type="line"/>
      <point x="308" y="1336" type="line"/>
      <point x="88" y="1370" type="line"/>
      <point x="88" y="1500" type="line"/>
      <point x="709" y="1500" type="line"/>
      <point x="709" y="1370" type="line"/>
      <point x="466" y="1336" type="line"/>
      <point x="464" y="754" type="line"/>
      <point x="466" y="139" type="line"/>
      <point x="506" y="112" type="line"/>
      <point x="1126" y="112" type="line"/>
      <point x="1212" y="431" type="line"/>
      <point x="1339" y="431" type="line"/>
      <point x="1288" y="0" type="line"/>
    </contour>
  </outline>
</glyph>
<glyph name="M" format="2">
  <advance width="2236"/>
  <unicode hex="004D"/>
  <anchor x="1105" y="0" name="bottom"/>
  <anchor x="1138" y="1500" name="top"/>
  <outline>
    <contour>
      <point x="113" y="0" type="line"/>
      <point x="113" y="116" type="line"/>
      <point x="333" y="151" type="line"/>
      <point x="334" y="754" type="line"/>
      <point x="333" y="1336" type="line"/>
      <point x="113" y="1370" type="line"/>
      <point x="113" y="1500" type="line"/>
      <point x="560" y="1500" type="line"/>
      <point x="862" y="803" type="line"/>
      <point x="1076" y="330" type="line"/>
      <point x="1122" y="216" type="line"/>
      <point x="1132" y="216" type="line"/>
      <point x="1178" y="330" type="line"/>
      <point x="1387" y="799" type="line"/>
      <point x="1691" y="1500" type="line"/>
      <point x="2148" y="1500" type="line"/>
      <point x="2148" y="1370" type="line"/>
      <point x="1928" y="1336" type="line"/>
      <point x="1925" y="754" type="line"/>
      <point x="1928" y="151" type="line"/>
      <point x="2148" y="116" type="line"/>
      <point x="2148" y="0" type="line"/>
      <point x="1520" y="0" type="line"/>
      <point x="1520" y="116" type="line"/>
      <point x="1770" y="151" type="line"/>
      <point x="1772" y="754" type="line"/>
      <point x="1770" y="1210" type="line"/>
      <point x="1774" y="1329" type="line"/>
      <point x="1764" y="1331" type="line"/>
      <point x="1720" y="1224" type="line"/>
      <point x="1502" y="747" type="line"/>
      <point x="1174" y="-8" type="line"/>
      <point x="1050" y="-8" type="line"/>
      <point x="728" y="738" type="line"/>
      <point x="509" y="1228" type="line"/>
      <point x="463" y="1335" type="line"/>
      <point x="453" y="1333" type="line"/>
      <point x="458" y="1214" type="line"/>
      <point x="456" y="754" type="line"/>
      <point x="459" y="151" type="line"/>
      <point x="689" y="116" type="line"/>
      <point x="689" y="0" type="line"/>
    </contour>
  </outline>
</glyph>
<glyph name="N" format="2">
  <advance width="1709"/>
  <unicode hex="004E"/>
  <anchor x="848" y="0" name="bottom"/>
  <anchor x="848" y="1500" name="top"/>
  <outline>
    <contour>
      <point x="88" y="0" type="line"/>
      <point x="88" y="116" type="line"/>
      <point x="308" y="151" type="line"/>
      <point x="310" y="754" type="line"/>
      <point x="308" y="1336" type="line"/>
      <point x="88" y="1370" type="line"/>
      <point x="88" y="1500" type="line"/>
      <point x="505" y="1500" type="line"/>
      <point x="930" y="840" type="line"/>
      <point x="1231" y="383" type="line"/>
      <point x="1294" y="280" type="line"/>
      <point x="1303" y="283" type="line"/>
      <point x="1299" y="404" type="line"/>
      <point x="1300" y="754" type="line"/>
      <point x="1298" y="1336" type="line"/>
      <point x="1058" y="1370" type="line"/>
      <point x="1058" y="1500" type="line"/>
      <point x="1641" y="1500" type="line"/>
      <point x="1641" y="1370" type="line"/>
      <point x="1421" y="1336" type="line"/>
      <point x="1419" y="754" type="line"/>
      <point x="1415" y="0" type="line"/>
      <point x="1304" y="0" type="line"/>
      <point x="815" y="749" type="line"/>
      <point x="498" y="1235" type="line"/>
      <point x="435" y="1338" type="line"/>
      <point x="426" y="1335" type="line"/>
      <point x="431" y="1215" type="line"/>
      <point x="429" y="754" type="line"/>
      <point x="431" y="151" type="line"/>
      <point x="661" y="116" type="line"/>
      <point x="661" y="0" type="line"/>
    </contour>
  </outline>
</glyph>
<glyph name="O" format="2">
  <advance width="1755"/>
  <unicode hex="004F"/>
  <anchor x="878" y="0" name="bottom"/>
  <anchor x="878" y="750" name="center"/>
  <anchor x="1115" y="0" name="ogonek"/>
  <anchor x="878" y="1500" name="top"/>
  <anchor x="1074" y="1500" name="topright"/>
  <anchor x="167" y="1500" name="tonos"/>
  <outline>
    <contour>
      <point x="98" y="737" type="qcurve" smooth="yes"/>
      <point x="98" y="1068"/>
      <point x="528" y="1520"/>
      <point x="878" y="1520" type="qcurve" smooth="yes"/>
      <point x="1227" y="1520"/>
      <point x="1657" y="1097"/>
      <point x="1657" y="752" type="qcurve" smooth="yes"/>
      <point x="1657" y="423"/>
      <point x="1231" y="-31"/>
      <point x="882" y="-31" type="qcurve" smooth="yes"/>
      <point x="540" y="-31"/>
      <point x="98" y="396"/>
    </contour>
    <contour>
      <point x="265" y="771" type="qcurve" smooth="yes"/>
      <point x="265" y="480"/>
      <point x="607" y="105"/>
      <point x="880" y="105" type="qcurve" smooth="yes"/>
      <point x="1178" y="105"/>
      <point x="1490" y="438"/>
      <point x="1490" y="745" type="qcurve" smooth="yes"/>
      <point x="1490" y="1018"/>
      <point x="1156" y="1376"/>
      <point x="880" y="1376" type="qcurve" smooth="yes"/>
      <point x="581" y="1376"/>
      <point x="265" y="1051"/>
    </contour>
  </outline>
</glyph>
<glyph name="P" format="2">
  <advance width="1320"/>
  <unicode hex="0050"/>
  <anchor x="632" y="0" name="bottom"/>
  <anchor x="666" y="1500" name="top"/>
  <outline>
    <contour>
      <point x="88" y="0" type="line"/>
      <point x="88" y="116" type="line"/>
      <point x="308" y="153" type="line"/>
      <point x="310" y="754" type="line"/>
      <point x="308" y="1336" type="line"/>
      <point x="88" y="1370" type="line"/>
      <point x="88" y="1500" type="line"/>
      <point x="742" y="1500" type="line" smooth="yes"/>
      <point x="992" y="1500"/>
      <point x="1252" y="1283"/>
      <point x="1252" y="1070" type="qcurve" smooth="yes"/>
      <point x="1252" y="863"/>
      <point x="976" y="596"/>
      <point x="725" y="596" type="qcurve" smooth="yes"/>
      <point x="612" y="596"/>
      <point x="435" y="615"/>
      <point x="384" y="622" type="qcurve"/>
      <point x="393" y="732" type="line"/>
      <point x="456" y="720"/>
      <point x="582" y="712"/>
      <point x="692" y="712" type="qcurve" smooth="yes"/>
      <point x="882" y="712"/>
      <point x="1081" y="902"/>
      <point x="1081" y="1070" type="qcurve" smooth="yes"/>
      <point x="1081" y="1224"/>
      <point x="892" y="1378"/>
      <point x="714" y="1378" type="qcurve" smooth="yes"/>
      <point x="500" y="1378" type="line"/>
      <point x="467" y="1356" type="line"/>
      <point x="464" y="764" type="line"/>
      <point x="465" y="148" type="line"/>
      <point x="732" y="116" type="line"/>
      <point x="732" y="0" type="line"/>
    </contour>
  </outline>
</glyph>
<glyph name="Q" format="2">
  <advance width="1755"/>
  <unicode hex="0051"/>
  <anchor x="881" y="0" name="bottom"/>
  <anchor x="894" y="1497" name="top"/>
  <outline>
    <contour>
      <point x="101" y="746" type="qcurve" smooth="yes"/>
      <point x="101" y="1068"/>
      <point x="544" y="1520"/>
      <point x="881" y="1520" type="qcurve" smooth="yes"/>
      <point x="1224" y="1520"/>
      <point x="1660" y="1097"/>
      <point x="1660" y="754" type="qcurve" smooth="yes"/>
      <point x="1660" y="404"/>
      <point x="1207" y="-20"/>
      <point x="881" y="-20" type="qcurve" smooth="yes"/>
      <point x="532" y="-20"/>
      <point x="101" y="419"/>
    </contour>
    <contour>
      <point x="269" y="772" type="qcurve" smooth="yes"/>
      <point x="271" y="488"/>
      <point x="606" y="100"/>
      <point x="879" y="100" type="qcurve" smooth="yes"/>
      <point x="1173" y="100"/>
      <point x="1491" y="455"/>
      <point x="1493" y="747" type="qcurve" smooth="yes"/>
      <point x="1495" y="1021"/>
      <point x="1159" y="1376"/>
      <point x="883" y="1376" type="qcurve" smooth="yes"/>
      <point x="585" y="1376"/>
      <point x="267" y="1054"/>
    </contour>
    <contour>
      <point x="580" y="-46" type="qcurve" identifier="jWZBD98qkQ"/>
      <point x="1357" y="-274" type="line" identifier="7ZXZEQkAbx"/>
      <point x="1417" y="-274"/>
      <point x="1515" y="-179"/>
      <point x="1548" y="-124" type="qcurve"/>
      <point x="1641" y="-178" type="line"/>
      <point x="1591" y="-282"/>
      <point x="1447" y="-411"/>
      <point x="1315" y="-411" type="qcurve" identifier="bSft9tBggp"/>
      <point x="554" y="-184" type="line" identifier="aDYWDNvZlZ"/>
      <point x="493" y="-184"/>
      <point x="375" y="-237"/>
      <point x="320" y="-290" type="qcurve"/>
      <point x="249" y="-224" type="line"/>
      <point x="311" y="-133"/>
      <point x="483" y="-46"/>
    </contour>
    <contour>
      <point x="550" y="-96" type="line"/>
      <point x="746" y="328" type="line"/>
      <point x="868" y="282" type="line"/>
      <point x="668" y="-134" type="line"/>
    </contour>
  </outline>
</glyph>
<glyph name="R" format="2">
  <advance width="1433"/>
  <unicode hex="0052"/>
  <anchor x="799" y="0" name="bottom"/>
  <anchor x="660" y="1500" name="top"/>
  <outline>
    <contour>
      <point x="88" y="0" type="line"/>
      <point x="88" y="116" type="line"/>
      <point x="308" y="152" type="line"/>
      <point x="310" y="794" type="line"/>
      <point x="308" y="1336" type="line"/>
      <point x="88" y="1370" type="line"/>
      <point x="88" y="1500" type="line"/>
      <point x="737" y="1500" type="line" smooth="yes"/>
      <point x="956" y="1500"/>
      <point x="1167" y="1314"/>
      <point x="1167" y="1147" type="qcurve" smooth="yes"/>
      <point x="1167" y="963"/>
      <point x="908" y="732"/>
      <point x="734" y="732" type="qcurve" smooth="yes"/>
      <point x="663" y="732"/>
      <point x="438" y="741"/>
      <point x="376" y="745" type="qcurve"/>
      <point x="376" y="845" type="line"/>
      <point x="661" y="845" type="line" smooth="yes"/>
      <point x="835" y="845"/>
      <point x="994" y="1004"/>
      <point x="994" y="1135" type="qcurve" smooth="yes"/>
      <point x="994" y="1250"/>
      <point x="857" y="1378"/>
      <point x="704" y="1378" type="qcurve" smooth="yes"/>
      <point x="497" y="1378" type="line"/>
      <point x="468" y="1360" type="line"/>
      <point x="464" y="794" type="line"/>
      <point x="466" y="152" type="line"/>
      <point x="718" y="116" type="line"/>
      <point x="718" y="0" type="line"/>
    </contour>
    <contour>
      <point x="634" y="776" type="line"/>
      <point x="794" y="810" type="line"/>
      <point x="1152" y="331" type="line" smooth="yes"/>
      <point x="1260" y="184"/>
      <point x="1411" y="117"/>
      <point x="1483" y="116" type="qcurve"/>
      <point x="1483" y="0" type="line"/>
      <point x="1225" y="0" type="line"/>
      <point x="1192" y="20" type="line"/>
    </contour>
  </outline>
</glyph>
<glyph name="S" format="2">
  <advance width="1166"/>
  <unicode hex="0053"/>
  <anchor x="632" y="0" name="bottom"/>
  <anchor x="554" y="1500" name="top"/>
  <outline>
    <contour>
      <point x="78" y="-8" type="line"/>
      <point x="78" y="503" type="line"/>
      <point x="200" y="503" type="line"/>
      <point x="222" y="382" type="line" smooth="yes"/>
      <point x="253" y="237"/>
      <point x="479" y="105"/>
      <point x="633" y="105" type="qcurve" smooth="yes"/>
      <point x="799" y="105"/>
      <point x="965" y="256"/>
      <point x="965" y="377" type="qcurve" smooth="yes"/>
      <point x="965" y="517"/>
      <point x="752" y="663"/>
      <point x="537" y="736" type="qcurve" smooth="yes"/>
      <point x="344" y="803"/>
      <point x="139" y="982"/>
      <point x="139" y="1140" type="qcurve" smooth="yes"/>
      <point x="139" y="1297"/>
      <point x="365" y="1520"/>
      <point x="550" y="1520" type="qcurve" smooth="yes"/>
      <point x="644" y="1520"/>
      <point x="811" y="1463"/>
      <point x="864" y="1421" type="qcurve"/>
      <point x="887" y="1495" type="line"/>
      <point x="996" y="1495" type="line"/>
      <point x="996" y="1033" type="line"/>
      <point x="876" y="1033" type="line"/>
      <point x="850" y="1201" type="line" smooth="yes"/>
      <point x="834" y="1286"/>
      <point x="674" y="1384"/>
      <point x="549" y="1384" type="qcurve" smooth="yes"/>
      <point x="428" y="1384"/>
      <point x="280" y="1268"/>
      <point x="280" y="1171" type="qcurve" smooth="yes"/>
      <point x="280" y="1076"/>
      <point x="431" y="943"/>
      <point x="656" y="868" type="qcurve" smooth="yes"/>
      <point x="855" y="800"/>
      <point x="1109" y="596"/>
      <point x="1109" y="417" type="qcurve" smooth="yes"/>
      <point x="1109" y="225"/>
      <point x="856" y="-20"/>
      <point x="644" y="-20" type="qcurve" smooth="yes"/>
      <point x="508" y="-20"/>
      <point x="302" y="54"/>
      <point x="239" y="113" type="qcurve"/>
      <point x="186" y="-8" type="line"/>
    </contour>
  </outline>
</glyph>
<glyph name="T" format="2">
  <advance width="1395"/>
  <unicode hex="0054"/>
  <anchor x="697" y="0" name="bottom"/>
  <anchor x="697" y="750" name="center"/>
  <anchor x="697" y="1500" name="top"/>
  <outline>
    <contour>
      <point x="56" y="1032" type="line"/>
      <point x="56" y="1500" type="line"/>
      <point x="1339" y="1500" type="line"/>
      <point x="1339" y="1031" type="line"/>
      <point x="1223" y="1031" type="line"/>
      <point x="1188" y="1378" type="line"/>
      <point x="795" y="1378" type="line"/>
      <point x="776" y="1358" type="line"/>
      <point x="775" y="753" type="line"/>
      <point x="776" y="152" type="line"/>
      <point x="1005" y="116" type="line"/>
      <point x="1005" y="0" type="line"/>
      <point x="387" y="0" type="line"/>
      <point x="387" y="116" type="line"/>
      <point x="618" y="152" type="line"/>
      <point x="620" y="753" type="line"/>
      <point x="618" y="1358" type="line"/>
      <point x="609" y="1378" type="line"/>
      <point x="207" y="1378" type="line"/>
      <point x="172" y="1032" type="line"/>
    </contour>
  </outline>
</glyph>
<glyph name="U" format="2">
  <advance width="1713"/>
  <unicode hex="0055"/>
  <anchor x="876" y="0" name="bottom"/>
  <anchor x="1099" y="0" name="ogonek"/>
  <anchor x="876" y="1500" name="top"/>
  <anchor x="1693" y="1500" name="topright"/>
  <outline>
    <contour>
      <point x="70" y="1370" type="line"/>
      <point x="70" y="1500" type="line"/>
      <point x="658" y="1500" type="line"/>
      <point x="658" y="1370" type="line"/>
      <point x="439" y="1336" type="line"/>
      <point x="434" y="796" type="line"/>
      <point x="438" y="477" type="line" smooth="yes"/>
      <point x="440" y="285"/>
      <point x="691" y="118"/>
      <point x="890" y="118" type="qcurve" smooth="yes"/>
      <point x="1070" y="118"/>
      <point x="1329" y="300"/>
      <point x="1330" y="497" type="qcurve" smooth="yes"/>
      <point x="1332" y="796" type="line"/>
      <point x="1330" y="1336" type="line"/>
      <point x="1100" y="1370" type="line"/>
      <point x="1100" y="1500" type="line"/>
      <point x="1693" y="1500" type="line"/>
      <point x="1693" y="1370" type="line"/>
      <point x="1473" y="1336" type="line"/>
      <point x="1471" y="794" type="line"/>
      <point x="1474" y="493" type="line" smooth="yes"/>
      <point x="1477" y="233"/>
      <point x="1135" y="-31"/>
      <point x="881" y="-31" type="qcurve" smooth="yes"/>
      <point x="608" y="-31"/>
      <point x="278" y="242"/>
      <point x="280" y="481" type="qcurve" smooth="yes"/>
      <point x="282" y="794" type="line"/>
      <point x="280" y="1336" type="line"/>
    </contour>
  </outline>
</glyph>
<glyph name="V" format="2">
  <advance width="1570"/>
  <unicode hex="0056"/>
  <anchor x="788" y="0" name="bottom"/>
  <anchor x="800" y="1500" name="top"/>
  <outline>
    <contour>
      <point x="-5" y="1370" type="line"/>
      <point x="-5" y="1500" type="line"/>
      <point x="529" y="1500" type="line"/>
      <point x="529" y="1370" type="line"/>
      <point x="355" y="1329" type="line"/>
      <point x="573" y="800" type="line"/>
      <point x="771" y="330" type="line"/>
      <point x="809" y="223" type="line"/>
      <point x="819" y="223" type="line"/>
      <point x="857" y="330" type="line"/>
      <point x="1056" y="812" type="line"/>
      <point x="1267" y="1336" type="line"/>
      <point x="1074" y="1370" type="line"/>
      <point x="1074" y="1500" type="line"/>
      <point x="1607" y="1501" type="line"/>
      <point x="1607" y="1371" type="line"/>
      <point x="1411" y="1331" type="line"/>
      <point x="1173" y="760" type="line"/>
      <point x="853" y="-8" type="line"/>
      <point x="742" y="-8" type="line"/>
      <point x="431" y="740" type="line"/>
      <point x="181" y="1331" type="line"/>
    </contour>
  </outline>
</glyph>
<glyph name="W" format="2">
  <advance width="2277"/>
  <unicode hex="0057"/>
  <anchor x="1121" y="0" name="bottom"/>
  <anchor x="1121" y="1500" name="top"/>
  <outline>
    <contour>
      <point x="690" y="-8" type="line"/>
      <point x="412" y="713" type="line"/>
      <point x="162" y="1331" type="line"/>
      <point x="-24" y="1370" type="line"/>
      <point x="-24" y="1500" type="line"/>
      <point x="530" y="1500" type="line"/>
      <point x="530" y="1370" type="line"/>
      <point x="336" y="1329" type="line"/>
      <point x="552" y="767" type="line"/>
      <point x="715" y="344" type="line"/>
      <point x="754" y="230" type="line"/>
      <point x="764" y="230" type="line"/>
      <point x="804" y="344" type="line"/>
      <point x="928" y="677" type="line"/>
      <point x="1071" y="1065" type="line"/>
      <point x="970" y="1339" type="line"/>
      <point x="785" y="1378" type="line"/>
      <point x="785" y="1500" type="line"/>
      <point x="1322" y="1500" type="line"/>
      <point x="1322" y="1378" type="line"/>
      <point x="1144" y="1337" type="line"/>
      <point x="1326" y="810" type="line"/>
      <point x="1491" y="346" type="line"/>
      <point x="1526" y="232" type="line"/>
      <point x="1537" y="232" type="line"/>
      <point x="1576" y="346" type="line"/>
      <point x="1758" y="803" type="line"/>
      <point x="1961" y="1336" type="line"/>
      <point x="1757" y="1370" type="line"/>
      <point x="1757" y="1500" type="line"/>
      <point x="2321" y="1500" type="line"/>
      <point x="2321" y="1370" type="line"/>
      <point x="2115" y="1331" type="line"/>
      <point x="1878" y="760" type="line"/>
      <point x="1569" y="-8" type="line"/>
      <point x="1458" y="-8" type="line"/>
      <point x="1176" y="777" type="line"/>
      <point x="1138" y="893" type="line"/>
      <point x="1128" y="893" type="line"/>
      <point x="1090" y="777" type="line"/>
      <point x="795" y="-8" type="line"/>
    </contour>
  </outline>
</glyph>
<glyph name="X" format="2">
  <advance width="1450"/>
  <unicode hex="0058"/>
  <anchor x="710" y="0" name="bottom"/>
  <anchor x="722" y="1500" name="top"/>
  <outline>
    <contour>
      <point x="-14" y="0" type="line"/>
      <point x="-14" y="116" type="line"/>
      <point x="176" y="151" type="line"/>
      <point x="634" y="793" type="line"/>
      <point x="223" y="1340" type="line"/>
      <point x="42" y="1371" type="line"/>
      <point x="42" y="1500" type="line"/>
      <point x="576" y="1500" type="line"/>
      <point x="576" y="1371" type="line"/>
      <point x="401" y="1338" type="line"/>
      <point x="642" y="1018" type="line"/>
      <point x="720" y="908" type="line"/>
      <point x="730" y="908" type="line"/>
      <point x="803" y="1018" type="line"/>
      <point x="1036" y="1345" type="line"/>
      <point x="857" y="1371" type="line"/>
      <point x="857" y="1500" type="line"/>
      <point x="1391" y="1500" type="line"/>
      <point x="1391" y="1371" type="line"/>
      <point x="1190" y="1340" type="line"/>
      <point x="806" y="803" type="line"/>
      <point x="1293" y="151" type="line"/>
      <point x="1484" y="116" type="line"/>
      <point x="1484" y="0" type="line"/>
      <point x="941" y="0" type="line"/>
      <point x="941" y="116" type="line"/>
      <point x="1115" y="151" type="line"/>
      <point x="796" y="581" type="line"/>
      <point x="720" y="688" type="line"/>
      <point x="710" y="688" type="line"/>
      <point x="638" y="580" type="line"/>
      <point x="331" y="146" type="line"/>
      <point x="510" y="116" type="line"/>
      <point x="510" y="0" type="line"/>
    </contour>
  </outline>
</glyph>
<glyph name="Y" format="2">
  <advance width="1336"/>
  <unicode hex="0059"/>
  <anchor x="670" y="0" name="bottom"/>
  <anchor x="672" y="1500" name="top"/>
  <anchor x="-94" y="1500" name="tonos"/>
  <outline>
    <contour>
      <point x="357" y="0" type="line"/>
      <point x="357" y="116" type="line"/>
      <point x="590" y="151" type="line"/>
      <point x="592" y="647" type="line"/>
      <point x="386" y="986" type="line"/>
      <point x="159" y="1344" type="line"/>
      <point x="-24" y="1370" type="line"/>
      <point x="-24" y="1500" type="line"/>
      <point x="502" y="1500" type="line"/>
      <point x="502" y="1370" type="line"/>
      <point x="342" y="1335" type="line"/>
      <point x="507" y="1056" type="line"/>
      <point x="680" y="783" type="line"/>
      <point x="690" y="783" type="line"/>
      <point x="862" y="1079" type="line"/>
      <point x="1014" y="1342" type="line"/>
      <point x="823" y="1370" type="line"/>
      <point x="823" y="1500" type="line"/>
      <point x="1360" y="1500" type="line"/>
      <point x="1360" y="1370" type="line"/>
      <point x="1171" y="1343" type="line"/>
      <point x="962" y="1010" type="line"/>
      <point x="746" y="649" type="line"/>
      <point x="748" y="151" type="line"/>
      <point x="978" y="116" type="line"/>
      <point x="978" y="0" type="line"/>
    </contour>
  </outline>
</glyph>
<glyph name="Z" format="2">
  <advance width="1229"/>
  <unicode hex="005A"/>
  <anchor x="619" y="0" name="bottom"/>
  <anchor x="619" y="1500" name="top"/>
  <outline>
    <contour>
      <point x="88" y="0" type="line"/>
      <point x="58" y="92" type="line"/>
      <point x="945" y="1371" type="line"/>
      <point x="936" y="1379" type="line"/>
      <point x="280" y="1379" type="line"/>
      <point x="262" y="1213" type="line"/>
      <point x="116" y="1213" type="line"/>
      <point x="116" y="1500" type="line"/>
      <point x="1146" y="1500" type="line"/>
      <point x="1146" y="1409" type="line"/>
      <point x="250" y="118" type="line"/>
      <point x="258" y="112" type="line"/>
      <point x="1001" y="112" type="line"/>
      <point x="1040" y="250" type="line"/>
      <point x="1179" y="250" type="line"/>
      <point x="1153" y="0" type="line"/>
    </contour>
  </outline>
</glyph>
<glyph name="bracketleft" format="2">
  <advance width="724"/>
  <unicode hex="005B"/>
  <outline>
    <contour>
      <point x="163" y="508" type="line"/>
      <point x="151" y="1348" type="line"/>
      <point x="132" y="1368" type="line"/>
      <point x="132" y="1500" type="line"/>
      <point x="642" y="1500" type="line"/>
      <point x="642" y="1367" type="line"/>
      <point x="312" y="1348" type="line"/>
      <point x="300" y="508" type="line"/>
      <point x="312" y="-328" type="line"/>
      <point x="642" y="-347" type="line"/>
      <point x="642" y="-480" type="line"/>
      <point x="132" y="-480" type="line"/>
      <point x="132" y="-348" type="line"/>
      <point x="151" y="-328" type="line"/>
    </contour>
  </outline>
</glyph>
<glyph name="backslash" format="2">
  <advance width="790"/>
  <unicode hex="005C"/>
  <outline>
    <contour>
      <point x="-28" y="1505" type="line"/>
      <point x="111" y="1555" type="line"/>
      <point x="828" y="-111" type="line"/>
      <point x="688" y="-161" type="line"/>
    </contour>
  </outline>
</glyph>
<glyph name="bracketright" format="2">
  <advance width="724"/>
  <unicode hex="005D"/>
  <outline>
    <contour>
      <point x="82" y="-480" type="line"/>
      <point x="82" y="-347" type="line"/>
      <point x="413" y="-328" type="line"/>
      <point x="425" y="508" type="line"/>
      <point x="413" y="1348" type="line"/>
      <point x="82" y="1367" type="line"/>
      <point x="82" y="1500" type="line"/>
      <point x="592" y="1500" type="line"/>
      <point x="592" y="1368" type="line"/>
      <point x="573" y="1348" type="line"/>
      <point x="561" y="508" type="line"/>
      <point x="573" y="-328" type="line"/>
      <point x="592" y="-348" type="line"/>
      <point x="592" y="-480" type="line"/>
    </contour>
  </outline>
</glyph>
<glyph name="asciicircum" format="2">
  <advance width="1652"/>
  <unicode hex="005E"/>
  <outline>
    <contour>
      <point x="140" y="926" type="line"/>
      <point x="209" y="988"/>
      <point x="770" y="1501"/>
      <point x="799" y="1524" type="qcurve"/>
      <point x="823" y="1501"/>
      <point x="1442" y="989"/>
      <point x="1511" y="927" type="qcurve"/>
      <point x="1421" y="827" type="line"/>
      <point x="1255" y="950"/>
      <point x="820" y="1286"/>
      <point x="800" y="1299" type="qcurve"/>
      <point x="775" y="1278"/>
      <point x="407" y="959"/>
      <point x="231" y="829" type="qcurve"/>
    </contour>
  </outline>
</glyph>
<glyph name="underscore" format="2">
  <advance width="1737"/>
  <unicode hex="005F"/>
  <outline>
    <contour>
      <point x="-2" y="-480" type="line"/>
      <point x="-2" y="-340" type="line"/>
      <point x="873" y="-334" type="line"/>
      <point x="1739" y="-340" type="line"/>
      <point x="1739" y="-480" type="line"/>
      <point x="873" y="-496" type="line"/>
    </contour>
  </outline>
</glyph>
<glyph name="a" format="2">
  <advance width="1156"/>
  <unicode hex="0061"/>
  <anchor x="573" y="0" name="bottom"/>
  <anchor x="926" y="0" name="ogonek"/>
  <anchor x="555" y="1051" name="top"/>
  <outline>
    <contour>
      <point x="121" y="257" type="qcurve" smooth="yes"/>
      <point x="121" y="403"/>
      <point x="457" y="613"/>
      <point x="840" y="660" type="qcurve"/>
      <point x="840" y="572" type="line"/>
      <point x="567" y="535"/>
      <point x="279" y="407"/>
      <point x="279" y="266" type="qcurve" smooth="yes"/>
      <point x="279" y="188"/>
      <point x="382" y="108"/>
      <point x="467" y="108" type="qcurve" smooth="yes"/>
      <point x="552" y="108"/>
      <point x="742" y="199"/>
      <point x="780" y="252" type="qcurve"/>
      <point x="782" y="666" type="line" smooth="yes"/>
      <point x="783" y="842"/>
      <point x="648" y="956"/>
      <point x="543" y="956" type="qcurve" smooth="yes"/>
      <point x="448" y="956"/>
      <point x="327" y="905"/>
      <point x="301" y="876" type="qcurve"/>
      <point x="319" y="858"/>
      <point x="341" y="818"/>
      <point x="344" y="800" type="qcurve" smooth="yes"/>
      <point x="350" y="764"/>
      <point x="310" y="715"/>
      <point x="273" y="715" type="qcurve" smooth="yes"/>
      <point x="230" y="715"/>
      <point x="182" y="778"/>
      <point x="182" y="832" type="qcurve" smooth="yes"/>
      <point x="182" y="930"/>
      <point x="392" y="1072"/>
      <point x="558" y="1072" type="qcurve" smooth="yes"/>
      <point x="736" y="1072"/>
      <point x="925" y="898"/>
      <point x="925" y="712" type="qcurve" smooth="yes"/>
      <point x="925" y="145" type="line"/>
      <point x="1084" y="110" type="line"/>
      <point x="1084" y="0" type="line"/>
      <point x="849" y="0" type="line"/>
      <point x="795" y="60" type="line"/>
      <point x="781" y="157" type="line"/>
      <point x="738" y="90"/>
      <point x="532" y="-13"/>
      <point x="407" y="-13" type="qcurve" smooth="yes"/>
      <point x="280" y="-13"/>
      <point x="121" y="143"/>
    </contour>
  </outline>
</glyph>
<glyph name="b" format="2">
  <advance width="1200"/>
  <unicode hex="0062"/>
  <anchor x="602" y="0" name="bottom"/>
  <anchor x="602" y="1519" name="top"/>
  <outline>
    <contour>
      <point x="173" y="0" type="line"/>
      <point x="183" y="477" type="line"/>
      <point x="173" y="1332" type="line"/>
      <point x="-6" y="1362" type="line"/>
      <point x="-6" y="1486" type="line"/>
      <point x="263" y="1520" type="line"/>
      <point x="294" y="1520" type="line"/>
      <point x="322" y="1488" type="line"/>
      <point x="320" y="907" type="line"/>
      <point x="373" y="981"/>
      <point x="552" y="1071"/>
      <point x="677" y="1071" type="qcurve" smooth="yes"/>
      <point x="869" y="1071"/>
      <point x="1118" y="791"/>
      <point x="1118" y="557" type="qcurve" smooth="yes"/>
      <point x="1118" y="300"/>
      <point x="859" y="-12"/>
      <point x="626" y="-12" type="qcurve" smooth="yes"/>
      <point x="531" y="-12"/>
      <point x="372" y="49"/>
      <point x="321" y="92" type="qcurve"/>
      <point x="246" y="0" type="line"/>
    </contour>
    <contour>
      <point x="312" y="527" type="line"/>
      <point x="320" y="246" type="line"/>
      <point x="359" y="184"/>
      <point x="523" y="94"/>
      <point x="633" y="94" type="qcurve" smooth="yes"/>
      <point x="784" y="94"/>
      <point x="957" y="327"/>
      <point x="957" y="528" type="qcurve" smooth="yes"/>
      <point x="957" y="722"/>
      <point x="785" y="942"/>
      <point x="638" y="942" type="qcurve" smooth="yes"/>
      <point x="526" y="942"/>
      <point x="368" y="849"/>
      <point x="320" y="779" type="qcurve"/>
    </contour>
  </outline>
</glyph>
<glyph name="c" format="2">
  <advance width="1097"/>
  <unicode hex="0063"/>
  <anchor x="598" y="0" name="bottom"/>
  <anchor x="576" y="1051" name="top"/>
  <outline>
    <contour>
      <point x="82" y="515" type="qcurve" smooth="yes"/>
      <point x="82" y="752"/>
      <point x="358" y="1074"/>
      <point x="581" y="1074" type="qcurve" smooth="yes"/>
      <point x="673" y="1074"/>
      <point x="805" y="1035"/>
      <point x="838" y="1010" type="qcurve"/>
      <point x="860" y="1068" type="line"/>
      <point x="961" y="1068" type="line"/>
      <point x="961" y="682" type="line"/>
      <point x="859" y="682" type="line"/>
      <point x="842" y="764" type="line" smooth="yes"/>
      <point x="817" y="850"/>
      <point x="695" y="960"/>
      <point x="583" y="960" type="qcurve" smooth="yes"/>
      <point x="428" y="960"/>
      <point x="240" y="750"/>
      <point x="240" y="533" type="qcurve" smooth="yes"/>
      <point x="240" y="328"/>
      <point x="450" y="111"/>
      <point x="624" y="111" type="qcurve" smooth="yes"/>
      <point x="744" y="111"/>
      <point x="913" y="179"/>
      <point x="973" y="230" type="qcurve"/>
      <point x="1025" y="168" type="line"/>
      <point x="970" y="92"/>
      <point x="766" y="-22"/>
      <point x="602" y="-22" type="qcurve" smooth="yes"/>
      <point x="384" y="-22"/>
      <point x="82" y="268"/>
    </contour>
  </outline>
</glyph>
<glyph name="d" format="2">
  <advance width="1272"/>
  <unicode hex="0064"/>
  <anchor x="616" y="0" name="bottom"/>
  <anchor x="940" y="1194" name="center"/>
  <anchor x="616" y="1520" name="top"/>
  <anchor x="1025" y="1000" name="topright"/>
  <outline>
    <contour>
      <point x="86" y="502" type="qcurve" smooth="yes"/>
      <point x="86" y="758"/>
      <point x="372" y="1071"/>
      <point x="605" y="1071" type="qcurve" smooth="yes"/>
      <point x="691" y="1071"/>
      <point x="856" y="1023"/>
      <point x="908" y="985" type="qcurve"/>
      <point x="901" y="1332" type="line"/>
      <point x="720" y="1362" type="line"/>
      <point x="720" y="1486" type="line"/>
      <point x="991" y="1520" type="line"/>
      <point x="1022" y="1520" type="line"/>
      <point x="1050" y="1488" type="line"/>
      <point x="1047" y="565" type="line"/>
      <point x="1055" y="145" type="line"/>
      <point x="1216" y="110" type="line"/>
      <point x="1216" y="0" type="line"/>
      <point x="979" y="0" type="line"/>
      <point x="926" y="63" type="line"/>
      <point x="911" y="157" type="line"/>
      <point x="860" y="88"/>
      <point x="688" y="-9"/>
      <point x="557" y="-9" type="qcurve" smooth="yes"/>
      <point x="347" y="-9"/>
      <point x="86" y="267"/>
    </contour>
    <contour>
      <point x="247" y="528" type="qcurve" smooth="yes"/>
      <point x="247" y="335"/>
      <point x="431" y="120"/>
      <point x="595" y="120" type="qcurve" smooth="yes"/>
      <point x="712" y="120"/>
      <point x="865" y="213"/>
      <point x="910" y="277" type="qcurve"/>
      <point x="915" y="550" type="line"/>
      <point x="915" y="833" type="line"/>
      <point x="870" y="890"/>
      <point x="722" y="960"/>
      <point x="617" y="960" type="qcurve" smooth="yes"/>
      <point x="448" y="960"/>
      <point x="247" y="711"/>
    </contour>
  </outline>
</glyph>
<glyph name="e" format="2">
  <advance width="1109"/>
  <unicode hex="0065"/>
  <anchor x="598" y="0" name="bottom"/>
  <anchor x="778" y="0" name="ogonek"/>
  <anchor x="568" y="1051" name="top"/>
  <outline>
    <contour>
      <point x="81" y="527" type="qcurve" smooth="yes"/>
      <point x="81" y="753"/>
      <point x="353" y="1074"/>
      <point x="573" y="1074" type="qcurve" smooth="yes"/>
      <point x="770" y="1074"/>
      <point x="999" y="833"/>
      <point x="1018" y="616" type="qcurve"/>
      <point x="1018" y="555" type="line"/>
      <point x="162" y="555" type="line"/>
      <point x="163" y="652" type="line"/>
      <point x="871" y="652" type="line"/>
      <point x="851" y="799"/>
      <point x="687" y="958"/>
      <point x="562" y="958" type="qcurve" smooth="yes"/>
      <point x="408" y="958"/>
      <point x="239" y="737"/>
      <point x="239" y="547" type="qcurve" smooth="yes"/>
      <point x="240" y="330"/>
      <point x="456" y="110"/>
      <point x="625" y="110" type="qcurve" smooth="yes"/>
      <point x="725" y="110"/>
      <point x="876" y="155"/>
      <point x="931" y="201" type="qcurve"/>
      <point x="982" y="139" type="line"/>
      <point x="928" y="68"/>
      <point x="736" y="-22"/>
      <point x="606" y="-22" type="qcurve" smooth="yes"/>
      <point x="361" y="-22"/>
      <point x="81" y="261"/>
    </contour>
  </outline>
</glyph>
<glyph name="f" format="2">
  <advance width="730"/>
  <unicode hex="0066"/>
  <anchor x="317" y="0" name="bottom"/>
  <anchor x="317" y="1523" name="top"/>
  <outline>
    <contour>
      <point x="99" y="0" type="line"/>
      <point x="99" y="110" type="line"/>
      <point x="279" y="145" type="line"/>
      <point x="281" y="527" type="line"/>
      <point x="278" y="920" type="line"/>
      <point x="77" y="925" type="line"/>
      <point x="77" y="1021" type="line"/>
      <point x="280" y="1039" type="line"/>
      <point x="283" y="1244" type="line" smooth="yes"/>
      <point x="285" y="1369"/>
      <point x="426" y="1524"/>
      <point x="533" y="1524" type="qcurve" smooth="yes"/>
      <point x="578" y="1524"/>
      <point x="656" y="1511"/>
      <point x="683" y="1502" type="qcurve" smooth="yes"/>
      <point x="703" y="1496" type="line"/>
      <point x="685" y="1399" type="line"/>
      <point x="663" y="1404" type="line" smooth="yes"/>
      <point x="648" y="1407"/>
      <point x="613" y="1410"/>
      <point x="590" y="1410" type="qcurve" smooth="yes"/>
      <point x="507" y="1410"/>
      <point x="418" y="1300"/>
      <point x="419" y="1214" type="qcurve" smooth="yes"/>
      <point x="422" y="1040" type="line"/>
      <point x="681" y="1040" type="line"/>
      <point x="681" y="926" type="line"/>
      <point x="422" y="926" type="line"/>
      <point x="424" y="527" type="line"/>
      <point x="429" y="145" type="line"/>
      <point x="632" y="110" type="line"/>
      <point x="632" y="0" type="line"/>
    </contour>
  </outline>
</glyph>
<glyph name="g" format="2">
  <advance width="1120"/>
  <unicode hex="0067"/>
  <anchor x="558" y="-416" name="bottom"/>
  <anchor x="518" y="1051" name="top"/>
  <outline>
    <contour>
      <point x="33" y="-248" type="qcurve" smooth="yes"/>
      <point x="33" y="-156"/>
      <point x="141" y="-41"/>
      <point x="216" y="-3" type="qcurve"/>
      <point x="300" y="-42" type="line"/>
      <point x="248" y="-70"/>
      <point x="182" y="-152"/>
      <point x="182" y="-227" type="qcurve" smooth="yes"/>
      <point x="182" y="-310"/>
      <point x="358" y="-411"/>
      <point x="590" y="-411" type="qcurve" smooth="yes"/>
      <point x="762" y="-411"/>
      <point x="962" y="-321"/>
      <point x="962" y="-226" type="qcurve" smooth="yes"/>
      <point x="962" y="-145"/>
      <point x="792" y="-95"/>
      <point x="565" y="-84" type="qcurve" smooth="yes"/>
      <point x="346" y="-73"/>
      <point x="103" y="19"/>
      <point x="103" y="141" type="qcurve" smooth="yes"/>
      <point x="103" y="236"/>
      <point x="238" y="353"/>
      <point x="308" y="385" type="qcurve"/>
      <point x="353" y="326" type="line"/>
      <point x="299" y="302"/>
      <point x="217" y="233"/>
      <point x="217" y="178" type="qcurve" smooth="yes"/>
      <point x="217" y="118"/>
      <point x="374" y="69"/>
      <point x="587" y="59" type="qcurve" smooth="yes"/>
      <point x="871" y="47"/>
      <point x="1096" y="-56"/>
      <point x="1096" y="-176" type="qcurve" smooth="yes"/>
      <point x="1096" y="-320"/>
      <point x="827" y="-518"/>
      <point x="532" y="-518" type="qcurve" smooth="yes"/>
      <point x="259" y="-518"/>
      <point x="33" y="-370"/>
    </contour>
    <contour>
      <point x="113" y="680" type="qcurve" smooth="yes"/>
      <point x="113" y="851"/>
      <point x="342" y="1073"/>
      <point x="527" y="1073" type="qcurve" smooth="yes"/>
      <point x="714" y="1073"/>
      <point x="945" y="867"/>
      <point x="945" y="685" type="qcurve" smooth="yes"/>
      <point x="945" y="514"/>
      <point x="717" y="268"/>
      <point x="532" y="268" type="qcurve" smooth="yes"/>
      <point x="346" y="268"/>
      <point x="113" y="495"/>
    </contour>
    <contour>
      <point x="266" y="690" type="qcurve" smooth="yes"/>
      <point x="266" y="536"/>
      <point x="410" y="372"/>
      <point x="536" y="372" type="qcurve" smooth="yes"/>
      <point x="653" y="372"/>
      <point x="789" y="523"/>
      <point x="789" y="679" type="qcurve" smooth="yes"/>
      <point x="789" y="807"/>
      <point x="647" y="957"/>
      <point x="521" y="957" type="qcurve" smooth="yes"/>
      <point x="404" y="957"/>
      <point x="266" y="823"/>
    </contour>
    <contour>
      <point x="630" y="976" type="line"/>
      <point x="595" y="1051" type="line"/>
      <point x="1100" y="1051" type="line"/>
      <point x="1100" y="914" type="line"/>
    </contour>
  </outline>
</glyph>
<glyph name="h" format="2">
  <advance width="1325"/>
  <unicode hex="0068"/>
  <anchor x="654" y="0" name="bottom"/>
  <anchor x="355" y="1213" name="center"/>
  <anchor x="321" y="1520" name="top"/>
  <outline>
    <contour>
      <point x="82" y="0" type="line"/>
      <point x="82" y="110" type="line"/>
      <point x="236" y="145" type="line"/>
      <point x="238" y="530" type="line"/>
      <point x="236" y="1332" type="line"/>
      <point x="58" y="1362" type="line"/>
      <point x="58" y="1486" type="line"/>
      <point x="325" y="1520" type="line"/>
      <point x="357" y="1520" type="line"/>
      <point x="385" y="1488" type="line"/>
      <point x="384" y="903" type="line"/>
      <point x="445" y="977"/>
      <point x="644" y="1072"/>
      <point x="752" y="1072" type="qcurve" smooth="yes"/>
      <point x="913" y="1072"/>
      <point x="1077" y="923"/>
      <point x="1077" y="793" type="qcurve" smooth="yes"/>
      <point x="1077" y="705"/>
      <point x="1072" y="530"/>
      <point x="1072" y="530" type="qcurve"/>
      <point x="1076" y="145" type="line"/>
      <point x="1236" y="110" type="line"/>
      <point x="1236" y="0" type="line"/>
      <point x="757" y="0" type="line"/>
      <point x="757" y="110" type="line"/>
      <point x="927" y="145" type="line"/>
      <point x="929" y="528" type="line"/>
      <point x="929" y="750" type="line" smooth="yes"/>
      <point x="929" y="820"/>
      <point x="814" y="925"/>
      <point x="710" y="925" type="qcurve" smooth="yes"/>
      <point x="618" y="925"/>
      <point x="439" y="847"/>
      <point x="384" y="772" type="qcurve"/>
      <point x="383" y="528" type="line"/>
      <point x="385" y="145" type="line"/>
      <point x="535" y="110" type="line"/>
      <point x="535" y="0" type="line"/>
    </contour>
  </outline>
</glyph>
<glyph name="k" format="2">
  <advance width="1240"/>
  <unicode hex="006B"/>
  <anchor x="605" y="0" name="bottom"/>
  <anchor x="575" y="1520" name="top"/>
  <outline>
    <contour>
      <point x="82" y="0" type="line"/>
      <point x="82" y="110" type="line"/>
      <point x="236" y="145" type="line"/>
      <point x="238" y="527" type="line"/>
      <point x="236" y="1332" type="line"/>
      <point x="58" y="1362" type="line"/>
      <point x="58" y="1486" type="line"/>
      <point x="325" y="1520" type="line"/>
      <point x="357" y="1520" type="line"/>
      <point x="385" y="1488" type="line"/>
      <point x="383" y="510" type="line"/>
      <point x="385" y="145" type="line"/>
      <point x="535" y="110" type="line"/>
      <point x="535" y="0" type="line"/>
    </contour>
    <contour>
      <point x="330" y="404" type="line"/>
      <point x="327" y="516" type="line"/>
      <point x="785" y="916" type="line"/>
      <point x="643" y="946" type="line"/>
      <point x="643" y="1051" type="line"/>
      <point x="1116" y="1051" type="line"/>
      <point x="1116" y="946" type="line"/>
      <point x="928" y="911" type="line"/>
    </contour>
    <contour>
      <point x="529" y="628" type="line"/>
      <point x="631" y="717" type="line"/>
      <point x="1058" y="145" type="line"/>
      <point x="1209" y="110" type="line"/>
      <point x="1209" y="0" type="line"/>
      <point x="861" y="0" type="line"/>
      <point x="853" y="109" type="line"/>
      <point x="888" y="141" type="line"/>
    </contour>
  </outline>
</glyph>
<glyph name="l" format="2">
  <advance width="647"/>
  <unicode hex="006C"/>
  <anchor x="324" y="0" name="bottom"/>
  <anchor x="324" y="737" name="center"/>
  <anchor x="324" y="1520" name="top"/>
  <anchor x="385" y="987" name="topright"/>
  <anchor x="743" y="672" name="centerright"/>
  <outline>
    <contour>
      <point x="82" y="0" type="line"/>
      <point x="82" y="110" type="line"/>
      <point x="256" y="145" type="line"/>
      <point x="258" y="527" type="line"/>
      <point x="256" y="1332" type="line"/>
      <point x="58" y="1362" type="line"/>
      <point x="58" y="1486" type="line"/>
      <point x="345" y="1520" type="line"/>
      <point x="377" y="1520" type="line"/>
      <point x="405" y="1488" type="line"/>
      <point x="403" y="527" type="line"/>
      <point x="405" y="145" type="line"/>
      <point x="575" y="110" type="line"/>
      <point x="575" y="0" type="line"/>
    </contour>
  </outline>
</glyph>
<glyph name="m" format="2">
  <advance width="2004"/>
  <unicode hex="006D"/>
  <anchor x="1007" y="0" name="bottom"/>
  <anchor x="1007" y="1051" name="top"/>
  <outline>
    <contour>
      <point x="82" y="0" type="line"/>
      <point x="82" y="110" type="line"/>
      <point x="242" y="145" type="line"/>
      <point x="244" y="527" type="line"/>
      <point x="242" y="862" type="line"/>
      <point x="82" y="892" type="line"/>
      <point x="82" y="1016" type="line"/>
      <point x="331" y="1050" type="line"/>
      <point x="366" y="1023" type="line"/>
      <point x="391" y="904" type="line"/>
      <point x="452" y="979"/>
      <point x="651" y="1071"/>
      <point x="756" y="1071" type="qcurve" smooth="yes"/>
      <point x="885" y="1071"/>
      <point x="1034" y="976"/>
      <point x="1063" y="890" type="qcurve"/>
      <point x="1129" y="970"/>
      <point x="1335" y="1071"/>
      <point x="1447" y="1071" type="qcurve" smooth="yes"/>
      <point x="1609" y="1071"/>
      <point x="1772" y="922"/>
      <point x="1772" y="792" type="qcurve" smooth="yes"/>
      <point x="1772" y="708"/>
      <point x="1767" y="561"/>
      <point x="1768" y="526" type="qcurve" smooth="yes"/>
      <point x="1772" y="145" type="line"/>
      <point x="1932" y="110" type="line"/>
      <point x="1932" y="0" type="line"/>
      <point x="1453" y="0" type="line"/>
      <point x="1453" y="110" type="line"/>
      <point x="1623" y="145" type="line"/>
      <point x="1625" y="525" type="line"/>
      <point x="1625" y="750" type="line" smooth="yes"/>
      <point x="1625" y="828"/>
      <point x="1507" y="925"/>
      <point x="1406" y="925" type="qcurve" smooth="yes"/>
      <point x="1306" y="925"/>
      <point x="1136" y="846"/>
      <point x="1082" y="779" type="qcurve"/>
      <point x="1079" y="708"/>
      <point x="1078" y="546"/>
      <point x="1078" y="525" type="qcurve" smooth="yes"/>
      <point x="1082" y="145" type="line"/>
      <point x="1242" y="110" type="line"/>
      <point x="1242" y="0" type="line"/>
      <point x="763" y="0" type="line"/>
      <point x="763" y="110" type="line"/>
      <point x="933" y="145" type="line"/>
      <point x="935" y="525" type="line"/>
      <point x="935" y="750" type="line" smooth="yes"/>
      <point x="935" y="828"/>
      <point x="809" y="925"/>
      <point x="715" y="925" type="qcurve" smooth="yes"/>
      <point x="616" y="925"/>
      <point x="443" y="843"/>
      <point x="390" y="773" type="qcurve"/>
      <point x="389" y="525" type="line"/>
      <point x="391" y="145" type="line"/>
      <point x="540" y="110" type="line"/>
      <point x="540" y="0" type="line"/>
    </contour>
  </outline>
</glyph>
<glyph name="n" format="2">
  <advance width="1315"/>
  <unicode hex="006E"/>
  <anchor x="679" y="0" name="bottom"/>
  <anchor x="662" y="1051" name="top"/>
  <outline>
    <contour>
      <point x="82" y="0" type="line"/>
      <point x="82" y="110" type="line"/>
      <point x="242" y="145" type="line"/>
      <point x="244" y="530" type="line"/>
      <point x="242" y="862" type="line"/>
      <point x="82" y="892" type="line"/>
      <point x="82" y="1016" type="line"/>
      <point x="331" y="1050" type="line"/>
      <point x="366" y="1023" type="line"/>
      <point x="391" y="904" type="line"/>
      <point x="452" y="978"/>
      <point x="651" y="1071"/>
      <point x="758" y="1071" type="qcurve" smooth="yes"/>
      <point x="920" y="1071"/>
      <point x="1083" y="922"/>
      <point x="1083" y="792" type="qcurve" smooth="yes"/>
      <point x="1083" y="713"/>
      <point x="1078" y="557"/>
      <point x="1078" y="530" type="qcurve" smooth="yes"/>
      <point x="1082" y="145" type="line"/>
      <point x="1243" y="110" type="line"/>
      <point x="1243" y="0" type="line"/>
      <point x="763" y="0" type="line"/>
      <point x="763" y="110" type="line"/>
      <point x="933" y="145" type="line"/>
      <point x="935" y="528" type="line"/>
      <point x="935" y="750" type="line" smooth="yes"/>
      <point x="935" y="833"/>
      <point x="815" y="925"/>
      <point x="716" y="925" type="qcurve" smooth="yes"/>
      <point x="617" y="925"/>
      <point x="440" y="841"/>
      <point x="390" y="773" type="qcurve"/>
      <point x="389" y="528" type="line"/>
      <point x="391" y="145" type="line"/>
      <point x="541" y="110" type="line"/>
      <point x="541" y="0" type="line"/>
    </contour>
  </outline>
</glyph>
<glyph name="o" format="2">
  <advance width="1219"/>
  <unicode hex="006F"/>
  <anchor x="610" y="0" name="bottom"/>
  <anchor x="610" y="525" name="center"/>
  <anchor x="785" y="0" name="ogonek"/>
  <anchor x="610" y="1051" name="top"/>
  <anchor x="789" y="1051" name="topright"/>
  <anchor x="610" y="1051" name="GRKtop"/>
  <outline>
    <contour>
      <point x="82" y="525" type="qcurve" smooth="yes"/>
      <point x="82" y="753"/>
      <point x="372" y="1073"/>
      <point x="608" y="1073" type="qcurve" smooth="yes"/>
      <point x="844" y="1073"/>
      <point x="1137" y="774"/>
      <point x="1137" y="531" type="qcurve" smooth="yes"/>
      <point x="1137" y="305"/>
      <point x="849" y="-22"/>
      <point x="614" y="-22" type="qcurve" smooth="yes"/>
      <point x="377" y="-22"/>
      <point x="82" y="281"/>
    </contour>
    <contour>
      <point x="241" y="545" type="qcurve" smooth="yes"/>
      <point x="242" y="355"/>
      <point x="442" y="91"/>
      <point x="607" y="91" type="qcurve" smooth="yes"/>
      <point x="783" y="91"/>
      <point x="975" y="332"/>
      <point x="975" y="531" type="qcurve" smooth="yes"/>
      <point x="975" y="715"/>
      <point x="774" y="954"/>
      <point x="609" y="954" type="qcurve" smooth="yes"/>
      <point x="430" y="954"/>
      <point x="240" y="736"/>
    </contour>
  </outline>
</glyph>
<glyph name="p" format="2">
  <advance width="1257"/>
  <unicode hex="0070"/>
  <anchor x="640" y="0" name="bottom"/>
  <anchor x="640" y="1051" name="top"/>
  <outline>
    <contour>
      <point x="67" y="-480" type="line"/>
      <point x="67" y="-370" type="line"/>
      <point x="222" y="-335" type="line"/>
      <point x="224" y="460" type="line"/>
      <point x="222" y="863" type="line"/>
      <point x="62" y="893" type="line"/>
      <point x="62" y="1017" type="line"/>
      <point x="321" y="1051" type="line"/>
      <point x="356" y="1024" type="line"/>
      <point x="372" y="913" type="line"/>
      <point x="424" y="983"/>
      <point x="603" y="1071"/>
      <point x="728" y="1071" type="qcurve" smooth="yes"/>
      <point x="920" y="1071"/>
      <point x="1171" y="790"/>
      <point x="1171" y="554" type="qcurve" smooth="yes"/>
      <point x="1171" y="299"/>
      <point x="911" y="-12"/>
      <point x="692" y="-12" type="qcurve" smooth="yes"/>
      <point x="584" y="-12"/>
      <point x="417" y="48"/>
      <point x="369" y="89" type="qcurve"/>
      <point x="371" y="-335" type="line"/>
      <point x="535" y="-370" type="line"/>
      <point x="535" y="-480" type="line"/>
    </contour>
    <contour>
      <point x="369" y="241" type="line"/>
      <point x="407" y="181"/>
      <point x="572" y="94"/>
      <point x="684" y="94" type="qcurve" smooth="yes"/>
      <point x="835" y="94"/>
      <point x="1009" y="327"/>
      <point x="1009" y="529" type="qcurve" smooth="yes"/>
      <point x="1009" y="723"/>
      <point x="837" y="942"/>
      <point x="689" y="942" type="qcurve" smooth="yes"/>
      <point x="579" y="942"/>
      <point x="418" y="858"/>
      <point x="370" y="792" type="qcurve"/>
      <point x="367" y="461" type="line"/>
    </contour>
  </outline>
</glyph>
<glyph name="q" format="2">
  <advance width="1258"/>
  <unicode hex="0071"/>
  <anchor x="666" y="0" name="bottom"/>
  <anchor x="666" y="1051" name="top"/>
  <outline>
    <contour>
      <point x="86" y="502" type="qcurve" smooth="yes"/>
      <point x="86" y="763"/>
      <point x="374" y="1071"/>
      <point x="609" y="1071" type="qcurve" smooth="yes"/>
      <point x="698" y="1071"/>
      <point x="867" y="1019"/>
      <point x="919" y="979" type="qcurve"/>
      <point x="975" y="1061" type="line"/>
      <point x="1211" y="1026" type="line"/>
      <point x="1211" y="903" type="line"/>
      <point x="1050" y="869" type="line"/>
      <point x="1044" y="449" type="line"/>
      <point x="1046" y="-335" type="line"/>
      <point x="1210" y="-370" type="line"/>
      <point x="1210" y="-480" type="line"/>
      <point x="711" y="-480" type="line"/>
      <point x="711" y="-370" type="line"/>
      <point x="896" y="-335" type="line"/>
      <point x="902" y="138" type="line"/>
      <point x="845" y="72"/>
      <point x="664" y="-9"/>
      <point x="544" y="-9" type="qcurve" smooth="yes"/>
      <point x="349" y="-9"/>
      <point x="86" y="267"/>
    </contour>
    <contour>
      <point x="247" y="528" type="qcurve" smooth="yes"/>
      <point x="247" y="335"/>
      <point x="433" y="120"/>
      <point x="582" y="120" type="qcurve" smooth="yes"/>
      <point x="689" y="120"/>
      <point x="852" y="198"/>
      <point x="903" y="262" type="qcurve"/>
      <point x="905" y="847" type="line"/>
      <point x="864" y="901"/>
      <point x="719" y="965"/>
      <point x="611" y="965" type="qcurve" smooth="yes"/>
      <point x="450" y="965"/>
      <point x="247" y="718"/>
    </contour>
  </outline>
</glyph>
<glyph name="r" format="2">
  <advance width="929"/>
  <unicode hex="0072"/>
  <anchor x="436" y="0" name="bottom"/>
  <anchor x="490" y="1051" name="top"/>
  <outline>
    <contour>
      <point x="82" y="0" type="line"/>
      <point x="82" y="110" type="line"/>
      <point x="242" y="145" type="line"/>
      <point x="244" y="548" type="line"/>
      <point x="242" y="862" type="line"/>
      <point x="82" y="892" type="line"/>
      <point x="82" y="1016" type="line"/>
      <point x="331" y="1050" type="line"/>
      <point x="366" y="1023" type="line"/>
      <point x="391" y="910" type="line"/>
      <point x="454" y="968"/>
      <point x="670" y="1050"/>
      <point x="787" y="1050" type="qcurve" smooth="yes"/>
      <point x="887" y="1050" type="line"/>
      <point x="887" y="746" type="line"/>
      <point x="773" y="746" type="line"/>
      <point x="739" y="908" type="line"/>
      <point x="660" y="908"/>
      <point x="454" y="848"/>
      <point x="389" y="772" type="qcurve"/>
      <point x="389" y="546" type="line"/>
      <point x="391" y="145" type="line"/>
      <point x="561" y="110" type="line"/>
      <point x="561" y="0" type="line"/>
    </contour>
  </outline>
</glyph>
<glyph name="s" format="2">
  <advance width="939"/>
  <unicode hex="0073"/>
  <anchor x="498" y="0" name="bottom"/>
  <anchor x="446" y="1051" name="top"/>
  <outline>
    <contour>
      <point x="69" y="-11" type="line"/>
      <point x="69" y="362" type="line"/>
      <point x="182" y="362" type="line"/>
      <point x="194" y="282" type="line" smooth="yes"/>
      <point x="211" y="196"/>
      <point x="368" y="91"/>
      <point x="494" y="91" type="qcurve" smooth="yes"/>
      <point x="602" y="91"/>
      <point x="738" y="181"/>
      <point x="738" y="273" type="qcurve" smooth="yes"/>
      <point x="738" y="363"/>
      <point x="596" y="457"/>
      <point x="415" y="510" type="qcurve" smooth="yes"/>
      <point x="241" y="561"/>
      <point x="107" y="683"/>
      <point x="107" y="798" type="qcurve" smooth="yes"/>
      <point x="107" y="921"/>
      <point x="281" y="1073"/>
      <point x="439" y="1073" type="qcurve" smooth="yes"/>
      <point x="518" y="1073"/>
      <point x="639" y="1040"/>
      <point x="678" y="1010" type="qcurve"/>
      <point x="694" y="1061" type="line"/>
      <point x="791" y="1061" type="line"/>
      <point x="791" y="732" type="line"/>
      <point x="679" y="732" type="line"/>
      <point x="662" y="846" type="line" smooth="yes"/>
      <point x="654" y="890"/>
      <point x="528" y="960"/>
      <point x="438" y="960" type="qcurve" smooth="yes"/>
      <point x="338" y="960"/>
      <point x="241" y="890"/>
      <point x="241" y="825" type="qcurve" smooth="yes"/>
      <point x="241" y="760"/>
      <point x="337" y="687"/>
      <point x="519" y="633" type="qcurve" smooth="yes"/>
      <point x="687" y="583"/>
      <point x="873" y="441"/>
      <point x="873" y="300" type="qcurve" smooth="yes"/>
      <point x="873" y="153"/>
      <point x="669" y="-21"/>
      <point x="505" y="-21" type="qcurve" smooth="yes"/>
      <point x="397" y="-21"/>
      <point x="257" y="23"/>
      <point x="205" y="73" type="qcurve"/>
      <point x="166" y="-11" type="line"/>
    </contour>
  </outline>
</glyph>
<glyph name="t" format="2">
  <advance width="702"/>
  <unicode hex="0074"/>
  <anchor x="342" y="0" name="bottom"/>
  <anchor x="326" y="622" name="center"/>
  <anchor x="340" y="1179" name="top"/>
  <anchor x="552" y="1000" name="topright"/>
  <outline>
    <contour>
      <point x="44" y="927" type="line"/>
      <point x="44" y="1004" type="line"/>
      <point x="155" y="1031"/>
      <point x="289" y="1175"/>
      <point x="318" y="1238" type="qcurve"/>
      <point x="360" y="1238" type="line"/>
      <point x="389" y="1204" type="line"/>
      <point x="384" y="1032" type="line"/>
      <point x="621" y="1032" type="line"/>
      <point x="621" y="927" type="line"/>
      <point x="382" y="927" type="line"/>
      <point x="373" y="542" type="line"/>
      <point x="377" y="218" type="line" smooth="yes"/>
      <point x="377" y="153"/>
      <point x="442" y="111"/>
      <point x="536" y="111" type="qcurve" smooth="yes"/>
      <point x="618" y="111" type="line"/>
      <point x="618" y="29" type="line"/>
      <point x="371" y="-8" type="line"/>
      <point x="294" y="-8"/>
      <point x="226" y="78"/>
      <point x="226" y="168" type="qcurve" smooth="yes"/>
      <point x="226" y="542" type="line"/>
      <point x="226" y="915" type="line"/>
    </contour>
  </outline>
</glyph>
<glyph name="u" format="2">
  <advance width="1310"/>
  <unicode hex="0075"/>
  <anchor x="644" y="0" name="bottom"/>
  <anchor x="1108" y="20" name="ogonek"/>
  <anchor x="644" y="1051" name="top"/>
  <anchor x="1053" y="1051" name="topright"/>
  <outline>
    <contour>
      <point x="62" y="893" type="line"/>
      <point x="62" y="1017" type="line"/>
      <point x="311" y="1051" type="line"/>
      <point x="346" y="1051" type="line"/>
      <point x="371" y="1015" type="line"/>
      <point x="369" y="506" type="line"/>
      <point x="369" y="291" type="line" smooth="yes"/>
      <point x="369" y="225"/>
      <point x="486" y="116"/>
      <point x="595" y="116" type="qcurve" smooth="yes"/>
      <point x="684" y="116"/>
      <point x="870" y="192"/>
      <point x="930" y="268" type="qcurve"/>
      <point x="930" y="506" type="line"/>
      <point x="929" y="863" type="line"/>
      <point x="779" y="893" type="line"/>
      <point x="779" y="1017" type="line"/>
      <point x="1018" y="1051" type="line"/>
      <point x="1053" y="1051" type="line"/>
      <point x="1078" y="1015" type="line"/>
      <point x="1076" y="503" type="line"/>
      <point x="1078" y="173" type="line"/>
      <point x="1238" y="143" type="line"/>
      <point x="1238" y="34" type="line"/>
      <point x="989" y="0" type="line"/>
      <point x="954" y="27" type="line"/>
      <point x="930" y="147" type="line"/>
      <point x="866" y="72"/>
      <point x="655" y="-21"/>
      <point x="542" y="-21" type="qcurve" smooth="yes"/>
      <point x="382" y="-21"/>
      <point x="222" y="128"/>
      <point x="222" y="258" type="qcurve" smooth="yes"/>
      <point x="222" y="330"/>
      <point x="226" y="478"/>
      <point x="226" y="503" type="qcurve" smooth="yes"/>
      <point x="222" y="863" type="line"/>
    </contour>
  </outline>
</glyph>
<glyph name="v" format="2">
  <advance width="1129"/>
  <unicode hex="0076"/>
  <anchor x="557" y="0" name="bottom"/>
  <anchor x="555" y="1051" name="top"/>
  <outline>
    <contour>
      <point x="-4" y="931" type="line"/>
      <point x="-4" y="1051" type="line"/>
      <point x="423" y="1051" type="line"/>
      <point x="423" y="931" type="line"/>
      <point x="289" y="893" type="line"/>
      <point x="420" y="557" type="line"/>
      <point x="521" y="298" type="line"/>
      <point x="563" y="182" type="line"/>
      <point x="573" y="182" type="line"/>
      <point x="615" y="298" type="line"/>
      <point x="719" y="566" type="line"/>
      <point x="848" y="901" type="line"/>
      <point x="710" y="931" type="line"/>
      <point x="710" y="1051" type="line"/>
      <point x="1153" y="1051" type="line"/>
      <point x="1153" y="931" type="line"/>
      <point x="981" y="896" type="line"/>
      <point x="828" y="525" type="line"/>
      <point x="619" y="-8" type="line"/>
      <point x="508" y="-8" type="line"/>
      <point x="301" y="509" type="line"/>
      <point x="138" y="896" type="line"/>
    </contour>
  </outline>
</glyph>
<glyph name="w" format="2">
  <advance width="1760"/>
  <unicode hex="0077"/>
  <anchor x="739" y="0" name="bottom"/>
  <anchor x="851" y="1051" name="top"/>
  <outline>
    <contour>
      <point x="493" y="-8" type="line"/>
      <point x="297" y="495" type="line"/>
      <point x="138" y="896" type="line"/>
      <point x="-4" y="931" type="line"/>
      <point x="-4" y="1051" type="line"/>
      <point x="423" y="1051" type="line"/>
      <point x="423" y="931" type="line"/>
      <point x="288" y="893" type="line"/>
      <point x="419" y="541" type="line"/>
      <point x="514" y="290" type="line"/>
      <point x="552" y="176" type="line"/>
      <point x="563" y="176" type="line"/>
      <point x="604" y="290" type="line"/>
      <point x="694" y="513" type="line"/>
      <point x="804" y="796" type="line"/>
      <point x="761" y="897" type="line"/>
      <point x="627" y="931" type="line"/>
      <point x="627" y="1051" type="line"/>
      <point x="1048" y="1051" type="line"/>
      <point x="1048" y="931" type="line"/>
      <point x="913" y="893" type="line"/>
      <point x="1072" y="504" type="line"/>
      <point x="1161" y="289" type="line"/>
      <point x="1204" y="175" type="line"/>
      <point x="1214" y="175" type="line"/>
      <point x="1254" y="289" type="line"/>
      <point x="1358" y="556" type="line"/>
      <point x="1491" y="901" type="line"/>
      <point x="1352" y="931" type="line"/>
      <point x="1352" y="1051" type="line"/>
      <point x="1784" y="1051" type="line"/>
      <point x="1784" y="931" type="line"/>
      <point x="1612" y="896" type="line"/>
      <point x="1453" y="503" type="line"/>
      <point x="1255" y="-8" type="line"/>
      <point x="1148" y="-8" type="line"/>
      <point x="920" y="536" type="line"/>
      <point x="876" y="651" type="line"/>
      <point x="866" y="651" type="line"/>
      <point x="824" y="536" type="line"/>
      <point x="599" y="-8" type="line"/>
    </contour>
  </outline>
</glyph>
<glyph name="x" format="2">
  <advance width="1134"/>
  <unicode hex="0078"/>
  <anchor x="556" y="0" name="bottom"/>
  <anchor x="556" y="1051" name="top"/>
  <outline>
    <contour>
      <point x="22" y="0" type="line"/>
      <point x="22" y="110" type="line"/>
      <point x="214" y="145" type="line"/>
      <point x="482" y="515" type="line"/>
      <point x="179" y="896" type="line"/>
      <point x="26" y="931" type="line"/>
      <point x="26" y="1051" type="line"/>
      <point x="458" y="1051" type="line"/>
      <point x="458" y="932" type="line"/>
      <point x="342" y="900" type="line"/>
      <point x="483" y="723" type="line"/>
      <point x="558" y="624" type="line"/>
      <point x="568" y="624" type="line"/>
      <point x="635" y="723" type="line"/>
      <point x="764" y="905" type="line"/>
      <point x="633" y="931" type="line"/>
      <point x="633" y="1051" type="line"/>
      <point x="1075" y="1051" type="line"/>
      <point x="1075" y="931" type="line"/>
      <point x="893" y="896" type="line"/>
      <point x="633" y="539" type="line"/>
      <point x="950" y="145" type="line"/>
      <point x="1113" y="110" type="line"/>
      <point x="1113" y="0" type="line"/>
      <point x="671" y="0" type="line"/>
      <point x="671" y="110" type="line"/>
      <point x="787" y="140" type="line"/>
      <point x="632" y="333" type="line"/>
      <point x="557" y="430" type="line"/>
      <point x="547" y="430" type="line"/>
      <point x="483" y="333" type="line"/>
      <point x="344" y="136" type="line"/>
      <point x="465" y="110" type="line"/>
      <point x="465" y="0" type="line"/>
    </contour>
  </outline>
</glyph>
<glyph name="y" format="2">
  <advance width="1118"/>
  <unicode hex="0079"/>
  <anchor x="831" y="0" name="bottom"/>
  <anchor x="561" y="1051" name="top"/>
  <outline>
    <contour>
      <point x="4" y="931" type="line"/>
      <point x="4" y="1051" type="line"/>
      <point x="432" y="1051" type="line"/>
      <point x="432" y="931" type="line"/>
      <point x="298" y="893" type="line"/>
      <point x="426" y="562" type="line"/>
      <point x="521" y="310" type="line"/>
      <point x="562" y="194" type="line"/>
      <point x="572" y="194" type="line"/>
      <point x="613" y="310" type="line"/>
      <point x="709" y="572" type="line"/>
      <point x="835" y="901" type="line"/>
      <point x="677" y="931" type="line"/>
      <point x="677" y="1051" type="line"/>
      <point x="1142" y="1051" type="line"/>
      <point x="1142" y="931" type="line"/>
      <point x="970" y="896" type="line"/>
      <point x="816" y="529" type="line"/>
      <point x="490" y="-287" type="line" smooth="yes"/>
      <point x="445" y="-397"/>
      <point x="300" y="-492"/>
      <point x="202" y="-492" type="qcurve"/>
      <point x="48" y="-460" type="line"/>
      <point x="48" y="-367" type="line"/>
      <point x="145" y="-367" type="line" smooth="yes"/>
      <point x="204" y="-367"/>
      <point x="356" y="-305"/>
      <point x="402" y="-193" type="qcurve" smooth="yes"/>
      <point x="496" y="36" type="line"/>
      <point x="496" y="36" type="line"/>
      <point x="306" y="515" type="line"/>
      <point x="146" y="896" type="line"/>
    </contour>
  </outline>
</glyph>
<glyph name="z" format="2">
  <advance width="959"/>
  <unicode hex="007A"/>
  <anchor x="490" y="0" name="bottom"/>
  <anchor x="490" y="1051" name="top"/>
  <outline>
    <contour>
      <point x="50" y="0" type="line"/>
      <point x="50" y="90" type="line"/>
      <point x="698" y="932" type="line"/>
      <point x="219" y="932" type="line"/>
      <point x="192" y="756" type="line"/>
      <point x="78" y="756" type="line"/>
      <point x="78" y="1051" type="line"/>
      <point x="891" y="1051" type="line"/>
      <point x="891" y="962" type="line"/>
      <point x="232" y="118" type="line"/>
      <point x="766" y="118" type="line"/>
      <point x="793" y="294" type="line"/>
      <point x="907" y="294" type="line"/>
      <point x="907" y="0" type="line"/>
    </contour>
  </outline>
</glyph>
<glyph name="braceleft" format="2">
  <advance width="759"/>
  <unicode hex="007B"/>
  <outline>
    <contour>
      <point x="78" y="480" type="line"/>
      <point x="78" y="590" type="line"/>
      <point x="209" y="600" type="line" smooth="yes"/>
      <point x="265" y="604"/>
      <point x="314" y="661"/>
      <point x="314" y="717" type="qcurve" smooth="yes"/>
      <point x="314" y="835"/>
      <point x="198" y="1069"/>
      <point x="198" y="1184" type="qcurve" smooth="yes"/>
      <point x="198" y="1343"/>
      <point x="367" y="1510"/>
      <point x="517" y="1510" type="qcurve" smooth="yes"/>
      <point x="585" y="1510"/>
      <point x="690" y="1503"/>
      <point x="731" y="1500" type="qcurve"/>
      <point x="731" y="1372" type="line"/>
      <point x="671" y="1374"/>
      <point x="622" y="1374"/>
      <point x="566" y="1374" type="qcurve" smooth="yes"/>
      <point x="472" y="1374"/>
      <point x="360" y="1282"/>
      <point x="360" y="1186" type="qcurve" smooth="yes"/>
      <point x="360" y="1086"/>
      <point x="451" y="873"/>
      <point x="451" y="780" type="qcurve" smooth="yes"/>
      <point x="451" y="691"/>
      <point x="393" y="572"/>
      <point x="346" y="550" type="qcurve"/>
      <point x="404" y="516"/>
      <point x="452" y="394"/>
      <point x="452" y="322" type="qcurve" smooth="yes"/>
      <point x="452" y="229"/>
      <point x="327" y="-69"/>
      <point x="327" y="-170" type="qcurve" smooth="yes"/>
      <point x="327" y="-266"/>
      <point x="444" y="-360"/>
      <point x="537" y="-360" type="qcurve" smooth="yes"/>
      <point x="594" y="-360"/>
      <point x="666" y="-360"/>
      <point x="725" y="-358" type="qcurve"/>
      <point x="725" y="-484" type="line"/>
      <point x="685" y="-487"/>
      <point x="593" y="-495"/>
      <point x="516" y="-495" type="qcurve" smooth="yes"/>
      <point x="364" y="-495"/>
      <point x="169" y="-327"/>
      <point x="169" y="-168" type="qcurve" smooth="yes"/>
      <point x="169" y="-50"/>
      <point x="313" y="246"/>
      <point x="313" y="364" type="qcurve"/>
      <point x="313" y="480" type="line"/>
    </contour>
  </outline>
</glyph>
<glyph name="braceright" format="2">
  <advance width="758"/>
  <unicode hex="007D"/>
  <outline>
    <contour>
      <point x="33" y="-484" type="qcurve"/>
      <point x="33" y="-358" type="line"/>
      <point x="92" y="-360"/>
      <point x="145" y="-360"/>
      <point x="201" y="-360" type="qcurve" smooth="yes"/>
      <point x="294" y="-360"/>
      <point x="407" y="-266"/>
      <point x="407" y="-170" type="qcurve" smooth="yes"/>
      <point x="407" y="-70"/>
      <point x="306" y="229"/>
      <point x="306" y="322" type="qcurve" smooth="yes"/>
      <point x="306" y="394"/>
      <point x="354" y="516"/>
      <point x="412" y="550" type="qcurve"/>
      <point x="364" y="572"/>
      <point x="307" y="691"/>
      <point x="307" y="780" type="qcurve" smooth="yes"/>
      <point x="307" y="873"/>
      <point x="414" y="1086"/>
      <point x="414" y="1186" type="qcurve" smooth="yes"/>
      <point x="414" y="1282"/>
      <point x="306" y="1374"/>
      <point x="213" y="1374" type="qcurve" smooth="yes"/>
      <point x="157" y="1374"/>
      <point x="87" y="1374"/>
      <point x="28" y="1372" type="qcurve"/>
      <point x="28" y="1500" type="line"/>
      <point x="69" y="1503"/>
      <point x="158" y="1510"/>
      <point x="236" y="1510" type="qcurve" smooth="yes"/>
      <point x="408" y="1510"/>
      <point x="573" y="1343"/>
      <point x="573" y="1184" type="qcurve" smooth="yes"/>
      <point x="573" y="1069"/>
      <point x="444" y="835"/>
      <point x="444" y="717" type="qcurve" smooth="yes"/>
      <point x="444" y="661"/>
      <point x="493" y="604"/>
      <point x="549" y="600" type="qcurve" smooth="yes"/>
      <point x="680" y="590" type="line"/>
      <point x="680" y="480" type="line"/>
      <point x="445" y="480" type="line"/>
      <point x="445" y="364" type="line"/>
      <point x="445" y="246"/>
      <point x="567" y="-50"/>
      <point x="567" y="-168" type="qcurve" smooth="yes"/>
      <point x="567" y="-327"/>
      <point x="395" y="-495"/>
      <point x="223" y="-495" type="qcurve" smooth="yes"/>
      <point x="145" y="-495"/>
      <point x="74" y="-487"/>
    </contour>
  </outline>
</glyph>
<glyph name="asciitilde" format="2">
  <advance width="1199"/>
  <unicode hex="007E"/>
  <outline>
    <contour>
      <point x="36" y="602" type="line"/>
      <point x="98" y="695"/>
      <point x="312" y="797"/>
      <point x="409" y="797" type="qcurve"/>
      <point x="837" y="663" type="line"/>
      <point x="897" y="663"/>
      <point x="1022" y="746"/>
      <point x="1069" y="814" type="qcurve"/>
      <point x="1163" y="761" type="line"/>
      <point x="1110" y="652"/>
      <point x="929" y="525"/>
      <point x="797" y="525" type="qcurve"/>
      <point x="391" y="652" type="line"/>
      <point x="319" y="652"/>
      <point x="165" y="588"/>
      <point x="108" y="536" type="qcurve"/>
    </contour>
  </outline>
</glyph>
<glyph name="exclamdown" format="2">
  <advance width="640"/>
  <unicode hex="00A1"/>
  <outline>
    <contour>
      <point x="464" y="1205" type="qcurve" smooth="yes"/>
      <point x="464" y="1147"/>
      <point x="383" y="1061"/>
      <point x="320" y="1061" type="qcurve" smooth="yes"/>
      <point x="257" y="1061"/>
      <point x="176" y="1147"/>
      <point x="176" y="1205" type="qcurve" smooth="yes"/>
      <point x="176" y="1262"/>
      <point x="257" y="1348"/>
      <point x="320" y="1348" type="qcurve" smooth="yes"/>
      <point x="383" y="1348"/>
      <point x="464" y="1262"/>
    </contour>
    <contour>
      <point x="414" y="-95" type="line" smooth="yes"/>
      <point x="417" y="-163"/>
      <point x="377" y="-250"/>
      <point x="322" y="-251" type="qcurve" smooth="yes"/>
      <point x="267" y="-252"/>
      <point x="223" y="-165"/>
      <point x="226" y="-96" type="qcurve" smooth="yes"/>
      <point x="240" y="218" type="line"/>
      <point x="261" y="526" type="line"/>
      <point x="274" y="891" type="line"/>
      <point x="368" y="891" type="line"/>
      <point x="381" y="526" type="line"/>
      <point x="400" y="218" type="line"/>
    </contour>
  </outline>
</glyph>
<glyph name="cent" format="2">
  <advance width="1060"/>
  <unicode hex="00A2"/>
  <outline>
    <contour>
      <point x="82" y="480" type="qcurve" smooth="yes"/>
      <point x="82" y="714"/>
      <point x="353" y="1022"/>
      <point x="589" y="1022" type="qcurve" smooth="yes"/>
      <point x="658" y="1022"/>
      <point x="791" y="990"/>
      <point x="825" y="965" type="qcurve"/>
      <point x="857" y="1019" type="line"/>
      <point x="945" y="990" type="line"/>
      <point x="961" y="664" type="line"/>
      <point x="863" y="647" type="line"/>
      <point x="842" y="715" type="line" smooth="yes"/>
      <point x="817" y="794"/>
      <point x="666" y="911"/>
      <point x="583" y="911" type="qcurve" smooth="yes"/>
      <point x="428" y="911"/>
      <point x="240" y="711"/>
      <point x="240" y="517" type="qcurve" smooth="yes"/>
      <point x="240" y="315"/>
      <point x="461" y="108"/>
      <point x="652" y="108" type="qcurve" smooth="yes"/>
      <point x="759" y="108"/>
      <point x="916" y="177"/>
      <point x="983" y="235" type="qcurve"/>
      <point x="1034" y="175" type="line"/>
      <point x="978" y="103"/>
      <point x="768" y="-22"/>
      <point x="618" y="-22" type="qcurve" smooth="yes"/>
      <point x="376" y="-22"/>
      <point x="82" y="246"/>
    </contour>
    <contour>
      <point x="506" y="-210" type="line"/>
      <point x="506" y="52" type="line"/>
      <point x="533" y="52" type="line"/>
      <point x="533" y="520" type="line"/>
      <point x="637" y="478" type="line"/>
      <point x="637" y="52" type="line"/>
      <point x="666" y="52" type="line"/>
      <point x="666" y="-160" type="line"/>
    </contour>
    <contour>
      <point x="505" y="1170" type="line"/>
      <point x="665" y="1209" type="line"/>
      <point x="665" y="988" type="line"/>
      <point x="637" y="988" type="line"/>
      <point x="637" y="478" type="line"/>
      <point x="533" y="520" type="line"/>
      <point x="533" y="988" type="line"/>
      <point x="505" y="988" type="line"/>
    </contour>
  </outline>
</glyph>
<glyph name="sterling" format="2">
  <advance width="1157"/>
  <unicode hex="00A3"/>
  <outline>
    <contour>
      <point x="644" y="547" type="qcurve" smooth="yes"/>
      <point x="644" y="414"/>
      <point x="486" y="185"/>
      <point x="389" y="141" type="qcurve"/>
      <point x="397" y="108" type="line"/>
      <point x="851" y="108" type="line"/>
      <point x="985" y="372" type="line"/>
      <point x="1097" y="372" type="line"/>
      <point x="998" y="0" type="line"/>
      <point x="88" y="0" type="line"/>
      <point x="28" y="100" type="line"/>
      <point x="55" y="125" type="line"/>
      <point x="269" y="117"/>
      <point x="490" y="354"/>
      <point x="490" y="453" type="qcurve" smooth="yes"/>
      <point x="490" y="535"/>
      <point x="406" y="685"/>
      <point x="350" y="756" type="qcurve" smooth="yes"/>
      <point x="275" y="851"/>
      <point x="132" y="1045"/>
      <point x="132" y="1148" type="qcurve" smooth="yes"/>
      <point x="132" y="1280"/>
      <point x="381" y="1501"/>
      <point x="570" y="1501" type="qcurve" smooth="yes"/>
      <point x="735" y="1501"/>
      <point x="954" y="1405"/>
      <point x="1037" y="1328" type="qcurve"/>
      <point x="957" y="1222" type="line"/>
      <point x="891" y="1279"/>
      <point x="707" y="1371"/>
      <point x="578" y="1371" type="qcurve" smooth="yes"/>
      <point x="431" y="1371"/>
      <point x="281" y="1246"/>
      <point x="281" y="1163" type="qcurve" smooth="yes"/>
      <point x="281" y="1087"/>
      <point x="407" y="923"/>
      <point x="480" y="835" type="qcurve" smooth="yes"/>
      <point x="543" y="759"/>
      <point x="644" y="609"/>
    </contour>
    <contour>
      <point x="190" y="571" type="line"/>
      <point x="166" y="707" type="line"/>
      <point x="959" y="707" type="line"/>
      <point x="929" y="571" type="line"/>
    </contour>
  </outline>
</glyph>
<glyph name="yen" format="2">
  <advance width="1362"/>
  <unicode hex="00A5"/>
  <outline>
    <contour>
      <point x="234" y="631" type="line"/>
      <point x="204" y="757" type="line"/>
      <point x="1156" y="757" type="line"/>
      <point x="1126" y="631" type="line"/>
    </contour>
    <contour>
      <point x="605" y="658" type="line"/>
      <point x="399" y="987" type="line"/>
      <point x="164" y="1360" type="line"/>
      <point x="8" y="1386" type="line"/>
      <point x="8" y="1500" type="line"/>
      <point x="496" y="1500" type="line"/>
      <point x="496" y="1386" type="line"/>
      <point x="347" y="1351" type="line"/>
      <point x="521" y="1056" type="line"/>
      <point x="700" y="787" type="line"/>
      <point x="878" y="1078" type="line"/>
      <point x="1040" y="1358" type="line"/>
      <point x="860" y="1386" type="line"/>
      <point x="860" y="1500" type="line"/>
      <point x="1354" y="1500" type="line"/>
      <point x="1354" y="1386" type="line"/>
      <point x="1194" y="1359" type="line"/>
      <point x="974" y="1011" type="line"/>
      <point x="759" y="661" type="line"/>
      <point x="761" y="135" type="line"/>
      <point x="979" y="100" type="line"/>
      <point x="979" y="0" type="line"/>
      <point x="382" y="0" type="line"/>
      <point x="382" y="100" type="line"/>
      <point x="603" y="135" type="line"/>
    </contour>
    <contour>
      <point x="294" y="331" type="line"/>
      <point x="264" y="457" type="line"/>
      <point x="1096" y="457" type="line"/>
      <point x="1066" y="331" type="line"/>
    </contour>
  </outline>
</glyph>
<glyph name="section" format="2">
  <advance width="1124"/>
  <unicode hex="00A7"/>
  <outline>
    <contour>
      <point x="1003" y="137" type="qcurve" smooth="yes"/>
      <point x="1003" y="-35"/>
      <point x="789" y="-253"/>
      <point x="610" y="-253" type="qcurve" smooth="yes"/>
      <point x="497" y="-253"/>
      <point x="331" y="-187"/>
      <point x="280" y="-135" type="qcurve"/>
      <point x="239" y="-235" type="line"/>
      <point x="143" y="-235" type="line"/>
      <point x="143" y="196" type="line"/>
      <point x="249" y="196" type="line"/>
      <point x="267" y="103" type="line" smooth="yes"/>
      <point x="292" y="-27"/>
      <point x="473" y="-134"/>
      <point x="597" y="-134" type="qcurve" smooth="yes"/>
      <point x="732" y="-134"/>
      <point x="851" y="-9"/>
      <point x="851" y="95" type="qcurve" smooth="yes"/>
      <point x="851" y="220"/>
      <point x="689" y="334"/>
      <point x="518" y="401" type="qcurve" smooth="yes"/>
      <point x="359" y="464"/>
      <point x="185" y="634"/>
      <point x="185" y="776" type="qcurve" smooth="yes"/>
      <point x="185" y="860"/>
      <point x="253" y="1003"/>
      <point x="313" y="1049" type="qcurve"/>
      <point x="272" y="1086"/>
      <point x="237" y="1179"/>
      <point x="237" y="1239" type="qcurve" smooth="yes"/>
      <point x="237" y="1349"/>
      <point x="406" y="1512"/>
      <point x="559" y="1512" type="qcurve" smooth="yes"/>
      <point x="636" y="1512"/>
      <point x="744" y="1472"/>
      <point x="782" y="1449" type="qcurve"/>
      <point x="796" y="1480" type="line"/>
      <point x="887" y="1480" type="line"/>
      <point x="887" y="1184" type="line"/>
      <point x="781" y="1184" type="line"/>
      <point x="760" y="1297" type="line" smooth="yes"/>
      <point x="752" y="1341"/>
      <point x="645" y="1401"/>
      <point x="563" y="1401" type="qcurve" smooth="yes"/>
      <point x="472" y="1401"/>
      <point x="389" y="1329"/>
      <point x="389" y="1270" type="qcurve" smooth="yes"/>
      <point x="389" y="1208"/>
      <point x="476" y="1141"/>
      <point x="633" y="1097" type="qcurve" smooth="yes"/>
      <point x="787" y="1054"/>
      <point x="972" y="912"/>
      <point x="972" y="767" type="qcurve" smooth="yes"/>
      <point x="972" y="668"/>
      <point x="853" y="516"/>
      <point x="749" y="485" type="qcurve"/>
      <point x="862" y="430"/>
      <point x="1003" y="268"/>
    </contour>
    <contour>
      <point x="325" y="810" type="qcurve" smooth="yes"/>
      <point x="325" y="732"/>
      <point x="435" y="615"/>
      <point x="595" y="551" type="qcurve"/>
      <point x="695" y="551"/>
      <point x="828" y="657"/>
      <point x="828" y="740" type="qcurve" smooth="yes"/>
      <point x="828" y="824"/>
      <point x="690" y="899"/>
      <point x="526" y="947" type="qcurve" smooth="yes"/>
      <point x="499" y="955"/>
      <point x="452" y="971"/>
      <point x="431" y="980" type="qcurve"/>
      <point x="381" y="958"/>
      <point x="325" y="870"/>
    </contour>
  </outline>
</glyph>
<glyph name="ordfeminine" format="2">
  <advance width="981"/>
  <unicode hex="00AA"/>
  <outline>
    <contour>
      <point x="87" y="891" type="qcurve" smooth="yes"/>
      <point x="87" y="1006"/>
      <point x="378" y="1182"/>
      <point x="663" y="1215" type="qcurve"/>
      <point x="671" y="1128" type="line"/>
      <point x="480" y="1104"/>
      <point x="245" y="1012"/>
      <point x="245" y="899" type="qcurve" smooth="yes"/>
      <point x="245" y="837"/>
      <point x="336" y="782"/>
      <point x="394" y="782" type="qcurve" smooth="yes"/>
      <point x="461" y="782"/>
      <point x="607" y="860"/>
      <point x="636" y="905" type="qcurve"/>
      <point x="638" y="1202" type="line" smooth="yes"/>
      <point x="639" y="1351"/>
      <point x="550" y="1439"/>
      <point x="467" y="1439" type="qcurve" smooth="yes"/>
      <point x="388" y="1439"/>
      <point x="288" y="1404"/>
      <point x="259" y="1383" type="qcurve"/>
      <point x="277" y="1365"/>
      <point x="299" y="1328"/>
      <point x="300" y="1311" type="qcurve" smooth="yes"/>
      <point x="307" y="1278"/>
      <point x="268" y="1232"/>
      <point x="231" y="1232" type="qcurve" smooth="yes"/>
      <point x="194" y="1232"/>
      <point x="148" y="1297"/>
      <point x="148" y="1352" type="qcurve" smooth="yes"/>
      <point x="148" y="1430"/>
      <point x="340" y="1543"/>
      <point x="477" y="1543" type="qcurve" smooth="yes"/>
      <point x="630" y="1543"/>
      <point x="784" y="1386"/>
      <point x="786" y="1194" type="qcurve" smooth="yes"/>
      <point x="791" y="780" type="line"/>
      <point x="921" y="751" type="line"/>
      <point x="921" y="684" type="line"/>
      <point x="703" y="684" type="line"/>
      <point x="659" y="734" type="line"/>
      <point x="649" y="791" type="line"/>
      <point x="608" y="748"/>
      <point x="432" y="670"/>
      <point x="337" y="670" type="qcurve" smooth="yes"/>
      <point x="226" y="670"/>
      <point x="87" y="803"/>
    </contour>
  </outline>
</glyph>
<glyph name="logicalnot" format="2">
  <advance width="1170"/>
  <unicode hex="00AC"/>
  <outline>
    <contour>
      <point x="86" y="699" type="line"/>
      <point x="1061" y="699" type="line"/>
      <point x="1061" y="200" type="line"/>
      <point x="901" y="200" type="line"/>
      <point x="901" y="565" type="line"/>
      <point x="86" y="565" type="line"/>
    </contour>
  </outline>
</glyph>
<glyph name="plusminus" format="2">
  <advance width="1060"/>
  <unicode hex="00B1"/>
  <outline>
    <contour>
      <point x="98" y="556" type="line"/>
      <point x="98" y="708" type="line"/>
      <point x="962" y="708" type="line"/>
      <point x="962" y="556" type="line"/>
    </contour>
    <contour>
      <point x="450" y="238" type="line"/>
      <point x="450" y="1064" type="line"/>
      <point x="610" y="1064" type="line"/>
      <point x="610" y="238" type="line"/>
    </contour>
    <contour>
      <point x="98" y="26" type="line"/>
      <point x="98" y="171" type="line"/>
      <point x="962" y="171" type="line"/>
      <point x="962" y="26" type="line"/>
    </contour>
  </outline>
</glyph>
<glyph name="twosuperior" format="2">
  <advance width="830"/>
  <unicode hex="00B2"/>
  <outline>
    <contour>
      <point x="97" y="671" type="line"/>
      <point x="95" y="777" type="line"/>
      <point x="111" y="851"/>
      <point x="224" y="1007"/>
      <point x="368" y="1083" type="qcurve" smooth="yes"/>
      <point x="486" y="1145"/>
      <point x="550" y="1233"/>
      <point x="547" y="1298" type="qcurve" smooth="yes"/>
      <point x="544" y="1355"/>
      <point x="461" y="1409"/>
      <point x="407" y="1409" type="qcurve" smooth="yes"/>
      <point x="324" y="1409"/>
      <point x="218" y="1365"/>
      <point x="163" y="1315" type="qcurve"/>
      <point x="90" y="1398" type="line"/>
      <point x="140" y="1449"/>
      <point x="293" y="1520"/>
      <point x="421" y="1520" type="qcurve" smooth="yes"/>
      <point x="542" y="1520"/>
      <point x="716" y="1413"/>
      <point x="716" y="1312" type="qcurve" smooth="yes"/>
      <point x="716" y="1196"/>
      <point x="551" y="1051"/>
      <point x="472" y="1013" type="qcurve" smooth="yes"/>
      <point x="345" y="951"/>
      <point x="244" y="860"/>
      <point x="231" y="826" type="qcurve"/>
      <point x="231" y="800" type="line"/>
      <point x="736" y="800" type="line"/>
      <point x="736" y="671" type="line"/>
    </contour>
  </outline>
</glyph>
<glyph name="threesuperior" format="2">
  <advance width="783"/>
  <unicode hex="00B3"/>
  <outline>
    <contour>
      <point x="60" y="739" type="qcurve"/>
      <point x="111" y="832" type="line"/>
      <point x="170" y="789"/>
      <point x="279" y="755"/>
      <point x="360" y="755" type="qcurve" smooth="yes"/>
      <point x="439" y="755"/>
      <point x="532" y="825"/>
      <point x="532" y="908" type="qcurve" smooth="yes"/>
      <point x="532" y="989"/>
      <point x="397" y="1059"/>
      <point x="266" y="1059" type="qcurve" smooth="yes"/>
      <point x="235" y="1059" type="line"/>
      <point x="219" y="1154" type="line"/>
      <point x="282" y="1157" type="line" smooth="yes"/>
      <point x="402" y="1163"/>
      <point x="507" y="1240"/>
      <point x="507" y="1310" type="qcurve" smooth="yes"/>
      <point x="507" y="1364"/>
      <point x="443" y="1416"/>
      <point x="375" y="1416" type="qcurve" smooth="yes"/>
      <point x="302" y="1416"/>
      <point x="201" y="1381"/>
      <point x="145" y="1347" type="qcurve"/>
      <point x="104" y="1422" type="line"/>
      <point x="159" y="1468"/>
      <point x="298" y="1520"/>
      <point x="395" y="1520" type="qcurve" smooth="yes"/>
      <point x="523" y="1520"/>
      <point x="662" y="1418"/>
      <point x="662" y="1337" type="qcurve" smooth="yes"/>
      <point x="662" y="1252"/>
      <point x="546" y="1142"/>
      <point x="432" y="1118" type="qcurve"/>
      <point x="432" y="1114" type="line"/>
      <point x="551" y="1111"/>
      <point x="687" y="1001"/>
      <point x="687" y="905" type="qcurve" smooth="yes"/>
      <point x="687" y="783"/>
      <point x="511" y="649"/>
      <point x="361" y="649" type="qcurve" smooth="yes"/>
      <point x="275" y="649"/>
      <point x="112" y="697"/>
    </contour>
  </outline>
</glyph>
<glyph name="micro" format="2">
  <advance width="1197"/>
  <unicode hex="00B5"/>
  <outline>
    <contour>
      <point x="3" y="-317" type="line"/>
      <point x="41" y="-294" type="line"/>
      <point x="79" y="-136"/>
      <point x="139" y="112"/>
      <point x="151" y="181" type="qcurve" smooth="yes"/>
      <point x="263" y="822" type="line"/>
      <point x="121" y="819" type="line"/>
      <point x="123" y="915" type="line"/>
      <point x="344" y="1002" type="line"/>
      <point x="385" y="1002" type="line"/>
      <point x="422" y="931" type="line"/>
      <point x="304" y="312" type="line" smooth="yes"/>
      <point x="288" y="229"/>
      <point x="341" y="167"/>
      <point x="418" y="167" type="qcurve" smooth="yes"/>
      <point x="511" y="167"/>
      <point x="721" y="285"/>
      <point x="782" y="352" type="qcurve"/>
      <point x="896" y="976" type="line"/>
      <point x="887" y="1000" type="line"/>
      <point x="1002" y="1019" type="line"/>
      <point x="1039" y="948" type="line"/>
      <point x="922" y="362" type="line"/>
      <point x="896" y="134" type="line"/>
      <point x="1032" y="134" type="line"/>
      <point x="1034" y="47" type="line"/>
      <point x="799" y="-15" type="line"/>
      <point x="757" y="76" type="line"/>
      <point x="765" y="215" type="line"/>
      <point x="688" y="136"/>
      <point x="457" y="23"/>
      <point x="358" y="23" type="qcurve" smooth="yes"/>
      <point x="325" y="23"/>
      <point x="275" y="36"/>
      <point x="250" y="48" type="qcurve"/>
      <point x="193" y="-274" type="line"/>
      <point x="339" y="-282" type="line"/>
      <point x="331" y="-371" type="line"/>
      <point x="26" y="-399" type="line"/>
    </contour>
  </outline>
</glyph>
<glyph name="paragraph" format="2">
  <advance width="1184"/>
  <unicode hex="00B6"/>
  <outline>
    <contour>
      <point x="1038" y="100" type="line"/>
      <point x="1038" y="0" type="line"/>
      <point x="285" y="0" type="line"/>
      <point x="285" y="100" type="line"/>
      <point x="763" y="132" type="line"/>
      <point x="765" y="787" type="line"/>
      <point x="726" y="781"/>
      <point x="536" y="773"/>
      <point x="477" y="773" type="qcurve" smooth="yes"/>
      <point x="284" y="773"/>
      <point x="50" y="989"/>
      <point x="50" y="1155" type="qcurve" smooth="yes"/>
      <point x="50" y="1326"/>
      <point x="272" y="1500"/>
      <point x="464" y="1500" type="qcurve" smooth="yes"/>
      <point x="1091" y="1500" type="line"/>
      <point x="1091" y="1386" type="line"/>
      <point x="890" y="1352" type="line"/>
      <point x="888" y="754" type="line"/>
      <point x="890" y="137" type="line"/>
    </contour>
    <contour>
      <point x="610" y="46" type="line"/>
      <point x="473" y="46" type="line"/>
      <point x="475" y="907" type="line"/>
      <point x="608" y="907" type="line"/>
    </contour>
  </outline>
</glyph>
<glyph name="periodcentered" format="2">
  <advance width="620"/>
  <unicode hex="00B7"/>
  <outline>
    <contour>
      <point x="166" y="674" type="qcurve" smooth="yes"/>
      <point x="166" y="732"/>
      <point x="247" y="818"/>
      <point x="310" y="818" type="qcurve" smooth="yes"/>
      <point x="373" y="818"/>
      <point x="454" y="732"/>
      <point x="454" y="674" type="qcurve" smooth="yes"/>
      <point x="454" y="617"/>
      <point x="373" y="531"/>
      <point x="310" y="531" type="qcurve" smooth="yes"/>
      <point x="247" y="531"/>
      <point x="166" y="617"/>
    </contour>
  </outline>
</glyph>
<glyph name="onesuperior" format="2">
  <advance width="798"/>
  <unicode hex="00B9"/>
  <outline>
    <contour>
      <point x="132" y="670" type="line"/>
      <point x="132" y="754" type="line"/>
      <point x="340" y="784" type="line"/>
      <point x="343" y="1109" type="line"/>
      <point x="340" y="1377" type="line"/>
      <point x="130" y="1396" type="line"/>
      <point x="130" y="1480" type="line"/>
      <point x="440" y="1513" type="line"/>
      <point x="475" y="1478" type="line"/>
      <point x="469" y="1109" type="line"/>
      <point x="471" y="784" type="line"/>
      <point x="679" y="754" type="line"/>
      <point x="679" y="670" type="line"/>
    </contour>
  </outline>
</glyph>
<glyph name="ordmasculine" format="2">
  <advance width="1103"/>
  <unicode hex="00BA"/>
  <outline>
    <contour>
      <point x="90" y="1094" type="qcurve" smooth="yes"/>
      <point x="90" y="1280"/>
      <point x="339" y="1542"/>
      <point x="550" y="1542" type="qcurve" smooth="yes"/>
      <point x="762" y="1542"/>
      <point x="1013" y="1297"/>
      <point x="1013" y="1099" type="qcurve" smooth="yes"/>
      <point x="1013" y="914"/>
      <point x="767" y="646"/>
      <point x="555" y="646" type="qcurve" smooth="yes"/>
      <point x="343" y="646"/>
      <point x="90" y="894"/>
    </contour>
    <contour>
      <point x="246" y="1111" type="qcurve" smooth="yes"/>
      <point x="246" y="954"/>
      <point x="414" y="732"/>
      <point x="547" y="732" type="qcurve" smooth="yes"/>
      <point x="691" y="732"/>
      <point x="851" y="934"/>
      <point x="851" y="1098" type="qcurve" smooth="yes"/>
      <point x="851" y="1250"/>
      <point x="683" y="1450"/>
      <point x="550" y="1450" type="qcurve" smooth="yes"/>
      <point x="404" y="1450"/>
      <point x="245" y="1269"/>
    </contour>
  </outline>
</glyph>
<glyph name="questiondown" format="2">
  <advance width="970"/>
  <unicode hex="00BF"/>
  <outline>
    <contour>
      <point x="721" y="1205" type="qcurve" smooth="yes"/>
      <point x="721" y="1147"/>
      <point x="640" y="1061"/>
      <point x="577" y="1061" type="qcurve" smooth="yes"/>
      <point x="514" y="1061"/>
      <point x="433" y="1147"/>
      <point x="433" y="1205" type="qcurve" smooth="yes"/>
      <point x="433" y="1262"/>
      <point x="514" y="1348"/>
      <point x="577" y="1348" type="qcurve" smooth="yes"/>
      <point x="640" y="1348"/>
      <point x="721" y="1262"/>
    </contour>
    <contour>
      <point x="919" y="92" type="qcurve" smooth="yes"/>
      <point x="919" y="-51"/>
      <point x="686" y="-214"/>
      <point x="482" y="-214" type="qcurve" smooth="yes"/>
      <point x="285" y="-214"/>
      <point x="38" y="-22"/>
      <point x="38" y="163" type="qcurve" smooth="yes"/>
      <point x="38" y="356"/>
      <point x="273" y="555"/>
      <point x="358" y="589" type="qcurve" smooth="yes"/>
      <point x="434" y="619"/>
      <point x="540" y="721"/>
      <point x="540" y="804" type="qcurve" smooth="yes"/>
      <point x="540" y="891" type="line"/>
      <point x="640" y="891" type="line"/>
      <point x="655" y="807" type="line" smooth="yes"/>
      <point x="668" y="732"/>
      <point x="569" y="570"/>
      <point x="457" y="506" type="qcurve" smooth="yes"/>
      <point x="367" y="454"/>
      <point x="226" y="326"/>
      <point x="226" y="185" type="qcurve" smooth="yes"/>
      <point x="226" y="50"/>
      <point x="385" y="-103"/>
      <point x="515" y="-103" type="qcurve" smooth="yes"/>
      <point x="637" y="-103"/>
      <point x="775" y="-16"/>
      <point x="775" y="37" type="qcurve" smooth="yes"/>
      <point x="775" y="66"/>
      <point x="654" y="122"/>
      <point x="652" y="171" type="qcurve" smooth="yes"/>
      <point x="649" y="211"/>
      <point x="710" y="275"/>
      <point x="770" y="275" type="qcurve" smooth="yes"/>
      <point x="836" y="275"/>
      <point x="919" y="182"/>
    </contour>
  </outline>
</glyph>
<glyph name="AE" format="2">
  <advance width="1976"/>
  <unicode hex="00C6"/>
  <anchor x="1068" y="1500" name="top"/>
  <outline>
    <contour>
      <point x="-23" y="0" type="line"/>
      <point x="-23" y="100" type="line"/>
      <point x="165" y="135" type="line"/>
      <point x="411" y="540" type="line"/>
      <point x="891" y="1367" type="line"/>
      <point x="774" y="1386" type="line"/>
      <point x="774" y="1500" type="line"/>
      <point x="1806" y="1500" type="line"/>
      <point x="1806" y="1152" type="line"/>
      <point x="1696" y="1152" type="line"/>
      <point x="1661" y="1382" type="line"/>
      <point x="1168" y="1382" type="line"/>
      <point x="1139" y="1362" type="line"/>
      <point x="1137" y="783" type="line"/>
      <point x="1139" y="132" type="line"/>
      <point x="1169" y="108" type="line"/>
      <point x="1724" y="108" type="line"/>
      <point x="1800" y="378" type="line"/>
      <point x="1910" y="378" type="line"/>
      <point x="1870" y="0" type="line"/>
      <point x="774" y="0" type="line"/>
      <point x="774" y="100" type="line"/>
      <point x="982" y="137" type="line"/>
      <point x="984" y="783" type="line"/>
      <point x="982" y="1266" type="line"/>
      <point x="958" y="1292" type="line"/>
      <point x="516" y="503" type="line"/>
      <point x="315" y="130" type="line"/>
      <point x="493" y="100" type="line"/>
      <point x="493" y="0" type="line"/>
    </contour>
    <contour>
      <point x="415" y="448" type="line"/>
      <point x="480" y="567" type="line"/>
      <point x="737" y="552" type="line"/>
      <point x="737" y="448" type="line"/>
    </contour>
    <contour>
      <point x="737" y="552" type="line"/>
      <point x="1074" y="568" type="line"/>
      <point x="1074" y="448" type="line"/>
      <point x="737" y="448" type="line"/>
    </contour>
    <contour>
      <point x="1062" y="738" type="line"/>
      <point x="1062" y="834" type="line"/>
      <point x="1515" y="844" type="line"/>
      <point x="1550" y="1004" type="line"/>
      <point x="1660" y="1004" type="line"/>
      <point x="1660" y="568" type="line"/>
      <point x="1550" y="568" type="line"/>
      <point x="1515" y="728" type="line"/>
    </contour>
  </outline>
</glyph>
<glyph name="multiply" format="2">
  <advance width="1060"/>
  <unicode hex="00D7"/>
  <outline>
    <contour>
      <point x="275" y="276" type="line"/>
      <point x="174" y="377" type="line"/>
      <point x="785" y="988" type="line"/>
      <point x="886" y="887" type="line"/>
    </contour>
    <contour>
      <point x="780" y="271" type="line"/>
      <point x="169" y="882" type="line"/>
      <point x="280" y="993" type="line"/>
      <point x="891" y="382" type="line"/>
    </contour>
  </outline>
</glyph>
<glyph name="Thorn" format="2">
  <advance width="1322"/>
  <unicode hex="00DE"/>
  <outline>
    <contour>
      <point x="88" y="0" type="line"/>
      <point x="88" y="116" type="line"/>
      <point x="308" y="153" type="line"/>
      <point x="310" y="754" type="line"/>
      <point x="308" y="1344" type="line"/>
      <point x="88" y="1378" type="line"/>
      <point x="88" y="1508" type="line"/>
      <point x="706" y="1508" type="line"/>
      <point x="706" y="1392" type="line"/>
      <point x="467" y="1352" type="line"/>
      <point x="465" y="1261" type="line"/>
      <point x="743" y="1261" type="line" smooth="yes"/>
      <point x="993" y="1261"/>
      <point x="1254" y="1044"/>
      <point x="1254" y="832" type="qcurve" smooth="yes"/>
      <point x="1254" y="625"/>
      <point x="977" y="357"/>
      <point x="724" y="357" type="qcurve" smooth="yes"/>
      <point x="615" y="357"/>
      <point x="447" y="376"/>
      <point x="394" y="385" type="qcurve"/>
      <point x="403" y="495" type="line"/>
      <point x="466" y="482"/>
      <point x="592" y="474"/>
      <point x="703" y="474" type="qcurve" smooth="yes"/>
      <point x="889" y="474"/>
      <point x="1083" y="664"/>
      <point x="1083" y="832" type="qcurve" smooth="yes"/>
      <point x="1083" y="986"/>
      <point x="896" y="1140"/>
      <point x="720" y="1140" type="qcurve" smooth="yes"/>
      <point x="466" y="1140" type="line"/>
      <point x="464" y="764" type="line"/>
      <point x="466" y="148" type="line"/>
      <point x="706" y="116" type="line"/>
      <point x="706" y="0" type="line"/>
    </contour>
  </outline>
</glyph>
<glyph name="germandbls" format="2">
  <advance width="1403"/>
  <unicode hex="00DF"/>
  <outline>
    <contour>
      <point x="1114" y="1217" type="qcurve" smooth="yes"/>
      <point x="1114" y="1078"/>
      <point x="971" y="957"/>
      <point x="869" y="922" type="qcurve" smooth="yes"/>
      <point x="814" y="904"/>
      <point x="733" y="848"/>
      <point x="733" y="787" type="qcurve" smooth="yes"/>
      <point x="733" y="724"/>
      <point x="851" y="645"/>
      <point x="971" y="614" type="qcurve" smooth="yes"/>
      <point x="1143" y="570"/>
      <point x="1337" y="427"/>
      <point x="1337" y="285" type="qcurve" smooth="yes"/>
      <point x="1337" y="160"/>
      <point x="1139" y="-23"/>
      <point x="988" y="-23" type="qcurve" smooth="yes"/>
      <point x="886" y="-23"/>
      <point x="753" y="31"/>
      <point x="695" y="73" type="qcurve"/>
      <point x="656" y="0" type="line"/>
      <point x="559" y="0" type="line"/>
      <point x="559" y="341" type="line"/>
      <point x="672" y="341" type="line"/>
      <point x="684" y="280" type="line" smooth="yes"/>
      <point x="701" y="194"/>
      <point x="864" y="88"/>
      <point x="971" y="88" type="qcurve" smooth="yes"/>
      <point x="1060" y="88"/>
      <point x="1201" y="177"/>
      <point x="1201" y="261" type="qcurve" smooth="yes"/>
      <point x="1201" y="349"/>
      <point x="1059" y="436"/>
      <point x="913" y="480" type="qcurve" smooth="yes"/>
      <point x="734" y="534"/>
      <point x="599" y="655"/>
      <point x="599" y="761" type="qcurve" smooth="yes"/>
      <point x="599" y="869"/>
      <point x="722" y="983"/>
      <point x="817" y="1019" type="qcurve" smooth="yes"/>
      <point x="905" y="1052"/>
      <point x="981" y="1135"/>
      <point x="981" y="1208" type="qcurve" smooth="yes"/>
      <point x="981" y="1289"/>
      <point x="860" y="1394"/>
      <point x="725" y="1394" type="qcurve" smooth="yes"/>
      <point x="563" y="1394"/>
      <point x="379" y="1233"/>
      <point x="381" y="1058" type="qcurve"/>
      <point x="385" y="527" type="line"/>
      <point x="398" y="45" type="line"/>
      <point x="369" y="0" type="line"/>
      <point x="72" y="0" type="line"/>
      <point x="72" y="110" type="line"/>
      <point x="240" y="145" type="line"/>
      <point x="242" y="527" type="line"/>
      <point x="244" y="1093" type="line" smooth="yes"/>
      <point x="245" y="1276"/>
      <point x="520" y="1507"/>
      <point x="727" y="1507" type="qcurve" smooth="yes"/>
      <point x="914" y="1507"/>
      <point x="1114" y="1347"/>
    </contour>
  </outline>
</glyph>
<glyph name="ae" format="2">
  <advance width="1779"/>
  <unicode hex="00E6"/>
  <anchor x="887" y="1051" name="top"/>
  <outline>
    <contour>
      <point x="100" y="258" type="qcurve" smooth="yes"/>
      <point x="100" y="403"/>
      <point x="424" y="610"/>
      <point x="806" y="656" type="qcurve"/>
      <point x="808" y="568" type="line"/>
      <point x="547" y="533"/>
      <point x="258" y="408"/>
      <point x="258" y="265" type="qcurve" smooth="yes"/>
      <point x="258" y="187"/>
      <point x="353" y="100"/>
      <point x="444" y="100" type="qcurve" smooth="yes"/>
      <point x="543" y="100"/>
      <point x="749" y="195"/>
      <point x="805" y="269" type="qcurve"/>
      <point x="790" y="303"/>
      <point x="765" y="447"/>
      <point x="765" y="510" type="qcurve" smooth="yes"/>
      <point x="765" y="647" type="line" smooth="yes"/>
      <point x="765" y="843"/>
      <point x="640" y="956"/>
      <point x="533" y="956" type="qcurve" smooth="yes"/>
      <point x="435" y="956"/>
      <point x="311" y="908"/>
      <point x="280" y="878" type="qcurve"/>
      <point x="299" y="859"/>
      <point x="320" y="820"/>
      <point x="323" y="801" type="qcurve" smooth="yes"/>
      <point x="329" y="766"/>
      <point x="290" y="716"/>
      <point x="252" y="716" type="qcurve" smooth="yes"/>
      <point x="213" y="716"/>
      <point x="167" y="784"/>
      <point x="167" y="842" type="qcurve" smooth="yes"/>
      <point x="167" y="935"/>
      <point x="381" y="1072"/>
      <point x="547" y="1072" type="qcurve" smooth="yes"/>
      <point x="686" y="1072"/>
      <point x="838" y="967"/>
      <point x="865" y="887" type="qcurve"/>
      <point x="871" y="887" type="line"/>
      <point x="913" y="958"/>
      <point x="1106" y="1072"/>
      <point x="1239" y="1072" type="qcurve" smooth="yes"/>
      <point x="1441" y="1072"/>
      <point x="1669" y="833"/>
      <point x="1688" y="617" type="qcurve"/>
      <point x="1688" y="556" type="line"/>
      <point x="881" y="556" type="line"/>
      <point x="880" y="652" type="line"/>
      <point x="1541" y="652" type="line"/>
      <point x="1520" y="800"/>
      <point x="1357" y="960"/>
      <point x="1232" y="960" type="qcurve" smooth="yes"/>
      <point x="1078" y="960"/>
      <point x="906" y="738"/>
      <point x="907" y="547" type="qcurve" smooth="yes"/>
      <point x="908" y="329"/>
      <point x="1126" y="108"/>
      <point x="1295" y="108" type="qcurve" smooth="yes"/>
      <point x="1397" y="108"/>
      <point x="1546" y="154"/>
      <point x="1600" y="199" type="qcurve"/>
      <point x="1651" y="139" type="line"/>
      <point x="1597" y="68"/>
      <point x="1407" y="-22"/>
      <point x="1274" y="-22" type="qcurve" smooth="yes"/>
      <point x="1104" y="-22"/>
      <point x="905" y="98"/>
      <point x="860" y="178" type="qcurve"/>
      <point x="804" y="113"/>
      <point x="555" y="-15"/>
      <point x="408" y="-15" type="qcurve" smooth="yes"/>
      <point x="255" y="-15"/>
      <point x="100" y="145"/>
    </contour>
  </outline>
</glyph>
<glyph name="eth" format="2">
  <advance width="1245"/>
  <unicode hex="00F0"/>
  <outline>
    <contour>
      <point x="82" y="490" type="qcurve" smooth="yes"/>
      <point x="82" y="707"/>
      <point x="379" y="1004"/>
      <point x="619" y="1004" type="qcurve" smooth="yes"/>
      <point x="861" y="1004"/>
      <point x="1094" y="721"/>
      <point x="1104" y="496" type="qcurve"/>
      <point x="999" y="496" type="line"/>
      <point x="1019" y="661"/>
      <point x="814" y="888"/>
      <point x="617" y="888" type="qcurve" smooth="yes"/>
      <point x="434" y="888"/>
      <point x="239" y="690"/>
      <point x="240" y="510" type="qcurve" smooth="yes"/>
      <point x="241" y="329"/>
      <point x="446" y="87"/>
      <point x="615" y="88" type="qcurve" smooth="yes"/>
      <point x="807" y="89"/>
      <point x="1006" y="363"/>
      <point x="1006" y="621" type="qcurve" smooth="yes"/>
      <point x="1006" y="981"/>
      <point x="610" y="1387"/>
      <point x="278" y="1486" type="qcurve"/>
      <point x="314" y="1584" type="line"/>
      <point x="746" y="1474"/>
      <point x="1162" y="952"/>
      <point x="1162" y="624" type="qcurve" smooth="yes"/>
      <point x="1162" y="325"/>
      <point x="880" y="-22"/>
      <point x="622" y="-22" type="qcurve" smooth="yes"/>
      <point x="381" y="-22"/>
      <point x="82" y="257"/>
    </contour>
    <contour>
      <point x="444" y="1217" type="line"/>
      <point x="958" y="1534" type="line"/>
      <point x="1027" y="1443" type="line"/>
      <point x="513" y="1125" type="line"/>
    </contour>
  </outline>
</glyph>
<glyph name="divide" format="2">
  <advance width="1060"/>
  <unicode hex="00F7"/>
  <outline>
    <contour>
      <point x="98" y="556" type="line"/>
      <point x="98" y="708" type="line"/>
      <point x="962" y="708" type="line"/>
      <point x="962" y="556" type="line"/>
    </contour>
    <contour>
      <point x="400" y="307" type="qcurve" smooth="yes"/>
      <point x="400" y="359"/>
      <point x="473" y="437"/>
      <point x="530" y="437" type="qcurve" smooth="yes"/>
      <point x="587" y="437"/>
      <point x="660" y="359"/>
      <point x="660" y="307" type="qcurve" smooth="yes"/>
      <point x="660" y="256"/>
      <point x="587" y="178"/>
      <point x="530" y="178" type="qcurve" smooth="yes"/>
      <point x="473" y="178"/>
      <point x="400" y="256"/>
    </contour>
    <contour>
      <point x="400" y="958" type="qcurve" smooth="yes"/>
      <point x="400" y="1010"/>
      <point x="473" y="1088"/>
      <point x="530" y="1088" type="qcurve" smooth="yes"/>
      <point x="587" y="1088"/>
      <point x="660" y="1010"/>
      <point x="660" y="958" type="qcurve" smooth="yes"/>
      <point x="660" y="907"/>
      <point x="587" y="829"/>
      <point x="530" y="829" type="qcurve" smooth="yes"/>
      <point x="473" y="829"/>
      <point x="400" y="907"/>
    </contour>
  </outline>
</glyph>
<glyph name="thorn" format="2">
  <advance width="1214"/>
  <unicode hex="00FE"/>
  <outline>
    <contour>
      <point x="37" y="-480" type="line"/>
      <point x="37" y="-370" type="line"/>
      <point x="180" y="-335" type="line"/>
      <point x="182" y="427" type="line"/>
      <point x="181" y="1332" type="line"/>
      <point x="15" y="1362" type="line"/>
      <point x="15" y="1486" type="line"/>
      <point x="270" y="1520" type="line"/>
      <point x="302" y="1520" type="line"/>
      <point x="330" y="1488" type="line"/>
      <point x="330" y="905" type="line"/>
      <point x="383" y="978"/>
      <point x="561" y="1071"/>
      <point x="686" y="1071" type="qcurve" smooth="yes"/>
      <point x="878" y="1071"/>
      <point x="1128" y="792"/>
      <point x="1128" y="557" type="qcurve" smooth="yes"/>
      <point x="1128" y="301"/>
      <point x="869" y="-12"/>
      <point x="650" y="-12" type="qcurve" smooth="yes"/>
      <point x="542" y="-12"/>
      <point x="375" y="51"/>
      <point x="328" y="94" type="qcurve"/>
      <point x="329" y="-335" type="line"/>
      <point x="481" y="-370" type="line"/>
      <point x="481" y="-480" type="line"/>
    </contour>
    <contour>
      <point x="328" y="250" type="line"/>
      <point x="366" y="187"/>
      <point x="531" y="94"/>
      <point x="642" y="94" type="qcurve" smooth="yes"/>
      <point x="794" y="94"/>
      <point x="967" y="328"/>
      <point x="967" y="531" type="qcurve" smooth="yes"/>
      <point x="967" y="724"/>
      <point x="795" y="942"/>
      <point x="648" y="942" type="qcurve" smooth="yes"/>
      <point x="538" y="942"/>
      <point x="377" y="852"/>
      <point x="329" y="783" type="qcurve"/>
      <point x="326" y="449" type="line"/>
    </contour>
  </outline>
</glyph>
<glyph name="idotless" format="2">
  <advance width="654"/>
  <unicode hex="0131"/>
  <anchor x="329" y="0" name="bottom"/>
  <anchor x="326" y="1044" name="top"/>
  <anchor x="510" y="0" name="ogonek"/>
  <outline>
    <contour>
      <point x="83" y="0" type="line"/>
      <point x="83" y="110" type="line"/>
      <point x="263" y="145" type="line"/>
      <point x="265" y="530" type="line"/>
      <point x="259" y="863" type="line"/>
      <point x="78" y="893" type="line"/>
      <point x="78" y="1017" type="line"/>
      <point x="347" y="1051" type="line"/>
      <point x="394" y="1051" type="line"/>
      <point x="417" y="1012" type="line"/>
      <point x="410" y="530" type="line"/>
      <point x="412" y="145" type="line"/>
      <point x="592" y="110" type="line"/>
      <point x="592" y="0" type="line"/>
    </contour>
  </outline>
</glyph>
<glyph name="kgreenlandic" format="2">
  <advance width="1168"/>
  <unicode hex="0138"/>
  <outline>
    <contour>
      <point x="93" y="0" type="line"/>
      <point x="93" y="110" type="line"/>
      <point x="232" y="145" type="line"/>
      <point x="234" y="527" type="line"/>
      <point x="232" y="855" type="line"/>
      <point x="93" y="890" type="line"/>
      <point x="93" y="1000" type="line"/>
      <point x="520" y="1000" type="line"/>
      <point x="520" y="890" type="line"/>
      <point x="382" y="855" type="line"/>
      <point x="380" y="507" type="line"/>
      <point x="382" y="145" type="line"/>
      <point x="520" y="110" type="line"/>
      <point x="520" y="0" type="line"/>
    </contour>
    <contour>
      <point x="434" y="427" type="line"/>
      <point x="434" y="549" type="line"/>
      <point x="759" y="850" type="line"/>
      <point x="658" y="890" type="line"/>
      <point x="665" y="1000" type="line"/>
      <point x="1071" y="1000" type="line"/>
      <point x="1071" y="890" type="line"/>
      <point x="899" y="845" type="line"/>
    </contour>
    <contour>
      <point x="479" y="556" type="line"/>
      <point x="601" y="624" type="line"/>
      <point x="971" y="145" type="line"/>
      <point x="1113" y="110" type="line"/>
      <point x="1113" y="0" type="line"/>
      <point x="768" y="0" type="line"/>
      <point x="747" y="109" type="line"/>
      <point x="797" y="141" type="line"/>
    </contour>
  </outline>
</glyph>
<glyph name="OE" format="2">
  <advance width="2201"/>
  <unicode hex="0152"/>
  <outline>
    <contour>
      <point x="98" y="737" type="qcurve" smooth="yes"/>
      <point x="98" y="1068"/>
      <point x="514" y="1518"/>
      <point x="870" y="1518" type="qcurve" smooth="yes"/>
      <point x="934" y="1518"/>
      <point x="1233" y="1500"/>
      <point x="1293" y="1500" type="qcurve" smooth="yes"/>
      <point x="2031" y="1500" type="line"/>
      <point x="2031" y="1150" type="line"/>
      <point x="1921" y="1150" type="line"/>
      <point x="1886" y="1380" type="line"/>
      <point x="1359" y="1380" type="line"/>
      <point x="1330" y="1360" type="line"/>
      <point x="1328" y="783" type="line"/>
      <point x="1330" y="134" type="line"/>
      <point x="1360" y="110" type="line"/>
      <point x="1949" y="110" type="line"/>
      <point x="2025" y="380" type="line"/>
      <point x="2135" y="380" type="line"/>
      <point x="2095" y="0" type="line"/>
      <point x="1331" y="0" type="line" smooth="yes"/>
      <point x="1268" y="0"/>
      <point x="963" y="-26"/>
      <point x="874" y="-26" type="qcurve" smooth="yes"/>
      <point x="527" y="-26"/>
      <point x="98" y="396"/>
    </contour>
    <contour>
      <point x="265" y="771" type="qcurve" smooth="yes"/>
      <point x="265" y="480"/>
      <point x="590" y="101"/>
      <point x="867" y="101" type="qcurve" smooth="yes"/>
      <point x="953" y="101"/>
      <point x="1108" y="116"/>
      <point x="1173" y="131" type="qcurve"/>
      <point x="1175" y="783" type="line"/>
      <point x="1173" y="1356" type="line"/>
      <point x="1131" y="1362"/>
      <point x="950" y="1384"/>
      <point x="867" y="1384" type="qcurve" smooth="yes"/>
      <point x="564" y="1384"/>
      <point x="265" y="1051"/>
    </contour>
    <contour>
      <point x="1253" y="736" type="line"/>
      <point x="1253" y="835" type="line"/>
      <point x="1740" y="845" type="line"/>
      <point x="1775" y="1005" type="line"/>
      <point x="1885" y="1005" type="line"/>
      <point x="1885" y="566" type="line"/>
      <point x="1775" y="566" type="line"/>
      <point x="1740" y="726" type="line"/>
    </contour>
  </outline>
</glyph>
<glyph name="oe" format="2">
  <advance width="1989"/>
  <unicode hex="0153"/>
  <outline>
    <contour>
      <point x="82" y="525" type="qcurve" smooth="yes"/>
      <point x="82" y="753"/>
      <point x="374" y="1072"/>
      <point x="611" y="1072" type="qcurve" smooth="yes"/>
      <point x="788" y="1072"/>
      <point x="1010" y="918"/>
      <point x="1049" y="826" type="qcurve"/>
      <point x="1060" y="826" type="line"/>
      <point x="1096" y="919"/>
      <point x="1296" y="1072"/>
      <point x="1454" y="1072" type="qcurve" smooth="yes"/>
      <point x="1651" y="1072"/>
      <point x="1879" y="833"/>
      <point x="1899" y="617" type="qcurve"/>
      <point x="1899" y="556" type="line"/>
      <point x="1095" y="556" type="line"/>
      <point x="1095" y="652" type="line"/>
      <point x="1752" y="652" type="line"/>
      <point x="1731" y="801"/>
      <point x="1567" y="957"/>
      <point x="1443" y="957" type="qcurve" smooth="yes"/>
      <point x="1289" y="957"/>
      <point x="1119" y="737"/>
      <point x="1120" y="546" type="qcurve" smooth="yes"/>
      <point x="1121" y="331"/>
      <point x="1339" y="109"/>
      <point x="1509" y="109" type="qcurve" smooth="yes"/>
      <point x="1611" y="109"/>
      <point x="1757" y="158"/>
      <point x="1811" y="204" type="qcurve"/>
      <point x="1863" y="142" type="line"/>
      <point x="1809" y="70"/>
      <point x="1619" y="-22"/>
      <point x="1485" y="-22" type="qcurve" smooth="yes"/>
      <point x="1320" y="-22"/>
      <point x="1086" y="125"/>
      <point x="1040" y="243" type="qcurve"/>
      <point x="1035" y="243" type="line"/>
      <point x="1003" y="139"/>
      <point x="777" y="-22"/>
      <point x="616" y="-22" type="qcurve" smooth="yes"/>
      <point x="377" y="-22"/>
      <point x="82" y="281"/>
    </contour>
    <contour>
      <point x="241" y="546" type="qcurve" smooth="yes"/>
      <point x="243" y="356"/>
      <point x="443" y="91"/>
      <point x="607" y="91" type="qcurve" smooth="yes"/>
      <point x="783" y="91"/>
      <point x="975" y="332"/>
      <point x="975" y="531" type="qcurve" smooth="yes"/>
      <point x="975" y="715"/>
      <point x="775" y="954"/>
      <point x="609" y="954" type="qcurve" smooth="yes"/>
      <point x="431" y="954"/>
      <point x="240" y="736"/>
    </contour>
  </outline>
</glyph>
<glyph name="Schwa" format="2">
  <advance width="1439"/>
  <unicode hex="018F"/>
  <outline>
    <contour>
      <point x="82" y="1199" type="line"/>
      <point x="175" y="1351"/>
      <point x="460" y="1519"/>
      <point x="669" y="1519" type="qcurve" smooth="yes"/>
      <point x="990" y="1519"/>
      <point x="1341" y="1094"/>
      <point x="1341" y="789" type="qcurve" smooth="yes"/>
      <point x="1341" y="445"/>
      <point x="971" y="-30"/>
      <point x="692" y="-30" type="qcurve" smooth="yes"/>
      <point x="426" y="-30"/>
      <point x="124" y="281"/>
      <point x="124" y="578" type="qcurve" smooth="yes"/>
      <point x="124" y="688" type="line"/>
      <point x="1180" y="688" type="line"/>
      <point x="1195" y="554" type="line"/>
      <point x="670" y="562" type="line"/>
      <point x="296" y="556" type="line"/>
      <point x="296" y="481" type="line" smooth="yes"/>
      <point x="296" y="316"/>
      <point x="501" y="99"/>
      <point x="700" y="99" type="qcurve" smooth="yes"/>
      <point x="910" y="99"/>
      <point x="1175" y="463"/>
      <point x="1173" y="749" type="qcurve" smooth="yes"/>
      <point x="1171" y="1046"/>
      <point x="865" y="1373"/>
      <point x="654" y="1373" type="qcurve" smooth="yes"/>
      <point x="477" y="1373"/>
      <point x="234" y="1229"/>
      <point x="176" y="1124" type="qcurve"/>
    </contour>
  </outline>
</glyph>
<glyph name="florin" format="2">
  <advance width="708"/>
  <unicode hex="0192"/>
  <outline>
    <contour>
      <point x="429" y="-59" type="line" smooth="yes"/>
      <point x="431" y="-165"/>
      <point x="294" y="-309"/>
      <point x="191" y="-309" type="qcurve" smooth="yes"/>
      <point x="158" y="-309"/>
      <point x="82" y="-302"/>
      <point x="54" y="-294" type="qcurve" smooth="yes"/>
      <point x="31" y="-288" type="line"/>
      <point x="50" y="-181" type="line"/>
      <point x="77" y="-188" type="line" smooth="yes"/>
      <point x="87" y="-191"/>
      <point x="123" y="-196"/>
      <point x="142" y="-196" type="qcurve" smooth="yes"/>
      <point x="217" y="-196"/>
      <point x="297" y="-106"/>
      <point x="295" y="-22" type="qcurve" smooth="yes"/>
      <point x="276" y="860" type="line"/>
      <point x="51" y="872" type="line"/>
      <point x="41" y="966" type="line"/>
      <point x="268" y="984" type="line"/>
      <point x="262" y="1291" type="line" smooth="yes"/>
      <point x="260" y="1397"/>
      <point x="398" y="1518"/>
      <point x="499" y="1518" type="qcurve" smooth="yes"/>
      <point x="534" y="1518"/>
      <point x="610" y="1509"/>
      <point x="639" y="1502" type="qcurve" smooth="yes"/>
      <point x="661" y="1497" type="line"/>
      <point x="643" y="1390" type="line"/>
      <point x="619" y="1397" type="line" smooth="yes"/>
      <point x="608" y="1400"/>
      <point x="572" y="1406"/>
      <point x="552" y="1406" type="qcurve" smooth="yes"/>
      <point x="479" y="1406"/>
      <point x="396" y="1336"/>
      <point x="400" y="1256" type="qcurve" smooth="yes"/>
      <point x="411" y="985" type="line"/>
      <point x="653" y="985" type="line"/>
      <point x="653" y="883" type="line"/>
      <point x="411" y="872" type="line"/>
    </contour>
  </outline>
</glyph>
<glyph name="schwa" format="2">
  <advance width="1044"/>
  <unicode hex="0259"/>
  <outline>
    <contour>
      <point x="962" y="500" type="qcurve" smooth="yes"/>
      <point x="962" y="283"/>
      <point x="709" y="-22"/>
      <point x="504" y="-22" type="qcurve" smooth="yes"/>
      <point x="320" y="-22"/>
      <point x="107" y="206"/>
      <point x="90" y="412" type="qcurve"/>
      <point x="90" y="473" type="line"/>
      <point x="755" y="473" type="line"/>
      <point x="758" y="376" type="line"/>
      <point x="237" y="376" type="line"/>
      <point x="255" y="238"/>
      <point x="402" y="94"/>
      <point x="514" y="94" type="qcurve" smooth="yes"/>
      <point x="652" y="94"/>
      <point x="804" y="301"/>
      <point x="803" y="480" type="qcurve" smooth="yes"/>
      <point x="802" y="680"/>
      <point x="605" y="890"/>
      <point x="447" y="890" type="qcurve" smooth="yes"/>
      <point x="350" y="890"/>
      <point x="221" y="848"/>
      <point x="177" y="811" type="qcurve"/>
      <point x="126" y="872" type="line"/>
      <point x="171" y="935"/>
      <point x="351" y="1022"/>
      <point x="494" y="1022" type="qcurve" smooth="yes"/>
      <point x="694" y="1022"/>
      <point x="962" y="751"/>
    </contour>
  </outline>
</glyph>
<glyph name="gravecomb" format="2">
  <advance width="220"/>
  <unicode hex="0300"/>
  <anchor x="110" y="1000" name="_top"/>
  <anchor x="110" y="1497" name="top"/>
  <outline>
    <contour>
      <point x="-161" y="1446" type="qcurve" smooth="yes"/>
      <point x="-163" y="1478"/>
      <point x="-111" y="1520"/>
      <point x="-80" y="1521" type="qcurve" smooth="yes"/>
      <point x="-47" y="1524"/>
      <point x="29" y="1471"/>
      <point x="63" y="1442" type="qcurve" smooth="yes"/>
      <point x="318" y="1230" type="line"/>
      <point x="248" y="1149" type="line"/>
      <point x="-81" y="1345" type="line" smooth="yes"/>
      <point x="-120" y="1367"/>
      <point x="-158" y="1403"/>
    </contour>
  </outline>
</glyph>
<glyph name="acutecomb" format="2">
  <advance width="220"/>
  <unicode hex="0301"/>
  <anchor x="110" y="1000" name="_top"/>
  <anchor x="110" y="1524" name="top"/>
  <outline>
    <contour>
      <point x="381" y="1450" type="qcurve" smooth="yes"/>
      <point x="378" y="1407"/>
      <point x="339" y="1372"/>
      <point x="301" y="1349" type="qcurve" smooth="yes"/>
      <point x="-31" y="1150" type="line"/>
      <point x="-100" y="1229" type="line"/>
      <point x="157" y="1445" type="line" smooth="yes"/>
      <point x="190" y="1475"/>
      <point x="267" y="1527"/>
      <point x="300" y="1525" type="qcurve" smooth="yes"/>
      <point x="330" y="1524"/>
      <point x="383" y="1481"/>
    </contour>
  </outline>
</glyph>
<glyph name="circumflexcomb" format="2">
  <advance width="220"/>
  <unicode hex="0302"/>
  <anchor x="110" y="1000" name="_top"/>
  <anchor x="110" y="1539" name="top"/>
  <outline>
    <contour>
      <point x="110" y="1539" type="qcurve" smooth="yes"/>
      <point x="148" y="1539"/>
      <point x="199" y="1508"/>
      <point x="234" y="1466" type="qcurve" smooth="yes"/>
      <point x="453" y="1223" type="line"/>
      <point x="375" y="1150" type="line"/>
      <point x="110" y="1391" type="line"/>
      <point x="-155" y="1150" type="line"/>
      <point x="-233" y="1223" type="line"/>
      <point x="-14" y="1466" type="line" smooth="yes"/>
      <point x="29" y="1514"/>
      <point x="72" y="1539"/>
    </contour>
  </outline>
</glyph>
<glyph name="tildecomb" format="2">
  <advance width="220"/>
  <unicode hex="0303"/>
  <anchor x="111" y="1000" name="_top"/>
  <anchor x="111" y="1402" name="top"/>
  <outline>
    <contour>
      <point x="-298" y="1234" type="line"/>
      <point x="-260" y="1297"/>
      <point x="-118" y="1396"/>
      <point x="-45" y="1396" type="qcurve" smooth="yes"/>
      <point x="1" y="1396"/>
      <point x="87" y="1363"/>
      <point x="128" y="1338" type="qcurve" smooth="yes"/>
      <point x="158" y="1321"/>
      <point x="255" y="1270"/>
      <point x="299" y="1270" type="qcurve" smooth="yes"/>
      <point x="345" y="1270"/>
      <point x="429" y="1329"/>
      <point x="456" y="1369" type="qcurve"/>
      <point x="520" y="1290" type="line"/>
      <point x="480" y="1217"/>
      <point x="349" y="1139"/>
      <point x="289" y="1139" type="qcurve" smooth="yes"/>
      <point x="236" y="1139"/>
      <point x="129" y="1185"/>
      <point x="96" y="1205" type="qcurve" smooth="yes"/>
      <point x="61" y="1227"/>
      <point x="-22" y="1263"/>
      <point x="-55" y="1263" type="qcurve" smooth="yes"/>
      <point x="-108" y="1263"/>
      <point x="-206" y="1185"/>
      <point x="-228" y="1155" type="qcurve"/>
    </contour>
  </outline>
</glyph>
<glyph name="macroncomb" format="2">
  <advance width="220"/>
  <unicode hex="0304"/>
  <anchor x="111" y="1000" name="_top"/>
  <anchor x="111" y="1281" name="top"/>
  <outline>
    <contour>
      <point x="-186" y="1147" type="line"/>
      <point x="-186" y="1281" type="line"/>
      <point x="406" y="1281" type="line"/>
      <point x="406" y="1147" type="line"/>
    </contour>
  </outline>
</glyph>
<glyph name="dotaccentcomb" format="2">
  <advance width="220"/>
  <unicode hex="0307"/>
  <anchor x="110" y="1000" name="_top"/>
  <anchor x="110" y="1372" name="top"/>
  <outline>
    <contour>
      <point x="-2" y="1254" type="qcurve" smooth="yes"/>
      <point x="-2" y="1307"/>
      <point x="55" y="1363"/>
      <point x="110" y="1363" type="qcurve" smooth="yes"/>
      <point x="161" y="1363"/>
      <point x="222" y="1303"/>
      <point x="222" y="1254" type="qcurve" smooth="yes"/>
      <point x="222" y="1201"/>
      <point x="165" y="1145"/>
      <point x="110" y="1145" type="qcurve" smooth="yes"/>
      <point x="59" y="1145"/>
      <point x="-2" y="1205"/>
    </contour>
  </outline>
</glyph>
<glyph name="dieresiscomb" format="2">
  <advance width="220"/>
  <unicode hex="0308"/>
  <anchor x="110" y="1000" name="_top"/>
  <anchor x="110" y="1327" name="top"/>
  <anchor x="110" y="1000" name="_GRKtop"/>
  <outline>
    <contour>
      <point x="224" y="1213" type="qcurve" smooth="yes"/>
      <point x="224" y="1268"/>
      <point x="284" y="1327"/>
      <point x="340" y="1327" type="qcurve" smooth="yes"/>
      <point x="393" y="1327"/>
      <point x="456" y="1264"/>
      <point x="456" y="1213" type="qcurve" smooth="yes"/>
      <point x="456" y="1159"/>
      <point x="397" y="1100"/>
      <point x="340" y="1100" type="qcurve" smooth="yes"/>
      <point x="287" y="1100"/>
      <point x="224" y="1162"/>
    </contour>
    <contour>
      <point x="-236" y="1213" type="qcurve" smooth="yes"/>
      <point x="-236" y="1268"/>
      <point x="-176" y="1327"/>
      <point x="-120" y="1327" type="qcurve" smooth="yes"/>
      <point x="-67" y="1327"/>
      <point x="-4" y="1264"/>
      <point x="-4" y="1213" type="qcurve" smooth="yes"/>
      <point x="-4" y="1159"/>
      <point x="-63" y="1100"/>
      <point x="-120" y="1100" type="qcurve" smooth="yes"/>
      <point x="-173" y="1100"/>
      <point x="-236" y="1162"/>
    </contour>
  </outline>
</glyph>
<glyph name="ringcomb" format="2">
  <advance width="220"/>
  <unicode hex="030A"/>
  <anchor x="110" y="1000" name="_top"/>
  <anchor x="110" y="1565" name="top"/>
  <outline>
    <contour>
      <point x="-117" y="1347" type="qcurve" smooth="yes"/>
      <point x="-117" y="1438"/>
      <point x="15" y="1565"/>
      <point x="110" y="1565" type="qcurve" smooth="yes"/>
      <point x="205" y="1565"/>
      <point x="337" y="1438"/>
      <point x="337" y="1347" type="qcurve" smooth="yes"/>
      <point x="337" y="1256"/>
      <point x="205" y="1129"/>
      <point x="110" y="1129" type="qcurve" smooth="yes"/>
      <point x="15" y="1129"/>
      <point x="-117" y="1256"/>
    </contour>
    <contour>
      <point x="7" y="1347" type="qcurve" smooth="yes"/>
      <point x="7" y="1301"/>
      <point x="63" y="1244"/>
      <point x="110" y="1244" type="qcurve" smooth="yes"/>
      <point x="160" y="1244"/>
      <point x="213" y="1297"/>
      <point x="213" y="1347" type="qcurve" smooth="yes"/>
      <point x="213" y="1393"/>
      <point x="157" y="1450"/>
      <point x="110" y="1450" type="qcurve" smooth="yes"/>
      <point x="60" y="1450"/>
      <point x="7" y="1397"/>
    </contour>
  </outline>
</glyph>
<glyph name="caroncomb" format="2">
  <advance width="220"/>
  <unicode hex="030C"/>
  <anchor x="110" y="1000" name="_top"/>
  <anchor x="110" y="1511" name="top"/>
  <outline>
    <contour>
      <point x="110" y="1122" type="qcurve" smooth="yes"/>
      <point x="76" y="1122"/>
      <point x="31" y="1153"/>
      <point x="0" y="1195" type="qcurve" smooth="yes"/>
      <point x="-203" y="1438" type="line"/>
      <point x="-125" y="1511" type="line"/>
      <point x="110" y="1296" type="line"/>
      <point x="345" y="1511" type="line"/>
      <point x="423" y="1438" type="line"/>
      <point x="220" y="1195" type="line" smooth="yes"/>
      <point x="179" y="1146"/>
      <point x="144" y="1122"/>
    </contour>
  </outline>
</glyph>
<glyph name="dieresisbelowcomb" format="2">
  <advance width="220"/>
  <unicode hex="0324"/>
  <anchor x="110" y="0" name="_bottom"/>
  <anchor x="110" y="-441" name="bottom"/>
  <outline>
    <contour>
      <point x="-236" y="-328" type="qcurve" smooth="yes"/>
      <point x="-236" y="-273"/>
      <point x="-176" y="-214"/>
      <point x="-120" y="-214" type="qcurve" smooth="yes"/>
      <point x="-67" y="-214"/>
      <point x="-4" y="-277"/>
      <point x="-4" y="-328" type="qcurve" smooth="yes"/>
      <point x="-4" y="-382"/>
      <point x="-63" y="-441"/>
      <point x="-120" y="-441" type="qcurve" smooth="yes"/>
      <point x="-173" y="-441"/>
      <point x="-236" y="-379"/>
    </contour>
    <contour>
      <point x="224" y="-328" type="qcurve" smooth="yes"/>
      <point x="224" y="-273"/>
      <point x="284" y="-214"/>
      <point x="340" y="-214" type="qcurve" smooth="yes"/>
      <point x="393" y="-214"/>
      <point x="456" y="-277"/>
      <point x="456" y="-328" type="qcurve" smooth="yes"/>
      <point x="456" y="-382"/>
      <point x="397" y="-441"/>
      <point x="340" y="-441" type="qcurve" smooth="yes"/>
      <point x="287" y="-441"/>
      <point x="224" y="-379"/>
    </contour>
  </outline>
</glyph>
<glyph name="cedillacomb" format="2">
  <advance width="220"/>
  <unicode hex="0327"/>
  <anchor x="113" y="0" name="_bottom"/>
  <anchor x="95" y="-541" name="bottom"/>
  <outline>
    <contour>
      <point x="156" y="0" type="line"/>
      <point x="89" y="-125" type="line"/>
      <point x="106" y="-119"/>
      <point x="164" y="-106"/>
      <point x="194" y="-106" type="qcurve" smooth="yes"/>
      <point x="270" y="-106"/>
      <point x="381" y="-196"/>
      <point x="381" y="-285" type="qcurve" smooth="yes"/>
      <point x="381" y="-380"/>
      <point x="239" y="-494"/>
      <point x="148" y="-494" type="qcurve" smooth="yes"/>
      <point x="59" y="-494"/>
      <point x="-98" y="-450"/>
      <point x="-150" y="-408" type="qcurve"/>
      <point x="-98" y="-299" type="line"/>
      <point x="-57" y="-331"/>
      <point x="58" y="-375"/>
      <point x="126" y="-375" type="qcurve" smooth="yes"/>
      <point x="172" y="-375"/>
      <point x="247" y="-328"/>
      <point x="247" y="-282" type="qcurve" smooth="yes"/>
      <point x="247" y="-239"/>
      <point x="183" y="-204"/>
      <point x="126" y="-204" type="qcurve" smooth="yes"/>
      <point x="92" y="-204"/>
      <point x="39" y="-212"/>
      <point x="20" y="-218" type="qcurve"/>
      <point x="-39" y="-146" type="line"/>
      <point x="65" y="53" type="line"/>
    </contour>
  </outline>
</glyph>
<glyph name="Gamma" format="2">
  <advance width="1114"/>
  <unicode hex="0393"/>
  <anchor x="654" y="1500" name="top"/>
  <anchor x="370" y="760" name="center"/>
  <outline>
    <contour>
      <point x="70" y="0" type="line"/>
      <point x="70" y="116" type="line"/>
      <point x="290" y="153" type="line"/>
      <point x="292" y="760" type="line"/>
      <point x="290" y="1336" type="line"/>
      <point x="70" y="1370" type="line"/>
      <point x="70" y="1500" type="line"/>
      <point x="1064" y="1500" type="line"/>
      <point x="1064" y="1216" type="line"/>
      <point x="942" y="1216" type="line"/>
      <point x="906" y="1382" type="line"/>
      <point x="478" y="1382" type="line"/>
      <point x="448" y="1362" type="line"/>
      <point x="446" y="760" type="line"/>
      <point x="448" y="148" type="line"/>
      <point x="688" y="116" type="line"/>
      <point x="688" y="0" type="line"/>
    </contour>
  </outline>
</glyph>
<glyph name="Delta" format="2">
  <advance width="1566"/>
  <unicode hex="0394"/>
  <outline>
    <contour>
      <point x="137" y="0" type="line"/>
      <point x="137" y="99" type="line"/>
      <point x="330" y="539" type="line"/>
      <point x="731" y="1508" type="line"/>
      <point x="838" y="1508" type="line"/>
      <point x="1244" y="542" type="line"/>
      <point x="1438" y="100" type="line"/>
      <point x="1438" y="0" type="line"/>
    </contour>
    <contour>
      <point x="307" y="108" type="line"/>
      <point x="773" y="93" type="line"/>
      <point x="1248" y="108" type="line"/>
      <point x="1257" y="114" type="line"/>
      <point x="1097" y="511" type="line"/>
      <point x="826" y="1147" type="line"/>
      <point x="783" y="1261" type="line"/>
      <point x="771" y="1261" type="line"/>
      <point x="729" y="1147" type="line"/>
      <point x="449" y="492" type="line"/>
      <point x="298" y="114" type="line"/>
    </contour>
  </outline>
</glyph>
<glyph name="Theta" format="2">
  <advance width="1755"/>
  <unicode hex="0398"/>
  <outline>
    <contour>
      <point x="881" y="-31" type="qcurve" smooth="yes"/>
      <point x="540" y="-31"/>
      <point x="98" y="396"/>
      <point x="98" y="737" type="qcurve" smooth="yes"/>
      <point x="98" y="1068"/>
      <point x="528" y="1520"/>
      <point x="877" y="1520" type="qcurve" smooth="yes"/>
      <point x="1227" y="1520"/>
      <point x="1657" y="1097"/>
      <point x="1657" y="752" type="qcurve" smooth="yes"/>
      <point x="1657" y="423"/>
      <point x="1231" y="-31"/>
    </contour>
    <contour>
      <point x="879" y="104" type="qcurve" smooth="yes"/>
      <point x="1177" y="104"/>
      <point x="1489" y="437"/>
      <point x="1489" y="745" type="qcurve" smooth="yes"/>
      <point x="1489" y="1019"/>
      <point x="1155" y="1378"/>
      <point x="879" y="1378" type="qcurve" smooth="yes"/>
      <point x="581" y="1378"/>
      <point x="265" y="1052"/>
      <point x="265" y="771" type="qcurve" smooth="yes"/>
      <point x="265" y="479"/>
      <point x="607" y="104"/>
    </contour>
    <contour>
      <point x="481" y="659" type="line"/>
      <point x="481" y="813" type="line"/>
      <point x="490" y="813" type="line"/>
      <point x="874" y="797" type="line"/>
      <point x="884" y="797" type="line"/>
      <point x="1266" y="813" type="line"/>
      <point x="1275" y="813" type="line"/>
      <point x="1275" y="659" type="line"/>
      <point x="1266" y="659" type="line"/>
      <point x="884" y="674" type="line"/>
      <point x="874" y="674" type="line"/>
      <point x="490" y="659" type="line"/>
    </contour>
  </outline>
</glyph>
<glyph name="Lambda" format="2">
  <advance width="1653"/>
  <unicode hex="039B"/>
  <outline>
    <contour>
      <point x="-19" y="0" type="line"/>
      <point x="-19" y="116" type="line"/>
      <point x="187" y="151" type="line"/>
      <point x="364" y="544" type="line"/>
      <point x="774" y="1508" type="line"/>
      <point x="884" y="1508" type="line"/>
      <point x="1290" y="567" type="line"/>
      <point x="1477" y="151" type="line"/>
      <point x="1674" y="116" type="line"/>
      <point x="1674" y="0" type="line"/>
      <point x="1120" y="0" type="line"/>
      <point x="1120" y="116" type="line"/>
      <point x="1305" y="147" type="line"/>
      <point x="1153" y="511" type="line"/>
      <point x="874" y="1148" type="line"/>
      <point x="829" y="1261" type="line"/>
      <point x="817" y="1261" type="line"/>
      <point x="774" y="1148" type="line"/>
      <point x="479" y="495" type="line"/>
      <point x="340" y="146" type="line"/>
      <point x="524" y="116" type="line"/>
      <point x="524" y="0" type="line"/>
    </contour>
  </outline>
</glyph>
<glyph name="Xi" format="2">
  <advance width="1491"/>
  <unicode hex="039E"/>
  <outline>
    <contour>
      <point x="97" y="0" type="line"/>
      <point x="46" y="434" type="line"/>
      <point x="174" y="434" type="line"/>
      <point x="258" y="114" type="line"/>
      <point x="745" y="101" type="line"/>
      <point x="1232" y="114" type="line"/>
      <point x="1317" y="434" type="line"/>
      <point x="1445" y="434" type="line"/>
      <point x="1394" y="0" type="line"/>
    </contour>
    <contour>
      <point x="293" y="502" type="line"/>
      <point x="293" y="970" type="line"/>
      <point x="399" y="970" type="line"/>
      <point x="434" y="809" type="line"/>
      <point x="745" y="789" type="line"/>
      <point x="1057" y="809" type="line"/>
      <point x="1092" y="970" type="line"/>
      <point x="1198" y="970" type="line"/>
      <point x="1198" y="502" type="line"/>
      <point x="1092" y="502" type="line"/>
      <point x="1057" y="663" type="line"/>
      <point x="745" y="683" type="line"/>
      <point x="434" y="663" type="line"/>
      <point x="399" y="502" type="line"/>
    </contour>
    <contour>
      <point x="92" y="1042" type="line"/>
      <point x="92" y="1500" type="line"/>
      <point x="1399" y="1500" type="line"/>
      <point x="1399" y="1042" type="line"/>
      <point x="1271" y="1042" type="line"/>
      <point x="1239" y="1377" type="line"/>
      <point x="745" y="1390" type="line"/>
      <point x="252" y="1377" type="line"/>
      <point x="220" y="1042" type="line"/>
    </contour>
  </outline>
</glyph>
<glyph name="Pi" format="2">
  <advance width="1682"/>
  <unicode hex="03A0"/>
  <outline>
    <contour>
      <point x="100" y="0" type="line"/>
      <point x="100" y="100" type="line"/>
      <point x="308" y="135" type="line"/>
      <point x="310" y="754" type="line"/>
      <point x="308" y="1352" type="line"/>
      <point x="100" y="1386" type="line"/>
      <point x="100" y="1500" type="line"/>
      <point x="1582" y="1500" type="line"/>
      <point x="1582" y="1386" type="line"/>
      <point x="1374" y="1352" type="line"/>
      <point x="1372" y="754" type="line"/>
      <point x="1374" y="135" type="line"/>
      <point x="1582" y="100" type="line"/>
      <point x="1582" y="0" type="line"/>
      <point x="1007" y="0" type="line"/>
      <point x="1007" y="100" type="line"/>
      <point x="1215" y="135" type="line"/>
      <point x="1217" y="754" type="line"/>
      <point x="1215" y="1352" type="line"/>
      <point x="839" y="1355" type="line"/>
      <point x="464" y="1352" type="line"/>
      <point x="464" y="754" type="line"/>
      <point x="466" y="135" type="line"/>
      <point x="674" y="100" type="line"/>
      <point x="674" y="0" type="line"/>
    </contour>
  </outline>
</glyph>
<glyph name="Sigma" format="2">
  <advance width="1188"/>
  <unicode hex="03A3"/>
  <outline>
    <contour>
      <point x="70" y="0" type="line"/>
      <point x="40" y="92" type="line"/>
      <point x="536" y="722" type="line"/>
      <point x="536" y="732" type="line"/>
      <point x="90" y="1410" type="line"/>
      <point x="90" y="1500" type="line"/>
      <point x="1118" y="1500" type="line"/>
      <point x="1118" y="1042" type="line"/>
      <point x="990" y="1042" type="line"/>
      <point x="954" y="1382" type="line"/>
      <point x="304" y="1382" type="line"/>
      <point x="295" y="1374" type="line"/>
      <point x="696" y="761" type="line"/>
      <point x="696" y="684" type="line"/>
      <point x="250" y="114" type="line"/>
      <point x="258" y="108" type="line"/>
      <point x="956" y="108" type="line"/>
      <point x="1044" y="434" type="line"/>
      <point x="1172" y="434" type="line"/>
      <point x="1119" y="0" type="line"/>
    </contour>
  </outline>
</glyph>
<glyph name="Phi" format="2">
  <advance width="1821"/>
  <unicode hex="03A6"/>
  <outline>
    <contour>
      <point x="644" y="-24" type="line"/>
      <point x="644" y="76" type="line"/>
      <point x="835" y="111" type="line"/>
      <point x="838" y="270" type="line"/>
      <point x="845" y="270" type="line"/>
      <point x="847" y="745" type="line"/>
      <point x="973" y="745" type="line"/>
      <point x="975" y="270" type="line"/>
      <point x="982" y="270" type="line"/>
      <point x="985" y="111" type="line"/>
      <point x="1176" y="76" type="line"/>
      <point x="1176" y="-24" type="line"/>
    </contour>
    <contour>
      <point x="847" y="745" type="line"/>
      <point x="845" y="1235" type="line"/>
      <point x="838" y="1235" type="line"/>
      <point x="835" y="1372" type="line"/>
      <point x="644" y="1406" type="line"/>
      <point x="644" y="1520" type="line"/>
      <point x="1176" y="1520" type="line"/>
      <point x="1176" y="1406" type="line"/>
      <point x="985" y="1372" type="line"/>
      <point x="982" y="1235" type="line"/>
      <point x="975" y="1235" type="line"/>
      <point x="973" y="745" type="line"/>
    </contour>
    <contour>
      <point x="910" y="216" type="qcurve" smooth="yes"/>
      <point x="450" y="216"/>
      <point x="60" y="490"/>
      <point x="60" y="718" type="qcurve" smooth="yes"/>
      <point x="60" y="986"/>
      <point x="516" y="1292"/>
      <point x="910" y="1292" type="qcurve" smooth="yes"/>
      <point x="1371" y="1292"/>
      <point x="1761" y="1018"/>
      <point x="1761" y="790" type="qcurve" smooth="yes"/>
      <point x="1761" y="522"/>
      <point x="1338" y="216"/>
    </contour>
    <contour>
      <point x="910" y="328" type="qcurve" smooth="yes"/>
      <point x="1318" y="328"/>
      <point x="1600" y="563"/>
      <point x="1600" y="771" type="qcurve" smooth="yes"/>
      <point x="1600" y="971"/>
      <point x="1312" y="1172"/>
      <point x="909" y="1172" type="qcurve" smooth="yes"/>
      <point x="525" y="1172"/>
      <point x="220" y="937"/>
      <point x="220" y="729" type="qcurve" smooth="yes"/>
      <point x="220" y="529"/>
      <point x="526" y="328"/>
    </contour>
  </outline>
</glyph>
<glyph name="Psi" format="2">
  <advance width="1821"/>
  <unicode hex="03A8"/>
  <outline>
    <contour>
      <point x="601" y="0" type="line"/>
      <point x="601" y="100" type="line"/>
      <point x="831" y="135" type="line"/>
      <point x="832" y="519" type="line"/>
      <point x="837" y="519" type="line"/>
      <point x="837" y="811" type="line"/>
      <point x="831" y="1352" type="line"/>
      <point x="641" y="1386" type="line"/>
      <point x="641" y="1500" type="line"/>
      <point x="1180" y="1500" type="line"/>
      <point x="1180" y="1386" type="line"/>
      <point x="990" y="1352" type="line"/>
      <point x="984" y="811" type="line"/>
      <point x="984" y="519" type="line"/>
      <point x="988" y="519" type="line"/>
      <point x="990" y="135" type="line"/>
      <point x="1220" y="100" type="line"/>
      <point x="1220" y="0" type="line"/>
    </contour>
    <contour>
      <point x="910" y="462" type="qcurve"/>
      <point x="531" y="462"/>
      <point x="287" y="717"/>
      <point x="262" y="1007" type="qcurve" smooth="yes"/>
      <point x="232" y="1352" type="line"/>
      <point x="52" y="1386" type="line"/>
      <point x="52" y="1500" type="line"/>
      <point x="345" y="1500" type="line"/>
      <point x="378" y="1477" type="line"/>
      <point x="418" y="1013" type="line" smooth="yes"/>
      <point x="443" y="724"/>
      <point x="657" y="577"/>
      <point x="910" y="577" type="qcurve"/>
      <point x="1162" y="577"/>
      <point x="1377" y="724"/>
      <point x="1402" y="1013" type="qcurve" smooth="yes"/>
      <point x="1442" y="1477" type="line"/>
      <point x="1475" y="1500" type="line"/>
      <point x="1769" y="1500" type="line"/>
      <point x="1769" y="1386" type="line"/>
      <point x="1589" y="1352" type="line"/>
      <point x="1559" y="1007" type="line" smooth="yes"/>
      <point x="1534" y="717"/>
      <point x="1289" y="462"/>
    </contour>
  </outline>
</glyph>
<glyph name="Omega" format="2">
  <advance width="1679"/>
  <unicode hex="03A9"/>
  <anchor x="139" y="1500" name="tonos"/>
  <outline>
    <contour>
      <point x="38" y="0" type="line"/>
      <point x="-4" y="394" type="line"/>
      <point x="112" y="394" type="line"/>
      <point x="190" y="108" type="line"/>
      <point x="550" y="108" type="line"/>
      <point x="562" y="230" type="line"/>
      <point x="348" y="297"/>
      <point x="91" y="634"/>
      <point x="91" y="872" type="qcurve"/>
      <point x="91" y="1167"/>
      <point x="493" y="1520"/>
      <point x="839" y="1520" type="qcurve"/>
      <point x="1183" y="1520"/>
      <point x="1588" y="1170"/>
      <point x="1588" y="871" type="qcurve"/>
      <point x="1588" y="634"/>
      <point x="1329" y="297"/>
      <point x="1117" y="230" type="qcurve"/>
      <point x="1129" y="108" type="line"/>
      <point x="1489" y="108" type="line"/>
      <point x="1566" y="394" type="line"/>
      <point x="1682" y="394" type="line"/>
      <point x="1641" y="0" type="line"/>
      <point x="1011" y="0" type="line"/>
      <point x="981" y="330" type="line"/>
      <point x="1199" y="393"/>
      <point x="1420" y="651"/>
      <point x="1420" y="872" type="qcurve"/>
      <point x="1420" y="1131"/>
      <point x="1108" y="1380"/>
      <point x="839" y="1380" type="qcurve"/>
      <point x="570" y="1380"/>
      <point x="258" y="1130"/>
      <point x="258" y="872" type="qcurve"/>
      <point x="258" y="651"/>
      <point x="479" y="393"/>
      <point x="698" y="330" type="qcurve"/>
      <point x="668" y="0" type="line"/>
    </contour>
  </outline>
</glyph>
